<?xml version="1.0" encoding="UTF-8"?>
<!DOCTYPE svg PUBLIC "-//W3C//DTD SVG 1.1//EN" "http://www.w3.org/Graphics/SVG/1.1/DTD/svg11.dtd">
<!-- Creator: CorelDRAW -->
<svg xmlns="http://www.w3.org/2000/svg" xml:space="preserve" width="15mm" height="11mm" style="shape-rendering:geometricPrecision; text-rendering:geometricPrecision; image-rendering:optimizeQuality; fill-rule:evenodd; clip-rule:evenodd"
viewBox="0 0 15 11"
 xmlns:xlink="http://www.w3.org/1999/xlink">
 <defs>
  <style type="text/css">
   <![CDATA[
    .str0 {stroke:#B73128;stroke-width:0.3387}
    .fil0 {fill:none}
   ]]>
  </style>
 </defs>
 <g id="Layer_x0020_1">
  <metadata id="CorelCorpID_0Corel-Layer"/>
  <path id="book-open-solid.svg" class="fil0 str0" d="M6.6282 10.4781c0.2452,0.0863 0.5085,-0.0931 0.5085,-0.3519l0 -8.5682c0,-0.0954 -0.0363,-0.1907 -0.1135,-0.2498 -0.4449,-0.3541 -1.4666,-0.8082 -2.7925,-0.8082 -1.1465,0 -2.2181,0.302 -2.8583,0.5472 -0.2566,0.0999 -0.4109,0.3541 -0.4109,0.6288l0 8.4071c0,0.2701 0.2906,0.4586 0.5471,0.3746 0.7152,-0.2384 1.848,-0.5131 2.7221,-0.5131 0.7697,0 1.7936,0.3178 2.3975,0.5335zm1.7436 0c0.6039,-0.2157 1.6278,-0.5335 2.3975,-0.5335 0.8741,0 2.0069,0.2747 2.7221,0.5131 0.2565,0.0862 0.5471,-0.1045 0.5471,-0.3746l0 -8.4071c0,-0.2747 -0.1543,-0.5289 -0.4109,-0.6266 -0.6402,-0.2474 -1.7118,-0.5494 -2.8583,-0.5494 -1.3259,0 -2.3476,0.4541 -2.7925,0.8082 -0.075,0.0591 -0.1135,0.1544 -0.1135,0.2498l0 8.5682c0,0.2588 0.2656,0.4382 0.5085,0.3519z"/>
 </g>
</svg>
