<?xml version="1.0" encoding="UTF-8"?>
<!DOCTYPE svg PUBLIC "-//W3C//DTD SVG 1.1//EN" "http://www.w3.org/Graphics/SVG/1.1/DTD/svg11.dtd">
<!-- Creator: CorelDRAW -->
<svg xmlns="http://www.w3.org/2000/svg" xml:space="preserve" width="15mm" height="11mm" style="shape-rendering:geometricPrecision; text-rendering:geometricPrecision; image-rendering:optimizeQuality; fill-rule:evenodd; clip-rule:evenodd"
viewBox="0 0 15 11"
 xmlns:xlink="http://www.w3.org/1999/xlink">
 <defs>
  <style type="text/css">
   <![CDATA[
    .str0 {stroke:#B73128;stroke-width:0.3387}
    .fil0 {fill:none}
   ]]>
  </style>
 </defs>
 <g id="Layer_x0020_1">
  <metadata id="CorelCorpID_0Corel-Layer"/>
  <g id="_248691192">
   <path id="chalkboard-user-solid.svg" class="fil0 str0" d="M3.8535 7.375l1.041 0c1.4394,0 2.6055,1.1661 2.6055,2.6036 0,0.2871 -0.2324,0.5214 -0.5214,0.5214l-5.2071 0c-0.2891,0 -0.5216,-0.2324 -0.5216,-0.5214 0,-1.4375 1.1661,-2.6036 2.6036,-2.6036z"/>
   <path id="chalkboard-user-solid.svg_0" class="fil0 str0" d="M4.375 1.75c0,-0.6894 0.5606,-1.25 1.25,-1.25l6.875 0c0.6895,0 1.2501,0.5606 1.2501,1.25l0 5.625c0,0.6895 -0.5606,1.25 -1.2501,1.25l-4.6718 0c-0.2305,-0.498 -0.584,-0.9277 -1.0236,-1.25l1.9454 0 0 -0.6249c0,-0.3457 0.2793,-0.6251 0.625,-0.6251l1.25 0c0.3457,0 0.625,0.2794 0.625,0.6251l0 0.6249 1.25 0 0 -5.625 -6.875 0 0 0.9591c-0.3672,-0.213 -0.795,-0.334 -1.25,-0.334l0 -0.6251z"/>
   <circle id="_246811952" class="fil0 str0" cx="4.37498" cy="4.77785" r="1.87313"/>
  </g>
 </g>
</svg>
