<?xml version="1.0" encoding="UTF-8"?>
<!DOCTYPE svg PUBLIC "-//W3C//DTD SVG 1.1//EN" "http://www.w3.org/Graphics/SVG/1.1/DTD/svg11.dtd">
<!-- Creator: CorelDRAW -->
<svg xmlns="http://www.w3.org/2000/svg" xml:space="preserve" width="15mm" height="11mm" style="shape-rendering:geometricPrecision; text-rendering:geometricPrecision; image-rendering:optimizeQuality; fill-rule:evenodd; clip-rule:evenodd"
viewBox="0 0 15 11"
 xmlns:xlink="http://www.w3.org/1999/xlink">
 <defs>
  <style type="text/css">
   <![CDATA[
    .str0 {stroke:#B73128;stroke-width:0.3387}
    .fil0 {fill:none}
   ]]>
  </style>
 </defs>
 <g id="Layer_x0020_1">
  <metadata id="CorelCorpID_0Corel-Layer"/>
  <g id="_248691600">
   <path id="graduation-cap-solid.svg" class="fil0 str0" d="M3.2153 8.8911c0,0.7878 1.9193,1.6068 4.2849,1.6068 2.3656,0 4.2848,-0.819 4.2848,-1.6068l-0.3414 -3.2449 -3.1735 1.1471c-0.2477,0.0893 -0.5088,0.1339 -0.7699,0.1339 -0.2611,0 -0.5245,-0.0446 -0.77,-0.1339l-3.1734 -1.1471 -0.3415 3.2449z"/>
   <path id="graduation-cap-solid.svg_0" class="fil0 str0" d="M7.5002 0.4999c-0.1808,0 -0.3593,0.0312 -0.5289,0.0915l-6.2599 2.2607c-0.2121,0.0781 -0.3527,0.279 -0.3527,0.5044 0,0.2254 0.1406,0.4262 0.3527,0.5044l1.2921 0.4664c-0.366,0.5757 -0.5735,1.2564 -0.5735,1.9728l0 0.6271c0,0.6338 -0.2411,1.2877 -0.4977,1.8032 -0.1451,0.2901 -0.3102,0.5758 -0.5021,0.8391 -0.0715,0.096 -0.0915,0.221 -0.0514,0.3348 0.0402,0.1138 0.1339,0.1986 0.25,0.2276l1.4283 0.3571c0.0937,0.0246 0.1941,0.0067 0.2767,-0.0446 0.0826,-0.0514 0.1406,-0.1362 0.1584,-0.2321 0.192,-0.9552 0.096,-1.8122 -0.0468,-2.4259 -0.0714,-0.3169 -0.1674,-0.6405 -0.3013,-0.9373l0 -0.549c0,-0.674 0.2276,-1.31 0.6226,-1.8188 0.2879,-0.346 0.6606,-0.6249 1.098,-0.7968l3.5038 -1.3769c0.183,-0.0714 0.3906,0.0178 0.462,0.2008 0.0714,0.183 -0.0179,0.3906 -0.2009,0.462l-3.5038 1.377c-0.2767,0.1093 -0.5199,0.2767 -0.7186,0.482l3.5618 1.2855c0.1696,0.0602 0.3482,0.0915 0.5289,0.0915 0.1808,0 0.3593,-0.0313 0.5289,-0.0915l6.2622 -2.2541c0.212,-0.0758 0.3526,-0.2789 0.3526,-0.5043 0,-0.2254 -0.1406,-0.4263 -0.3526,-0.5044l-6.2599 -2.2607c-0.1696,-0.0603 -0.3482,-0.0915 -0.5289,-0.0915z"/>
  </g>
 </g>
</svg>
