<?xml version="1.0" encoding="UTF-8"?>
<!DOCTYPE svg PUBLIC "-//W3C//DTD SVG 1.1//EN" "http://www.w3.org/Graphics/SVG/1.1/DTD/svg11.dtd">
<!-- Creator: CorelDRAW -->
<svg xmlns="http://www.w3.org/2000/svg" xml:space="preserve" width="15mm" height="11mm" style="shape-rendering:geometricPrecision; text-rendering:geometricPrecision; image-rendering:optimizeQuality; fill-rule:evenodd; clip-rule:evenodd"
viewBox="0 0 15 11"
 xmlns:xlink="http://www.w3.org/1999/xlink">
 <defs>
  <style type="text/css">
   <![CDATA[
    .str0 {stroke:#B73128;stroke-width:0.3387}
    .fil0 {fill:none}
   ]]>
  </style>
 </defs>
 <g id="Layer_x0020_1">
  <metadata id="CorelCorpID_0Corel-Layer"/>
  <path id="calendar-days-solid.svg" class="fil0 str0" d="M5.625 0.5c0.3457,0 0.625,0.2793 0.625,0.625l0 0.625 2.5 0 0 -0.625c0,-0.3457 0.2793,-0.625 0.625,-0.625 0.3457,0 0.625,0.2793 0.625,0.625l0 0.625 0.9375 0c0.5176,0 0.9375,0.4199 0.9375,0.9375l0 0.9375 -8.75 0 0 -0.9375c0,-0.5176 0.4199,-0.9375 0.9375,-0.9375l0.9375 0 0 -0.625c0,-0.3457 0.2793,-0.625 0.625,-0.625zm-2.5 3.75l8.75 0 0 5.3125c0,0.5176 -0.4199,0.9375 -0.9375,0.9375l-6.875 0c-0.5176,0 -0.9375,-0.4199 -0.9375,-0.9375l0 -5.3125zm1.25 1.5625l0 0.625c0,0.1719 0.1406,0.3125 0.3125,0.3125l0.625 0c0.1719,0 0.3125,-0.1406 0.3125,-0.3125l0 -0.625c0,-0.1719 -0.1406,-0.3125 -0.3125,-0.3125l-0.625 0c-0.1719,0 -0.3125,0.1406 -0.3125,0.3125zm2.5 0l0 0.625c0,0.1719 0.1406,0.3125 0.3125,0.3125l0.625 0c0.1719,0 0.3125,-0.1406 0.3125,-0.3125l0 -0.625c0,-0.1719 -0.1406,-0.3125 -0.3125,-0.3125l-0.625 0c-0.1719,0 -0.3125,0.1406 -0.3125,0.3125zm2.8125 -0.3125c-0.1719,0 -0.3125,0.1406 -0.3125,0.3125l0 0.625c0,0.1719 0.1406,0.3125 0.3125,0.3125l0.625 0c0.1719,0 0.3125,-0.1406 0.3125,-0.3125l0 -0.625c0,-0.1719 -0.1406,-0.3125 -0.3125,-0.3125l-0.625 0zm-5.3125 2.8125l0 0.625c0,0.1719 0.1406,0.3125 0.3125,0.3125l0.625 0c0.1719,0 0.3125,-0.1406 0.3125,-0.3125l0 -0.625c0,-0.1719 -0.1406,-0.3125 -0.3125,-0.3125l-0.625 0c-0.1719,0 -0.3125,0.1406 -0.3125,0.3125zm2.8125 -0.3125c-0.1719,0 -0.3125,0.1406 -0.3125,0.3125l0 0.625c0,0.1719 0.1406,0.3125 0.3125,0.3125l0.625 0c0.1719,0 0.3125,-0.1406 0.3125,-0.3125l0 -0.625c0,-0.1719 -0.1406,-0.3125 -0.3125,-0.3125l-0.625 0zm2.1875 0.3125l0 0.625c0,0.1719 0.1406,0.3125 0.3125,0.3125l0.625 0c0.1719,0 0.3125,-0.1406 0.3125,-0.3125l0 -0.625c0,-0.1719 -0.1406,-0.3125 -0.3125,-0.3125l-0.625 0c-0.1719,0 -0.3125,0.1406 -0.3125,0.3125z"/>
 </g>
</svg>
