<?xml version="1.0" encoding="UTF-8"?>
<!DOCTYPE svg PUBLIC "-//W3C//DTD SVG 1.1//EN" "http://www.w3.org/Graphics/SVG/1.1/DTD/svg11.dtd">
<!-- Creator: CorelDRAW -->
<svg xmlns="http://www.w3.org/2000/svg" xml:space="preserve" width="15mm" height="11mm" style="shape-rendering:geometricPrecision; text-rendering:geometricPrecision; image-rendering:optimizeQuality; fill-rule:evenodd; clip-rule:evenodd"
viewBox="0 0 15 11"
 xmlns:xlink="http://www.w3.org/1999/xlink">
 <defs>
  <style type="text/css">
   <![CDATA[
    .str0 {stroke:#B73128;stroke-width:0.3387}
    .fil0 {fill:none}
   ]]>
  </style>
 </defs>
 <g id="Layer_x0020_1">
  <metadata id="CorelCorpID_0Corel-Layer"/>
  <path id="file-signature-solid.svg" class="fil0 str0" d="M3.126 0.5c-0.6895,0 -1.2501,0.5605 -1.2501,1.25l0 7.5c0,0.6894 0.5606,1.25 1.2501,1.25l5 0c0.6894,0 1.25,-0.5605 1.25,-1.25l0 -0.377c-0.0528,0.0215 -0.1055,0.0391 -0.1602,0.0528l-1.1738 0.293c-0.0586,0.0136 -0.1172,0.0234 -0.1758,0.0273 -0.0176,0.002 -0.0351,0.0039 -0.0527,0.0039l-1.25 0c-0.1192,0 -0.2266,-0.0664 -0.2793,-0.1719l-0.1719 -0.3457c-0.0332,-0.0664 -0.0996,-0.1074 -0.1719,-0.1074 -0.0722,0 -0.1406,0.041 -0.1719,0.1074l-0.1718 0.3457c-0.0567,0.1153 -0.1797,0.1836 -0.3067,0.1719 -0.1269,-0.0117 -0.2363,-0.0996 -0.2714,-0.2207l-0.3301 -1.0879 -0.1914 0.6406c-0.1192,0.3965 -0.4844,0.668 -0.8985,0.668l-0.1601 0c-0.1719,0 -0.3125,-0.1406 -0.3125,-0.3125 0,-0.1719 0.1406,-0.3125 0.3125,-0.3125l0.1601 0c0.1387,0 0.2598,-0.0898 0.2988,-0.2227l0.2911 -0.9668c0.0664,-0.2207 0.2695,-0.373 0.5,-0.373 0.2304,0 0.4336,0.1523 0.5,0.373l0.2265 0.7539c0.1446,-0.121 0.3282,-0.1894 0.5235,-0.1894 0.3105,0 0.5937,0.1758 0.7324,0.4531l0.0859 0.1719 0.1739 0c-0.0606,-0.1719 -0.0723,-0.3594 -0.0274,-0.543l0.293 -1.1738c0.0547,-0.2207 0.168,-0.4199 0.3281,-0.5801l1.8516 -1.8515 0 -0.8516 -2.5 0c-0.3457,0 -0.625,-0.2793 -0.625,-0.625l0 -2.5 -3.125 0zm3.75 0l0 2.5 2.5 0 -2.5 -2.5zm5.7383 2.7285c-0.3047,-0.3047 -0.7989,-0.3047 -1.1055,0l-0.5742 0.5742 1.3867 1.3868 0.5742 -0.5743c0.3047,-0.3046 0.3047,-0.7988 0,-1.1054l-0.2812 -0.2813zm-4.6465 3.541c-0.0801,0.0801 -0.1367,0.1797 -0.1641,0.291l-0.293 1.1739c-0.0273,0.1074 0.0039,0.2187 0.0821,0.2969 0.0781,0.0781 0.1894,0.1093 0.2969,0.082l1.1738 -0.293c0.1094,-0.0273 0.2109,-0.084 0.291,-0.164l2.5234 -2.5254 -1.3867 -1.3868 -2.5234 2.5254z"/>
 </g>
</svg>
