<?xml version="1.0" encoding="UTF-8"?>
<!DOCTYPE svg PUBLIC "-//W3C//DTD SVG 1.1//EN" "http://www.w3.org/Graphics/SVG/1.1/DTD/svg11.dtd">
<!-- Creator: CorelDRAW -->
<svg xmlns="http://www.w3.org/2000/svg" xml:space="preserve" width="49.931mm" height="6.083mm" style="shape-rendering:geometricPrecision; text-rendering:geometricPrecision; image-rendering:optimizeQuality; fill-rule:evenodd; clip-rule:evenodd"
viewBox="0 0 49.931 6.083"
 xmlns:xlink="http://www.w3.org/1999/xlink">
 <defs>
  <style type="text/css">
   <![CDATA[
    .fil3 {fill:#34A853}
    .fil0 {fill:#4285F4}
    .fil1 {fill:#EA4335}
    .fil2 {fill:#FBBC05}
    .fil4 {fill:gray;fill-rule:nonzero}
   ]]>
  </style>
 </defs>
 <g id="Layer_x0020_1">
  <metadata id="CorelCorpID_0Corel-Layer"/>
  <g id="_347395944">
   <path id="_347390472" class="fil0" d="M2.416 2.167l0 0.6509 1.5557 0c-0.0476,0.3651 -0.1693,0.6324 -0.3545,0.8202 -0.2275,0.2275 -0.5821,0.4763 -1.2012,0.4763 -0.9578,0 -1.7066,-0.7726 -1.7066,-1.7304 0,-0.9578 0.7488,-1.7304 1.7066,-1.7304 0.5159,0 0.8943,0.2037 1.1721,0.4657l0.4577 -0.4577c-0.3863,-0.3758 -0.9049,-0.6615 -1.6298,-0.6615 -1.3124,0 -2.4157,1.0689 -2.4157,2.3812 0,1.3123 1.1033,2.3813 2.4156,2.3813 0.7091,0 1.2435,-0.2328 1.6616,-0.6668 0.4286,-0.4286 0.5636,-1.0345 0.5636,-1.5214 0,-0.1508 -0.0106,-0.291 -0.0344,-0.4075l-2.1907 0.0001z"/>
   <path id="_347392128" class="fil1" d="M6.5858 1.6379c-0.8493,0 -1.5425,0.6456 -1.5425,1.5372 0,0.8837 0.6932,1.5372 1.5425,1.5372 0.8493,0 1.5425,-0.6509 1.5425,-1.5372 0,-0.8916 -0.6932,-1.5372 -1.5425,-1.5372zm0 2.4685c-0.4657,0 -0.8678,-0.3836 -0.8678,-0.9313 0,-0.553 0.4022,-0.9313 0.8678,-0.9313 0.4656,0 0.8678,0.3784 0.8678,0.9313 0,0.5477 -0.4022,0.9313 -0.8678,0.9313z"/>
   <path id="_347392560" class="fil0" d="M14.1476 1.9818l-0.0238 0c-0.1508,-0.1799 -0.4419,-0.344 -0.8096,-0.344 -0.7673,0.0001 -1.4367,0.6695 -1.4367,1.5373 0,0.8625 0.6694,1.5372 1.4367,1.5372 0.3678,0 0.6588,-0.164 0.8096,-0.3493l0.0238 0.0001 0 0.2143c0,0.5874 -0.3149,0.9022 -0.8202,0.9022 -0.4128,0 -0.6694,-0.2963 -0.7752,-0.5477l-0.5874 0.2434c0.1693,0.4075 0.6165,0.9075 1.3626,0.9075 0.7911,0 1.4605,-0.4657 1.4605,-1.6007l0 -2.7649 -0.6403 0 0 0.2646zm-0.7752 2.1246c-0.4657,0 -0.8202,-0.3969 -0.8202,-0.9313 0,-0.5424 0.3545,-0.9313 0.8202,-0.9313 0.4604,0 0.8202,0.3969 0.8202,0.9366 0.0026,0.5371 -0.3598,0.926 -0.8202,0.926z"/>
   <path id="_347393376" class="fil2" d="M10.0254 1.6379c-0.8493,0 -1.5425,0.6456 -1.5425,1.5372 0,0.8837 0.6932,1.5372 1.5425,1.5372 0.8493,0 1.5425,-0.6509 1.5425,-1.5372 0,-0.8916 -0.6932,-1.5372 -1.5425,-1.5372zm0 2.4685c-0.4657,0 -0.8678,-0.3836 -0.8678,-0.9313 0,-0.553 0.4022,-0.9313 0.8678,-0.9313 0.4656,0 0.8678,0.3784 0.8678,0.9313 0,0.5477 -0.4022,0.9313 -0.8678,0.9313z"/>
   <polygon id="_347393112" class="fil3" points="15.3171,0.0636 15.9812,0.0636 15.9812,4.7123 15.3171,4.7123 "/>
   <path id="_347392824" class="fil1" d="M18.0317 4.1064c-0.344,0 -0.5874,-0.1561 -0.7461,-0.4657l2.0558 -0.8493 -0.0688 -0.1746c-0.127,-0.344 -0.5186,-0.979 -1.315,-0.979 -0.7911,0 -1.4499,0.6218 -1.4499,1.5372 0,0.8625 0.6509,1.5372 1.524,1.5372 0.7038,0 1.1113,-0.4313 1.2806,-0.68l-0.5239 -0.3493c-0.1746,0.254 -0.4128,0.4233 -0.7567,0.4233l0 0.0002zm-0.0476 -1.8917c0.2725,0 0.5054,0.1402 0.5821,0.3387l-1.3891 0.5741c0,-0.6456 0.4577,-0.9128 0.807,-0.9128z"/>
   <path id="_347393832" class="fil4" d="M23.0892 4.7627c-0.6731,0 -1.2362,-0.2265 -1.6891,-0.6795 -0.4488,-0.4529 -0.6731,-1.0181 -0.6731,-1.6954 0,-0.6773 0.2243,-1.2404 0.6731,-1.6891 0.4487,-0.4572 1.0117,-0.6858 1.6891,-0.6858 0.6858,0 1.2424,0.2476 1.67,0.7429l-0.4191 0.4064c-0.326,-0.3937 -0.7429,-0.5905 -1.2509,-0.5905 -0.5038,0 -0.925,0.1693 -1.2637,0.508 -0.3344,0.3344 -0.5016,0.7705 -0.5016,1.3081 0,0.5376 0.1672,0.9737 0.5016,1.3081 0.3387,0.3387 0.7599,0.508 1.2637,0.508 0.5291,0 0.9884,-0.2223 1.3779,-0.6668l0.4255 0.4128c-0.2159,0.2582 -0.4805,0.4583 -0.7938,0.6001 -0.3133,0.1418 -0.6498,0.2127 -1.0096,0.2127z"/>
   <polygon id="_3473938321" class="fil4" points="26.061,0.1145 26.061,4.6611 25.4768,4.6611 25.4768,0.1145 "/>
   <path id="_34739383212" class="fil4" d="M27.1977 3.7086c0,0.1524 0.0645,0.2794 0.1936,0.381 0.1291,0.1016 0.2805,0.1524 0.4541,0.1524 0.2455,0 0.4646,-0.091 0.6572,-0.2731 0.1926,-0.182 0.2889,-0.3958 0.2889,-0.6413 -0.182,-0.1439 -0.436,-0.2159 -0.762,-0.2159 -0.2371,0 -0.435,0.0571 -0.5937,0.1714 -0.1588,0.1143 -0.2381,0.2562 -0.2381,0.4255zm0.7556 -2.2606c0.4318,0 0.7726,0.1154 1.0224,0.3461 0.2497,0.2307 0.3746,0.5471 0.3746,0.9493l0 1.9177 -0.5588 0 0 -0.4318 -0.0254 0c-0.2413,0.3556 -0.563,0.5334 -0.9652,0.5334 -0.3429,0 -0.6297,-0.1016 -0.8604,-0.3048 -0.2307,-0.2032 -0.3461,-0.4572 -0.3461,-0.762 0,-0.3217 0.1217,-0.5779 0.3651,-0.7684 0.2434,-0.1905 0.5684,-0.2857 0.9748,-0.2857 0.3471,0 0.6328,0.0635 0.8572,0.1905l0 -0.1334c0,-0.2032 -0.0804,-0.3757 -0.2413,-0.5175 -0.1609,-0.1418 -0.3492,-0.2127 -0.5651,-0.2127 -0.326,0 -0.5842,0.1376 -0.7747,0.4127l-0.5144 -0.3238c0.2836,-0.4064 0.7027,-0.6096 1.2573,-0.6096z"/>
   <path id="_347393832123" class="fil4" d="M32.392 3.7975c0,0.2709 -0.1186,0.4995 -0.3556,0.6858 -0.2371,0.1863 -0.5356,0.2794 -0.8954,0.2794 -0.3133,0 -0.5884,-0.0815 -0.8255,-0.2445 -0.2371,-0.163 -0.4064,-0.3778 -0.508,-0.6445l0.5207 -0.2223c0.0762,0.1863 0.1873,0.3313 0.3334,0.435 0.146,0.1037 0.3058,0.1556 0.4794,0.1556 0.1863,0 0.3418,-0.0402 0.4667,-0.1207 0.1249,-0.0804 0.1874,-0.1756 0.1874,-0.2857 0,-0.199 -0.1524,-0.345 -0.4572,-0.4382l-0.5334 -0.1333c-0.6054,-0.1524 -0.9081,-0.4445 -0.9081,-0.8763 0,-0.2836 0.1154,-0.5112 0.3461,-0.6826 0.2307,-0.1715 0.526,-0.2572 0.8858,-0.2572 0.2752,0 0.5239,0.0656 0.7461,0.1968 0.2223,0.1313 0.3779,0.307 0.4668,0.5271l-0.5207 0.2159c-0.0593,-0.1312 -0.1556,-0.2339 -0.289,-0.308 -0.1333,-0.0741 -0.2825,-0.1111 -0.4476,-0.1111 -0.1524,0 -0.289,0.0381 -0.4096,0.1143 -0.1207,0.0762 -0.181,0.1693 -0.181,0.2794 0,0.1778 0.1672,0.3048 0.5017,0.381l0.4699 0.1206c0.618,0.1524 0.9271,0.4636 0.9271,0.9335z"/>
   <path id="_3473938321234" class="fil4" d="M35.2813 3.7975c0,0.2709 -0.1186,0.4995 -0.3556,0.6858 -0.2371,0.1863 -0.5356,0.2794 -0.8954,0.2794 -0.3133,0 -0.5884,-0.0815 -0.8255,-0.2445 -0.2371,-0.163 -0.4064,-0.3778 -0.508,-0.6445l0.5207 -0.2223c0.0762,0.1863 0.1873,0.3313 0.3334,0.435 0.146,0.1037 0.3058,0.1556 0.4794,0.1556 0.1863,0 0.3418,-0.0402 0.4667,-0.1207 0.1249,-0.0804 0.1874,-0.1756 0.1874,-0.2857 0,-0.199 -0.1524,-0.345 -0.4572,-0.4382l-0.5334 -0.1333c-0.6054,-0.1524 -0.9081,-0.4445 -0.9081,-0.8763 0,-0.2836 0.1154,-0.5112 0.3461,-0.6826 0.2307,-0.1715 0.526,-0.2572 0.8858,-0.2572 0.2752,0 0.5239,0.0656 0.7461,0.1968 0.2223,0.1313 0.3779,0.307 0.4668,0.5271l-0.5207 0.2159c-0.0593,-0.1312 -0.1556,-0.2339 -0.289,-0.308 -0.1333,-0.0741 -0.2825,-0.1111 -0.4476,-0.1111 -0.1524,0 -0.289,0.0381 -0.4096,0.1143 -0.1207,0.0762 -0.181,0.1693 -0.181,0.2794 0,0.1778 0.1672,0.3048 0.5017,0.381l0.4699 0.1206c0.618,0.1524 0.9271,0.4636 0.9271,0.9335z"/>
   <path id="_34739383212345" class="fil4" d="M36.3735 4.6611l-0.5842 0 0 -3.1115 0.5588 0 0 0.508 0.0254 0c0.0593,-0.1651 0.181,-0.3059 0.3651,-0.4223 0.1842,-0.1164 0.3652,-0.1746 0.543,-0.1746 0.1693,0 0.3132,0.0254 0.4318,0.0762l-0.1778 0.5651c-0.072,-0.0296 -0.1863,-0.0444 -0.3429,-0.0444 -0.2202,0 -0.4117,0.0889 -0.5747,0.2667 -0.163,0.1778 -0.2445,0.3852 -0.2445,0.6223l0 1.7145z"/>
   <path id="_347393832123456" class="fil4" d="M37.9166 3.1053c0,-0.4783 0.1503,-0.8741 0.4509,-1.1874 0.3048,-0.3133 0.6879,-0.4699 1.1493,-0.4699 0.4614,0 0.8424,0.1566 1.143,0.4699 0.3048,0.3133 0.4572,0.7091 0.4572,1.1874 0,0.4826 -0.1524,0.8785 -0.4572,1.1875 -0.3006,0.3133 -0.6816,0.4699 -1.143,0.4699 -0.4614,0 -0.8445,-0.1566 -1.1493,-0.4699 -0.3006,-0.3133 -0.4509,-0.7091 -0.4509,-1.1875zm0.5842 0c0,0.3345 0.0974,0.6054 0.2921,0.8128 0.1947,0.2075 0.436,0.3112 0.7239,0.3112 0.2879,0 0.5292,-0.1037 0.7239,-0.3112 0.1947,-0.2074 0.2921,-0.4783 0.2921,-0.8128 0,-0.3302 -0.0974,-0.599 -0.2921,-0.8064 -0.199,-0.2117 -0.4403,-0.3175 -0.7239,-0.3175 -0.2836,0 -0.5249,0.1058 -0.7239,0.3175 -0.1947,0.2074 -0.2921,0.4762 -0.2921,0.8064z"/>
   <path id="_3473938321234567" class="fil4" d="M41.4726 3.1053c0,-0.4783 0.1503,-0.8741 0.4509,-1.1874 0.3048,-0.3133 0.6879,-0.4699 1.1493,-0.4699 0.4614,0 0.8424,0.1566 1.143,0.4699 0.3048,0.3133 0.4572,0.7091 0.4572,1.1874 0,0.4826 -0.1524,0.8785 -0.4572,1.1875 -0.3006,0.3133 -0.6816,0.4699 -1.143,0.4699 -0.4614,0 -0.8445,-0.1566 -1.1493,-0.4699 -0.3006,-0.3133 -0.4509,-0.7091 -0.4509,-1.1875zm0.5842 0c0,0.3345 0.0974,0.6054 0.2921,0.8128 0.1947,0.2075 0.436,0.3112 0.7239,0.3112 0.2879,0 0.5292,-0.1037 0.7239,-0.3112 0.1947,-0.2074 0.2921,-0.4783 0.2921,-0.8128 0,-0.3302 -0.0974,-0.599 -0.2921,-0.8064 -0.199,-0.2117 -0.4403,-0.3175 -0.7239,-0.3175 -0.2836,0 -0.5249,0.1058 -0.7239,0.3175 -0.1947,0.2074 -0.2921,0.4762 -0.2921,0.8064z"/>
   <path id="_34739383212345678" class="fil4" d="M45.7906 4.6611l-0.5842 0 0 -3.1115 0.5588 0 0 0.4318 0.0254 0c0.0889,-0.1524 0.2254,-0.2794 0.4096,-0.381 0.1841,-0.1016 0.3672,-0.1524 0.5493,-0.1524 0.2286,0 0.4296,0.0529 0.6032,0.1587 0.1736,0.1059 0.3006,0.2519 0.381,0.4382 0.2582,-0.3979 0.616,-0.5969 1.0732,-0.5969 0.3598,0 0.6371,0.1101 0.8318,0.3302 0.1947,0.2201 0.2921,0.5334 0.2921,0.9398l0 1.9431 -0.5842 0 0 -1.8542c0,-0.2921 -0.0529,-0.5027 -0.1587,-0.6318 -0.1059,-0.1291 -0.2837,-0.1937 -0.5334,-0.1937 -0.2244,0 -0.4128,0.0952 -0.5652,0.2857 -0.1524,0.1905 -0.2286,0.4149 -0.2286,0.6731l0 1.7209 -0.5842 0 0 -1.8542c0,-0.2921 -0.0529,-0.5027 -0.1587,-0.6318 -0.1059,-0.1291 -0.2837,-0.1937 -0.5334,-0.1937 -0.2244,0 -0.4128,0.0952 -0.5652,0.2857 -0.1524,0.1905 -0.2286,0.4149 -0.2286,0.6731l0 1.7209z"/>
  </g>
 </g>
</svg>
