<?xml version="1.0" encoding="UTF-8"?>
<!DOCTYPE svg PUBLIC "-//W3C//DTD SVG 1.1//EN" "http://www.w3.org/Graphics/SVG/1.1/DTD/svg11.dtd">
<!-- Creator: CorelDRAW -->
<svg xmlns="http://www.w3.org/2000/svg" xml:space="preserve" width="15mm" height="11mm" style="shape-rendering:geometricPrecision; text-rendering:geometricPrecision; image-rendering:optimizeQuality; fill-rule:evenodd; clip-rule:evenodd"
viewBox="0 0 15 11"
 xmlns:xlink="http://www.w3.org/1999/xlink">
 <defs>
  <style type="text/css">
   <![CDATA[
    .fil2 {fill:#3E4095}
    .fil3 {fill:#EC3237}
    .fil0 {fill:white}
    .fil5 {fill:black;fill-rule:nonzero}
    .fil1 {fill:#3E4095;fill-rule:nonzero}
    .fil4 {fill:#EC3237;fill-rule:nonzero}
   ]]>
  </style>
 </defs>
 <g id="Layer_x0020_1">
  <metadata id="CorelCorpID_0Corel-Layer"/>
  <g>
   <path class="fil0" d="M7.4404 0.1c2.0162,0 3.6513,1.6351 3.6513,3.6512 0,2.0162 -1.6351,3.6513 -3.6513,3.6513 -2.0161,0 -3.6512,-1.6351 -3.6512,-3.6513 0,-2.0161 1.6351,-3.6512 3.6512,-3.6512z"/>
   <path id="1" class="fil1" d="M11.1561 3.7512l-0.1288 0 0 0 -0.0047 -0.1846 -0.0139 -0.1821 -0.0228 -0.1795 -0.0315 -0.1766 -0.0401 -0.1736 -0.0483 -0.1701 -0.0564 -0.1666 -0.0642 -0.1628 -0.0718 -0.1589 -0.0793 -0.1547 -0.0863 -0.1502 -0.0934 -0.1454 -0.1 -0.1407 -0.1065 -0.1355 -0.1128 -0.1302 -0.1187 -0.1246 -0.1246 -0.1187 -0.1302 -0.1128 -0.1355 -0.1065 -0.1407 -0.1 -0.1454 -0.0934 -0.1502 -0.0863 -0.1548 -0.0793 -0.1588 -0.0718 -0.1628 -0.0642 -0.1666 -0.0564 -0.1702 -0.0483 -0.1735 -0.0401 -0.1766 -0.0315 -0.1795 -0.0228 -0.1822 -0.0139 -0.1846 -0.0047 0 -0.1288 0.1912 0.0049 0.1886 0.0143 0.1859 0.0236 0.183 0.0327 0.1797 0.0415 0.1764 0.0501 0.1726 0.0584 0.1688 0.0666 0.1646 0.0744 0.1602 0.0821 0.1556 0.0895 0.1508 0.0966 0.1457 0.1036 0.1403 0.1103 0.1348 0.1168 0.129 0.1231 0.1231 0.129 0.1168 0.1348 0.1103 0.1403 0.1036 0.1457 0.0966 0.1508 0.0895 0.1556 0.0821 0.1601 0.0744 0.1647 0.0666 0.1688 0.0584 0.1726 0.0501 0.1763 0.0415 0.1798 0.0327 0.183 0.0236 0.1859 0.0143 0.1885 0.0049 0.1912 0 0zm-3.7157 3.7157l0 -0.1288 0 0 0.1846 -0.0047 0.1822 -0.0139 0.1795 -0.0228 0.1766 -0.0315 0.1735 -0.0401 0.1702 -0.0483 0.1666 -0.0564 0.1628 -0.0642 0.1588 -0.0718 0.1548 -0.0793 0.1502 -0.0863 0.1454 -0.0934 0.1407 -0.1 0.1355 -0.1065 0.1302 -0.1128 0.1246 -0.1187 0.1187 -0.1246 0.1128 -0.1302 0.1065 -0.1355 0.1 -0.1407 0.0934 -0.1454 0.0863 -0.1502 0.0793 -0.1548 0.0718 -0.1588 0.0642 -0.1628 0.0564 -0.1666 0.0483 -0.1702 0.0401 -0.1735 0.0315 -0.1766 0.0228 -0.1795 0.0139 -0.1822 0.0047 -0.1846 0.1288 0 -0.0049 0.1912 -0.0143 0.1886 -0.0236 0.1859 -0.0327 0.183 -0.0415 0.1797 -0.0501 0.1764 -0.0584 0.1726 -0.0666 0.1688 -0.0744 0.1646 -0.0821 0.1602 -0.0895 0.1556 -0.0966 0.1508 -0.1036 0.1457 -0.1103 0.1403 -0.1168 0.1348 -0.1231 0.129 -0.129 0.1231 -0.1348 0.1168 -0.1403 0.1103 -0.1457 0.1036 -0.1508 0.0966 -0.1556 0.0895 -0.1602 0.0821 -0.1646 0.0744 -0.1688 0.0666 -0.1726 0.0584 -0.1764 0.0501 -0.1797 0.0415 -0.183 0.0327 -0.1859 0.0236 -0.1886 0.0143 -0.1912 0.0049 0 0zm-3.7156 -3.7157l0.1288 0 0 0 0.0047 0.1846 0.0139 0.1822 0.0228 0.1795 0.0315 0.1766 0.0401 0.1735 0.0483 0.1702 0.0564 0.1666 0.0642 0.1628 0.0718 0.1588 0.0793 0.1548 0.0863 0.1502 0.0934 0.1454 0.1 0.1407 0.1065 0.1355 0.1128 0.1302 0.1187 0.1246 0.1246 0.1187 0.1302 0.1128 0.1355 0.1065 0.1407 0.1 0.1454 0.0934 0.1502 0.0863 0.1547 0.0793 0.1589 0.0718 0.1628 0.0642 0.1666 0.0564 0.1701 0.0483 0.1736 0.0401 0.1766 0.0315 0.1795 0.0228 0.1821 0.0139 0.1846 0.0047 0 0.1288 -0.1912 -0.0049 -0.1885 -0.0143 -0.1859 -0.0236 -0.183 -0.0327 -0.1798 -0.0415 -0.1763 -0.0501 -0.1726 -0.0584 -0.1688 -0.0666 -0.1647 -0.0744 -0.1601 -0.0821 -0.1556 -0.0895 -0.1508 -0.0966 -0.1457 -0.1036 -0.1403 -0.1103 -0.1348 -0.1168 -0.129 -0.1231 -0.1231 -0.129 -0.1168 -0.1348 -0.1103 -0.1403 -0.1036 -0.1457 -0.0966 -0.1508 -0.0895 -0.1556 -0.0821 -0.1602 -0.0744 -0.1646 -0.0666 -0.1688 -0.0584 -0.1726 -0.0501 -0.1764 -0.0415 -0.1797 -0.0327 -0.183 -0.0236 -0.1859 -0.0143 -0.1886 -0.0049 -0.1912 0 0zm3.7156 -3.7156l0 0.1288 0 0 -0.1846 0.0047 -0.1821 0.0139 -0.1795 0.0228 -0.1766 0.0315 -0.1736 0.0401 -0.1701 0.0483 -0.1666 0.0564 -0.1628 0.0642 -0.1589 0.0718 -0.1547 0.0793 -0.1502 0.0863 -0.1454 0.0934 -0.1407 0.1 -0.1355 0.1065 -0.1302 0.1128 -0.1246 0.1187 -0.1187 0.1246 -0.1128 0.1302 -0.1065 0.1355 -0.1 0.1407 -0.0934 0.1454 -0.0863 0.1502 -0.0793 0.1547 -0.0718 0.1589 -0.0642 0.1628 -0.0564 0.1666 -0.0483 0.1701 -0.0401 0.1736 -0.0315 0.1766 -0.0228 0.1795 -0.0139 0.1821 -0.0047 0.1846 -0.1288 0 0.0049 -0.1912 0.0143 -0.1885 0.0236 -0.1859 0.0327 -0.183 0.0415 -0.1798 0.0501 -0.1763 0.0584 -0.1726 0.0666 -0.1688 0.0744 -0.1647 0.0821 -0.1601 0.0895 -0.1556 0.0966 -0.1508 0.1036 -0.1457 0.1103 -0.1403 0.1168 -0.1348 0.1231 -0.129 0.129 -0.1231 0.1348 -0.1168 0.1403 -0.1103 0.1457 -0.1036 0.1508 -0.0966 0.1556 -0.0895 0.1601 -0.0821 0.1647 -0.0744 0.1688 -0.0666 0.1726 -0.0584 0.1763 -0.0501 0.1798 -0.0415 0.183 -0.0327 0.1859 -0.0236 0.1885 -0.0143 0.1912 -0.0049 0 0z"/>
  </g>
  <path class="fil2" d="M10.5251 2.1413c0.2519,0.4815 0.3945,1.0291 0.3945,1.6099 0,1.9211 -1.558,3.4791 -3.4792,3.4791 -1.2798,0 -2.3982,-0.6916 -3.0025,-1.7212 0.2105,0.1269 0.4622,0.1905 0.7552,0.1905 0.5246,0 0.9567,-0.2041 1.2963,-0.6124 0.2274,-0.2741 0.4443,-0.7006 0.6505,-1.2794 0.3366,0.003 0.6004,0.0061 0.7915,0.0091l-0.1585 0.4341c-0.0697,0.195 -0.1205,0.3542 -0.1509,0.4775 -0.0212,0.0435 -0.0318,0.0739 -0.0318,0.0929 0,0.0435 0.0212,0.0648 0.0637,0.0648 0.0152,0 0.0356,-0.0069 0.0614,-0.0206 0.0258,-0.0137 0.0447,-0.0205 0.0568,-0.0205 0.0334,0 0.0842,0.0068 0.1524,0.0205 0.0683,0.0137 0.1191,0.0206 0.1524,0.0206 0.0667,0 0.1289,-0.0137 0.1865,-0.0411 0.0728,-0.0335 0.1092,-0.0808 0.1092,-0.1417 0,-0.0213 -0.0152,-0.0396 -0.0455,-0.0548 -0.0121,0 -0.0387,0.0144 -0.0796,0.0434 -0.0409,0.0289 -0.0721,0.0434 -0.0933,0.0434 -0.0333,0 -0.0743,-0.0046 -0.1228,-0.0137l-0.1 -0.0183c0.0515,-0.1584 0.094,-0.2833 0.1273,-0.3747l0.464 -1.3023c0.0455,-0.128 0.1152,-0.2544 0.2092,-0.3793 0.3305,-0.4417 0.7869,-0.6626 1.3692,-0.6626 0.17,0 0.3113,0.0523 0.424,0.1568z"/>
  <path class="fil3" d="M7.4404 0.2721c1.2356,0 2.3207,0.6444 2.938,1.6153 -0.1009,-0.0327 -0.2206,-0.0491 -0.3592,-0.0491 -0.5519,0 -1.0022,0.1874 -1.351,0.5621 -0.2547,0.2741 -0.4852,0.6976 -0.6913,1.2703 -0.0455,0.003 -0.1032,0.0046 -0.1729,0.0046 -0.2426,0 -0.4473,-0.0046 -0.6141,-0.0138 0.1941,-0.5483 0.3609,-0.8727 0.5004,-0.9733 0.0242,-0.0182 0.0364,-0.0365 0.0364,-0.0548 0,-0.067 -0.1047,-0.1005 -0.3139,-0.1005 -0.2911,0 -0.5603,0.0723 -0.8074,0.217 -0.2471,0.1447 -0.4389,0.345 -0.5754,0.6009 -0.091,0.1706 -0.1365,0.3275 -0.1365,0.4707 0,0.2589 0.1244,0.4585 0.373,0.5986 0.0637,0.0365 0.1031,0.0579 0.1183,0.064l0.0228 0c0.0363,0 0.0545,-0.0229 0.0545,-0.0686 0,-0.0304 -0.0136,-0.0518 -0.0409,-0.0639 -0.2002,-0.1006 -0.3002,-0.2361 -0.3002,-0.4067 0,-0.1158 0.0379,-0.262 0.1137,-0.4387 0.2335,-0.5453 0.6323,-0.8225 1.1963,-0.8317 -0.1395,0.131 -0.2684,0.3351 -0.3866,0.6123 -0.0334,0.0793 -0.1047,0.2681 -0.2138,0.5667 -0.2002,0.5514 -0.3927,0.9398 -0.5777,1.1652 -0.285,0.3503 -0.6535,0.5255 -1.1053,0.5255 -0.4017,0 -0.6922,-0.1154 -0.8717,-0.3461 -0.2019,-0.4406 -0.3146,-0.9306 -0.3146,-1.4469 0,-1.9211 1.558,-3.4791 3.4791,-3.4791z"/>
  <path class="fil4" d="M3.2678 9.5718l0 -1.6251 0.3787 0 0 0.6259 0.1969 0 0 -0.6259 0.3787 0 0 1.6251 -0.3787 0 0 -0.7082 -0.1969 0 0 0.7082 -0.3787 0zm1.6378 -0.3052l0 -0.1225c0,-0.0246 -0.0071,-0.0441 -0.0213,-0.0579 -0.0142,-0.0138 -0.0339,-0.0209 -0.0593,-0.0209 -0.0258,0 -0.0452,0.0071 -0.0591,0.0209 -0.0138,0.0138 -0.0209,0.0333 -0.0209,0.0579l0 0.1225c0,0.0254 0.0071,0.0452 0.0209,0.0587 0.0139,0.0134 0.0333,0.0201 0.0591,0.0201 0.0254,0 0.0451,-0.0067 0.0593,-0.0201 0.0142,-0.0135 0.0213,-0.0333 0.0213,-0.0587zm0.0176 0.3052l0 -0.0919c-0.0247,0.0403 -0.0561,0.0687 -0.0941,0.0859 -0.0378,0.0172 -0.0886,0.0258 -0.1521,0.0258 -0.0963,0 -0.1636,-0.0228 -0.2017,-0.068 -0.0384,-0.0452 -0.0575,-0.1259 -0.0575,-0.2428l0 -0.1389c0,-0.0957 0.0221,-0.1662 0.0658,-0.2118 0.0437,-0.0456 0.1116,-0.0684 0.2043,-0.0684 0.0403,0 0.0788,0.0056 0.1161,0.0168 0.037,0.0116 0.071,0.0281 0.1016,0.0501l0 -0.1696c0,-0.0467 -0.0052,-0.0777 -0.0157,-0.0926 -0.0108,-0.0149 -0.0325,-0.0224 -0.0649,-0.0224 -0.0314,0 -0.0523,0.0075 -0.0624,0.0224 -0.0101,0.0149 -0.0153,0.0459 -0.0153,0.0926l-0.2944 0 0 -0.0833c0,-0.1049 0.0254,-0.1766 0.0766,-0.2147 0.0512,-0.0378 0.1565,-0.0568 0.316,-0.0568 0.1591,0 0.2641,0.019 0.3152,0.0568 0.0512,0.0381 0.0766,0.1098 0.0766,0.2147l0 0.8961 -0.3141 0zm0.6077 0l-0.1498 -1.1478 0.3317 0 0.1027 0.9816 0.1128 -0.9816 0.3193 0 -0.1587 1.0667c-0.0306,0.2051 -0.0725,0.3399 -0.1251,0.4049 -0.0531,0.065 -0.1352,0.0975 -0.2469,0.0975 -0.0262,0 -0.0542,-0.0023 -0.0841,-0.0071 -0.0298,-0.0049 -0.0631,-0.0123 -0.0997,-0.0224l0 -0.2331c0.0183,0.0052 0.0348,0.0086 0.0493,0.0108 0.0146,0.0023 0.0273,0.0034 0.0385,0.0034 0.0478,0 0.0851,-0.0142 0.1109,-0.0426 0.0258,-0.0284 0.0411,-0.0721 0.0452,-0.1303l-0.2461 0zm1.3151 -0.3052l0 -0.1225c0,-0.0246 -0.0071,-0.0441 -0.0213,-0.0579 -0.0142,-0.0138 -0.034,-0.0209 -0.0594,-0.0209 -0.0258,0 -0.0452,0.0071 -0.059,0.0209 -0.0138,0.0138 -0.0209,0.0333 -0.0209,0.0579l0 0.1225c0,0.0254 0.0071,0.0452 0.0209,0.0587 0.0138,0.0134 0.0332,0.0201 0.059,0.0201 0.0254,0 0.0452,-0.0067 0.0594,-0.0201 0.0142,-0.0135 0.0213,-0.0333 0.0213,-0.0587zm0.0175 0.3052l0 -0.0919c-0.0246,0.0403 -0.056,0.0687 -0.0941,0.0859 -0.0377,0.0172 -0.0885,0.0258 -0.152,0.0258 -0.0964,0 -0.1636,-0.0228 -0.2017,-0.068 -0.0385,-0.0452 -0.0575,-0.1259 -0.0575,-0.2428l0 -0.1389c0,-0.0957 0.022,-0.1662 0.0657,-0.2118 0.0437,-0.0456 0.1117,-0.0684 0.2043,-0.0684 0.0404,0 0.0788,0.0056 0.1162,0.0168 0.037,0.0116 0.071,0.0281 0.1016,0.0501l0 -0.1696c0,-0.0467 -0.0052,-0.0777 -0.0157,-0.0926 -0.0108,-0.0149 -0.0325,-0.0224 -0.065,-0.0224 -0.0314,0 -0.0523,0.0075 -0.0624,0.0224 -0.01,0.0149 -0.0153,0.0459 -0.0153,0.0926l-0.2943 0 0 -0.0833c0,-0.1049 0.0254,-0.1766 0.0766,-0.2147 0.0511,-0.0378 0.1565,-0.0568 0.3159,-0.0568 0.1592,0 0.2641,0.019 0.3153,0.0568 0.0512,0.0381 0.0766,0.1098 0.0766,0.2147l0 0.8961 -0.3142 0zm0.5267 0l0 -1.6535 0.3227 0 0 0.9673 0.1729 -0.4616 0.3097 0 -0.1838 0.4911 0.2439 0.6567 -0.3436 0 -0.1991 -0.6029 0 0.6029 -0.3227 0zm1.4115 -0.3052l0 -0.1225c0,-0.0246 -0.0071,-0.0441 -0.0213,-0.0579 -0.0142,-0.0138 -0.034,-0.0209 -0.0594,-0.0209 -0.0258,0 -0.0452,0.0071 -0.059,0.0209 -0.0139,0.0138 -0.0209,0.0333 -0.0209,0.0579l0 0.1225c0,0.0254 0.007,0.0452 0.0209,0.0587 0.0138,0.0134 0.0332,0.0201 0.059,0.0201 0.0254,0 0.0452,-0.0067 0.0594,-0.0201 0.0142,-0.0135 0.0213,-0.0333 0.0213,-0.0587zm0.0175 0.3052l0 -0.0919c-0.0246,0.0403 -0.056,0.0687 -0.0941,0.0859 -0.0377,0.0172 -0.0885,0.0258 -0.152,0.0258 -0.0964,0 -0.1636,-0.0228 -0.2017,-0.068 -0.0385,-0.0452 -0.0575,-0.1259 -0.0575,-0.2428l0 -0.1389c0,-0.0957 0.022,-0.1662 0.0657,-0.2118 0.0437,-0.0456 0.1117,-0.0684 0.2043,-0.0684 0.0403,0 0.0788,0.0056 0.1162,0.0168 0.037,0.0116 0.0709,0.0281 0.1016,0.0501l0 -0.1696c0,-0.0467 -0.0053,-0.0777 -0.0157,-0.0926 -0.0109,-0.0149 -0.0325,-0.0224 -0.065,-0.0224 -0.0314,0 -0.0523,0.0075 -0.0624,0.0224 -0.0101,0.0149 -0.0153,0.0459 -0.0153,0.0926l-0.2943 0 0 -0.0833c0,-0.1049 0.0254,-0.1766 0.0765,-0.2147 0.0512,-0.0378 0.1565,-0.0568 0.316,-0.0568 0.1591,0 0.2641,0.019 0.3153,0.0568 0.0511,0.0381 0.0765,0.1098 0.0765,0.2147l0 0.8961 -0.3141 0zm1.4328 -1.1478l0.1184 0.9016 0.1083 -0.9016 0.3194 0 -0.1741 1.1478 -0.4639 0 -0.1236 -0.917 -0.1214 0.917 -0.465 0 -0.1752 -1.1478 0.3205 0 0.1072 0.9016 0.1139 -0.9016 0.4355 0zm1.1485 0.8426l0 -0.1225c0,-0.0246 -0.0071,-0.0441 -0.0213,-0.0579 -0.0142,-0.0138 -0.034,-0.0209 -0.0594,-0.0209 -0.0257,0 -0.0451,0.0071 -0.059,0.0209 -0.0138,0.0138 -0.0209,0.0333 -0.0209,0.0579l0 0.1225c0,0.0254 0.0071,0.0452 0.0209,0.0587 0.0139,0.0134 0.0333,0.0201 0.059,0.0201 0.0254,0 0.0452,-0.0067 0.0594,-0.0201 0.0142,-0.0135 0.0213,-0.0333 0.0213,-0.0587zm0.0176 0.3052l0 -0.0919c-0.0247,0.0403 -0.0561,0.0687 -0.0941,0.0859 -0.0378,0.0172 -0.0886,0.0258 -0.1521,0.0258 -0.0963,0 -0.1636,-0.0228 -0.2017,-0.068 -0.0384,-0.0452 -0.0575,-0.1259 -0.0575,-0.2428l0 -0.1389c0,-0.0957 0.0221,-0.1662 0.0658,-0.2118 0.0437,-0.0456 0.1116,-0.0684 0.2043,-0.0684 0.0403,0 0.0788,0.0056 0.1161,0.0168 0.037,0.0116 0.071,0.0281 0.1016,0.0501l0 -0.1696c0,-0.0467 -0.0052,-0.0777 -0.0157,-0.0926 -0.0108,-0.0149 -0.0325,-0.0224 -0.065,-0.0224 -0.0313,0 -0.0523,0.0075 -0.0623,0.0224 -0.0101,0.0149 -0.0153,0.0459 -0.0153,0.0926l-0.2944 0 0 -0.0833c0,-0.1049 0.0254,-0.1766 0.0766,-0.2147 0.0512,-0.0378 0.1565,-0.0568 0.316,-0.0568 0.1591,0 0.2641,0.019 0.3152,0.0568 0.0512,0.0381 0.0766,0.1098 0.0766,0.2147l0 0.8961 -0.3141 0z"/>
  <path class="fil5" d="M6.4431 10.4509l0.0202 0.0465c-0.0046,0.0038 -0.015,0.0069 -0.031,0.0097 -0.0161,0.0026 -0.0369,0.005 -0.0624,0.0071 -0.0297,0.0289 -0.0591,0.0531 -0.0886,0.0722 -0.0295,0.0193 -0.0586,0.0334 -0.0876,0.0426 -0.0067,0.0019 -0.0145,0.0041 -0.0233,0.0065 -0.0053,0 -0.0112,-0.0012 -0.0176,-0.0033 -0.0065,-0.0022 -0.0136,-0.0053 -0.0213,-0.0094 -0.008,-0.005 -0.0143,-0.0099 -0.0187,-0.0147 -0.0043,-0.0046 -0.0065,-0.0095 -0.0065,-0.0146 0,-0.01 0.0048,-0.0199 0.0146,-0.0292 0.0099,-0.0095 0.0242,-0.0184 0.043,-0.0269 0.0377,-0.0174 0.0748,-0.0351 0.1115,-0.0529 0.0054,0 0.0093,0.001 0.0117,0.0033 0.0023,0.0021 0.0035,0.0048 0.0035,0.0083 0,0.0091 -0.0066,0.0167 -0.0195,0.0229 -0.0129,0.0062 -0.0195,0.0107 -0.0195,0.0134 0.0024,0.0035 0.0045,0.005 0.0062,0.005 0.0043,0 0.014,-0.0065 0.029,-0.0196 0.015,-0.0131 0.0222,-0.0214 0.0219,-0.0248l-0.0024 -0.0116 0.001 -0.0021c0.0086,-0.0077 0.0152,-0.0146 0.0193,-0.0206 0.0043,-0.0061 0.0064,-0.0109 0.0064,-0.0147 0,-0.0085 -0.0042,-0.0197 -0.0126,-0.0338 -0.0084,-0.0141 -0.021,-0.0312 -0.0379,-0.051 -0.0128,-0.0155 -0.0255,-0.0293 -0.0385,-0.0417 -0.0127,-0.0123 -0.025,-0.0231 -0.0367,-0.0326 -0.0048,-0.004 -0.0088,-0.0079 -0.0122,-0.0119 -0.0033,-0.0038 -0.0061,-0.0074 -0.0081,-0.0109 -0.0036,-0.0067 -0.0066,-0.0122 -0.0088,-0.0165 -0.0023,-0.0045 -0.0042,-0.0073 -0.0059,-0.0086 -0.0015,-0.0021 -0.0038,-0.0045 -0.0067,-0.0073 -0.0029,-0.0029 -0.0064,-0.0062 -0.0103,-0.01 -0.0071,-0.0074 -0.0126,-0.0176 -0.0164,-0.0307 -0.004,-0.0132 -0.0059,-0.0294 -0.0059,-0.0491 0,-0.0127 0.0017,-0.0252 0.0054,-0.037 0.0034,-0.0119 0.0086,-0.0226 0.0153,-0.0321 0.001,-0.0021 0.0021,-0.0043 0.0031,-0.0071 0.001,-0.0027 0.0021,-0.0057 0.0035,-0.0091 0.0077,-0.0159 0.0208,-0.033 0.0394,-0.0512 0.0185,-0.0185 0.0428,-0.0378 0.0726,-0.0583 0.0041,-0.0021 0.009,-0.0048 0.0147,-0.0081 0.0058,-0.0034 0.0122,-0.0077 0.0193,-0.0133 0.0039,-0.0032 0.0084,-0.0063 0.0132,-0.0089 0.005,-0.0028 0.0107,-0.0054 0.0175,-0.0076 0.0091,-0.0038 0.0194,-0.0078 0.0308,-0.0123 0.0169,-0.0086 0.0309,-0.0149 0.0419,-0.0191 0.0112,-0.004 0.0195,-0.006 0.0253,-0.006 0.0111,0 0.0193,0.0034 0.025,0.0102 0.0055,0.0067 0.0083,0.0163 0.0083,0.0291 0,0.0143 -0.001,0.0257 -0.0033,0.0346 -0.0022,0.009 -0.0051,0.015 -0.0088,0.018 -0.0398,0.0317 -0.0717,0.0555 -0.096,0.0715 -0.0241,0.016 -0.0412,0.024 -0.051,0.024 -0.0047,0 -0.0083,-0.0014 -0.011,-0.004 -0.0028,-0.0028 -0.004,-0.0069 -0.004,-0.0122 0,-0.0092 0.0074,-0.0192 0.0226,-0.03 0.0152,-0.0111 0.0226,-0.0193 0.0222,-0.025l-0.0045 -0.0031c-0.0017,0 -0.0036,0.0005 -0.0058,0.0015 -0.0023,0.0011 -0.0045,0.0024 -0.0068,0.004 -0.0296,0.0239 -0.052,0.0455 -0.0668,0.0645 -0.015,0.0189 -0.0226,0.0356 -0.0226,0.0498 0,0.011 0.0019,0.0224 0.0058,0.0338 0.0038,0.0113 0.0095,0.0232 0.0169,0.0353 0.0054,0.0084 0.0133,0.0191 0.0235,0.0321 0.0103,0.0129 0.0233,0.0286 0.0391,0.0467 0.0219,0.0253 0.0388,0.0448 0.0505,0.0586 0.0117,0.0138 0.0185,0.021 0.0197,0.0217 0.0067,0.0088 0.0126,0.0176 0.0172,0.0262 0.0047,0.0088 0.0079,0.0173 0.0097,0.0254 0.0015,0.0063 0.0027,0.0143 0.0034,0.0238 0.0007,0.0093 0.0011,0.0208 0.0011,0.0343 0,0.0075 0.0012,0.0118 0.0036,0.013 0.0022,0.0013 0.0062,0.0018 0.0115,0.0018 0.0021,0 0.0036,-0.0004 0.0048,-0.0012 0.0013,-0.0009 0.0025,-0.0019 0.0038,-0.0033zm-0.0005 0l0.0031 -0.0035 0.0014 -0.0051c0.0091,-0.0124 0.0252,-0.0286 0.0481,-0.0486 0.0228,-0.02 0.0386,-0.0362 0.0474,-0.0487 0.0035,-0.0053 0.0072,-0.0093 0.0116,-0.0117 0.0044,-0.0022 0.0088,-0.0034 0.0132,-0.0034 0.0118,0 0.0218,0.0029 0.0297,0.0088 0.0081,0.0058 0.0136,0.0148 0.0162,0.0265 0.0024,0.0105 0.0046,0.021 0.0065,0.0316 0.0021,0.0107 0.0038,0.0212 0.0052,0.032 0.0023,0.0067 0.0052,0.0169 0.0085,0.0305 0.0034,0.0137 0.006,0.0214 0.0075,0.0235 0.0018,0.0033 0.0044,0.0057 0.0076,0.0072 0.0035,0.0016 0.0076,0.0023 0.0128,0.0023 0.006,0 0.0122,-0.0011 0.0186,-0.0033 0.0064,-0.0023 0.0129,-0.0059 0.0197,-0.0114 0.0051,-0.0043 0.0103,-0.0088 0.016,-0.0133 0.0055,-0.0046 0.011,-0.0091 0.0164,-0.0134l0.0201 0.0465c-0.0053,0.0054 -0.0125,0.0116 -0.0215,0.0185 -0.0088,0.0069 -0.0195,0.0148 -0.0321,0.0239 -0.0138,0.0102 -0.0255,0.0176 -0.0353,0.0226 -0.0097,0.0049 -0.0171,0.0073 -0.0223,0.0073 -0.0305,0 -0.0505,-0.0036 -0.0594,-0.0107 -0.0092,-0.0071 -0.0193,-0.0267 -0.0304,-0.059 -0.0014,-0.0027 -0.0034,-0.006 -0.006,-0.0096 -0.0028,-0.0038 -0.0059,-0.0081 -0.0091,-0.0131 -0.0042,-0.0078 -0.0076,-0.0136 -0.0107,-0.0174 -0.003,-0.004 -0.0055,-0.0059 -0.0076,-0.0059 -0.0053,0 -0.0126,0.0036 -0.0217,0.0109 -0.009,0.0072 -0.0202,0.0181 -0.0333,0.0325 -0.0017,-0.0043 -0.0038,-0.0096 -0.0064,-0.0156 -0.0024,-0.0061 -0.005,-0.0132 -0.0077,-0.0213 -0.0007,-0.002 -0.0016,-0.0039 -0.0026,-0.0056 -0.0009,-0.0016 -0.0021,-0.003 -0.0035,-0.004zm0.211 -0.3984c0.0085,0 0.0147,0.0017 0.0185,0.005 0.0039,0.0035 0.0058,0.0083 0.0058,0.0147 -0.002,0.0094 -0.0036,0.0174 -0.005,0.0238 -0.0034,0.012 -0.0063,0.022 -0.0089,0.0298 -0.0024,0.0077 -0.0043,0.0132 -0.0057,0.0165 -0.0031,0.0074 -0.0073,0.014 -0.0124,0.0195 -0.0052,0.0057 -0.0116,0.0105 -0.019,0.015 -0.0077,0.0053 -0.0141,0.0091 -0.0195,0.0114 -0.0051,0.002 -0.0088,0.0031 -0.0108,0.0027 -0.0057,-0.0007 -0.0112,-0.0013 -0.0164,-0.0019 -0.0052,-0.0003 -0.0103,-0.0006 -0.0153,-0.0006 -0.0045,-0.0025 -0.008,-0.0069 -0.0104,-0.0137 -0.0026,-0.0067 -0.0038,-0.0158 -0.0038,-0.0272 0,-0.0102 0.006,-0.0229 0.0185,-0.0381 0.0122,-0.0153 0.0231,-0.0236 0.0325,-0.0246 0.0057,-0.0071 0.0125,-0.015 0.0202,-0.0242 0.0033,-0.0024 0.0078,-0.0043 0.0131,-0.0059 0.0054,-0.0015 0.0116,-0.0022 0.0186,-0.0022zm0.078 0.3984c0.002,-0.0024 0.0043,-0.0055 0.007,-0.0093 0.0028,-0.004 0.0057,-0.0081 0.0092,-0.0129 0.0148,-0.0185 0.0291,-0.035 0.0431,-0.0497 0.0139,-0.0146 0.0272,-0.0276 0.0396,-0.0391 0.0064,-0.0061 0.0141,-0.0138 0.0233,-0.0235 0.0089,-0.0094 0.0196,-0.0205 0.0317,-0.0329 0.0121,-0.0048 0.0255,-0.0102 0.04,-0.0162 0.009,0 0.0157,0.0029 0.0202,0.0088 0.0043,0.0059 0.0065,0.0145 0.0065,0.0255 0,0.0095 -0.0008,0.0197 -0.0022,0.0305 -0.0016,0.0109 -0.0037,0.0221 -0.0064,0.0336 -0.0031,0.009 -0.0055,0.0178 -0.0076,0.0262 0,0.0023 0.0005,0.0042 0.0016,0.0054 0.001,0.001 0.0025,0.0017 0.005,0.0017 0.005,-0.0024 0.0148,-0.0109 0.0293,-0.0253 0.0144,-0.0145 0.0334,-0.0347 0.057,-0.0605 0.0202,-0.0223 0.0379,-0.0388 0.0531,-0.0499 0.015,-0.0108 0.0273,-0.0163 0.0364,-0.0163 0.0097,0 0.0169,0.0036 0.0214,0.0108 0.0045,0.0073 0.0069,0.0179 0.0069,0.0321 0,0.0205 -0.0016,0.0403 -0.0047,0.0593 -0.0029,0.0189 -0.0083,0.0372 -0.0157,0.0548 -0.0012,0.0033 -0.002,0.0062 -0.0024,0.0085 -0.0003,0.0024 -0.0005,0.0046 -0.0005,0.0067 0,0.0022 0.0021,0.0045 0.006,0.0065 0.0028,-0.0024 0.0059,-0.0058 0.0093,-0.0101 0.0037,-0.0044 0.0078,-0.01 0.0124,-0.0168 0.0078,-0.0063 0.0156,-0.0127 0.0233,-0.0191 0.0078,-0.0064 0.0162,-0.0129 0.0252,-0.0197 0.0095,-0.0074 0.0191,-0.0131 0.0288,-0.0169 0.0098,-0.0039 0.0195,-0.0058 0.0288,-0.0058 0.0017,0 0.0034,0.0005 0.0051,0.0015 0.0016,0.0011 0.0033,0.0023 0.005,0.0035 0.0078,0.0067 0.0142,0.0129 0.0192,0.0184 0.0051,0.0057 0.0086,0.0104 0.0107,0.0145 0.0131,0.0269 0.0248,0.0471 0.0351,0.0603 0.0102,0.0133 0.0192,0.0199 0.0269,0.0199 0.0017,0 0.0035,-0.0004 0.0052,-0.0012 0.0015,-0.0009 0.0033,-0.0019 0.005,-0.0033 0.0077,0.0165 0.0143,0.0321 0.0196,0.0465 -0.012,0.0095 -0.0229,0.0166 -0.0324,0.0216 -0.0093,0.0048 -0.0175,0.0072 -0.0246,0.0072 -0.0233,0 -0.0473,-0.015 -0.0721,-0.0451 -0.0246,-0.0302 -0.0436,-0.0452 -0.0567,-0.0452 -0.0176,0 -0.0467,0.0257 -0.0874,0.0774 -0.0407,0.0517 -0.0662,0.0776 -0.0762,0.0776 -0.0052,0 -0.0119,-0.0005 -0.0203,-0.0016 -0.0026,-0.001 -0.0047,-0.0031 -0.0061,-0.0062 -0.0013,-0.0033 -0.002,-0.0071 -0.002,-0.0114 0,-0.0051 0.001,-0.0117 0.0031,-0.02 0.002,-0.0082 0.0046,-0.0179 0.0081,-0.0289 0.0043,-0.0143 0.0079,-0.0255 0.0105,-0.034 0.0028,-0.0084 0.0043,-0.0143 0.0046,-0.0176 0.0011,-0.0044 0.0025,-0.0131 0.0044,-0.0258 0.0017,-0.0128 0.0043,-0.0298 0.0072,-0.0511 0,-0.0036 -0.001,-0.0065 -0.0029,-0.0084 -0.0021,-0.0021 -0.0045,-0.0031 -0.0071,-0.0031 -0.0024,0 -0.005,0.0007 -0.0079,0.0022 -0.0028,0.0016 -0.0061,0.004 -0.0099,0.0075 -0.0039,0.0043 -0.0084,0.0086 -0.0134,0.0131 -0.0048,0.0043 -0.0126,0.0105 -0.0234,0.0186 -0.0118,0.0134 -0.0238,0.0272 -0.0361,0.0412 -0.0124,0.0139 -0.0248,0.0281 -0.0376,0.0422 -0.0203,0.0235 -0.0363,0.0409 -0.0482,0.0522 -0.0121,0.0112 -0.0197,0.0169 -0.023,0.0169 -0.0101,0 -0.0177,-0.0012 -0.0231,-0.0034 -0.0051,-0.0024 -0.0077,-0.006 -0.0077,-0.0107 0,-0.011 0.006,-0.0343 0.0179,-0.0693 0.0119,-0.0352 0.0179,-0.06 0.0179,-0.0745 0,-0.0024 -0.0008,-0.0043 -0.0022,-0.0058 -0.0015,-0.0016 -0.0035,-0.0023 -0.0059,-0.0023 -0.0039,0 -0.0088,0.0023 -0.0144,0.0069 -0.0056,0.0045 -0.0118,0.0116 -0.0188,0.0214 -0.0049,0.0053 -0.0105,0.0115 -0.0173,0.0186 -0.0067,0.0071 -0.015,0.0154 -0.0246,0.0247 -0.0011,0.0027 -0.0024,0.0053 -0.0042,0.0079 -0.0017,0.0024 -0.0034,0.0048 -0.0055,0.0072 -0.0013,-0.005 -0.0036,-0.0113 -0.007,-0.0188 -0.0033,-0.0074 -0.0078,-0.0165 -0.0131,-0.0277zm0.6373 0c0.0067,-0.0088 0.0153,-0.0191 0.026,-0.0316 0.0105,-0.0122 0.0234,-0.0262 0.0386,-0.0418 0.0011,-0.0031 0.0024,-0.0068 0.004,-0.0109 0.0017,-0.0043 0.0043,-0.0097 0.0076,-0.016 0.0179,-0.0266 0.0339,-0.0523 0.0481,-0.0767 0.0141,-0.0247 0.0262,-0.0487 0.0363,-0.0718 0.003,-0.0058 0.0062,-0.0129 0.0099,-0.0215 0.0034,-0.0086 0.0079,-0.0183 0.0132,-0.029 0.0049,-0.0081 0.0095,-0.0143 0.014,-0.0188 0.0045,-0.0043 0.009,-0.0065 0.0134,-0.0065 0.0068,0 0.0116,0.0029 0.0149,0.0086 0.0033,0.0057 0.0048,0.0147 0.0048,0.0267 0,0.0068 -0.0059,0.0286 -0.0174,0.0654 -0.0117,0.0369 -0.029,0.0889 -0.0519,0.1558 -0.006,0.0162 -0.0128,0.0388 -0.0202,0.0679 -0.0074,0.0292 -0.016,0.0655 -0.0257,0.109 -0.001,0.0064 -0.002,0.0138 -0.0032,0.0222 -0.0012,0.0083 -0.003,0.0181 -0.0054,0.0293 -0.0057,0.0216 -0.0098,0.0386 -0.012,0.0514 -0.0025,0.0129 -0.0035,0.021 -0.0031,0.0248l0.002 0.004c0.0018,-0.0011 0.0036,-0.0042 0.0057,-0.0095 0.0023,-0.0055 0.0042,-0.0131 0.0059,-0.0233 0.002,-0.0091 0.0036,-0.0167 0.0046,-0.0229 0.0009,-0.0062 0.0011,-0.0114 0.0004,-0.0155 0.0074,-0.0195 0.0162,-0.0445 0.0264,-0.075 0.01,-0.0303 0.0218,-0.0659 0.0353,-0.1062 0.0053,-0.0098 0.0115,-0.0217 0.0184,-0.0357 0.0069,-0.0139 0.0142,-0.0305 0.0219,-0.0496 0.0078,-0.0074 0.0149,-0.013 0.0211,-0.0164 0.0062,-0.0036 0.0115,-0.0054 0.0158,-0.0054 0.0095,0 0.0183,0.0026 0.0264,0.0076 0.0081,0.005 0.0155,0.0124 0.0222,0.0221 0.0016,0.0024 0.0047,0.0084 0.0093,0.0179 0.0045,0.0097 0.0107,0.0226 0.0185,0.0392 0.0043,0.01 0.0089,0.0179 0.0136,0.0234 0.0047,0.0055 0.0093,0.0084 0.0136,0.0088l0.0212 0.0465c-0.0017,0.0004 -0.0062,0.0016 -0.0134,0.0035 -0.0073,0.002 -0.0176,0.0043 -0.031,0.0067l-0.0344 -0.0128c-0.0084,-0.0022 -0.0186,-0.0105 -0.0305,-0.0246 -0.012,-0.0141 -0.0217,-0.0222 -0.0291,-0.0247 -0.0071,0.005 -0.0147,0.015 -0.0228,0.0299 -0.0081,0.0148 -0.0162,0.0339 -0.0246,0.0576 -0.0021,0.0053 -0.0047,0.0112 -0.0079,0.0174 -0.0031,0.0062 -0.0064,0.0132 -0.0099,0.0213 -0.002,0.0128 -0.0043,0.0252 -0.007,0.0369 -0.0043,0.0102 -0.0092,0.023 -0.0142,0.0386 -0.005,0.0157 -0.0103,0.0343 -0.0162,0.0559 -0.0015,0.0074 -0.0058,0.0184 -0.0127,0.0333 -0.0069,0.0148 -0.0111,0.026 -0.0124,0.0338 -0.0007,0.0048 -0.0021,0.011 -0.0043,0.0187 -0.0023,0.0078 -0.0056,0.0168 -0.0099,0.0273 -0.0077,0.0134 -0.0148,0.0236 -0.0212,0.0305 -0.0064,0.0069 -0.0119,0.0103 -0.0162,0.0103 -0.0101,0 -0.0177,-0.0048 -0.0227,-0.0146 -0.005,-0.0098 -0.0076,-0.0243 -0.0076,-0.0435 0,-0.0289 0.0017,-0.0606 0.005,-0.0955 0.0034,-0.0346 0.0084,-0.0718 0.0152,-0.1115 0.002,-0.0115 0.0043,-0.0231 0.0065,-0.0348 0.0024,-0.0119 0.0048,-0.0238 0.0071,-0.0359 0.0031,-0.0141 0.0051,-0.0272 0.0063,-0.0389 0.0012,-0.0118 0.0014,-0.0224 0.0007,-0.0318 -0.0032,0.0009 -0.0089,0.0052 -0.0169,0.0128 -0.0079,0.0076 -0.0179,0.019 -0.03,0.0341 -0.0013,-0.005 -0.0036,-0.0113 -0.007,-0.0188 -0.0033,-0.0074 -0.0078,-0.0165 -0.0131,-0.0277zm0.353 0c0.0031,-0.0033 0.0061,-0.0074 0.0092,-0.0124 0.0029,-0.0048 0.007,-0.0102 0.012,-0.0159l0.0333 -0.0291c0.0014,-0.001 0.0021,-0.0024 0.0022,-0.0041 0.0002,-0.0016 0.0004,-0.004 0.0004,-0.0069 -0.0004,-0.0045 -0.0009,-0.008 -0.0016,-0.0107 0,-0.0078 0.0016,-0.0207 0.0045,-0.039 0.0031,-0.0181 0.0059,-0.0289 0.0081,-0.0327l-0.0029 -0.0097c0.0043,-0.0224 0.0105,-0.0471 0.0184,-0.074 0.008,-0.0267 0.0169,-0.0556 0.0269,-0.087 0.0035,-0.0054 0.0069,-0.0122 0.0107,-0.0205 0.0036,-0.0083 0.0079,-0.0176 0.0126,-0.028 0.0057,-0.0175 0.0133,-0.0358 0.0228,-0.0551 0.0094,-0.0191 0.0199,-0.0388 0.0318,-0.059 0.0157,-0.0267 0.0299,-0.0467 0.0421,-0.0601 0.0122,-0.0135 0.0233,-0.0202 0.0331,-0.0202 0.0195,0 0.0329,0.0038 0.0402,0.0114 0.0072,0.0076 0.0108,0.0217 0.0108,0.0426 0,0.0055 -0.0008,0.0137 -0.0027,0.025 -0.0019,0.0113 -0.0028,0.0198 -0.0028,0.0255 0,0.0058 -0.0019,0.0138 -0.0055,0.0243 -0.0038,0.0103 -0.0057,0.02 -0.0057,0.0288 -0.0003,0.0027 -0.0012,0.0053 -0.0024,0.0081l0.0005 0.007c-0.0014,0.0047 -0.0034,0.0104 -0.0062,0.0171 -0.0026,0.0067 -0.0062,0.0148 -0.0105,0.0243 -0.0024,0.0085 -0.0053,0.0181 -0.0091,0.0293 -0.0037,0.011 -0.0081,0.0233 -0.0131,0.0364 -0.0021,0.0033 -0.0047,0.0074 -0.0078,0.0124 -0.0033,0.0048 -0.0067,0.0103 -0.0103,0.0164 -0.0011,0.0043 -0.0028,0.0093 -0.0052,0.0151 -0.0023,0.0057 -0.0055,0.0125 -0.0095,0.0202 -0.0021,0.004 -0.0048,0.0085 -0.0081,0.0131 -0.0034,0.0047 -0.0074,0.0107 -0.0122,0.0181 -0.0019,0.0035 -0.0042,0.0076 -0.0066,0.0128 -0.0022,0.005 -0.005,0.0107 -0.0081,0.017 -0.0036,0.0057 -0.0084,0.0128 -0.0146,0.0212 -0.0061,0.0085 -0.013,0.0185 -0.0207,0.0299 -0.0104,0.0186 -0.0212,0.0362 -0.0323,0.0531 0,0.0325 0.0064,0.0572 0.0195,0.0739 0.0129,0.0166 0.0324,0.025 0.0583,0.025 0.0017,0 0.0067,-0.0012 0.0152,-0.0036 0.0084,-0.0023 0.0199,-0.006 0.0348,-0.011 0.0043,-0.0028 0.0096,-0.0066 0.0157,-0.0116 0.006,-0.0048 0.0129,-0.0107 0.0206,-0.0174l0.0197 0.0465c-0.0088,0.0078 -0.0176,0.0157 -0.0262,0.0238 -0.0088,0.0081 -0.0178,0.0161 -0.0269,0.0238 -0.0103,0.0086 -0.021,0.0154 -0.0317,0.0198 -0.0109,0.0047 -0.0214,0.0069 -0.0319,0.0069 -0.0054,0 -0.0136,-0.0005 -0.0247,-0.0017 -0.0112,-0.0012 -0.0194,-0.0019 -0.0253,-0.0019 -0.0188,0 -0.0343,-0.0076 -0.0467,-0.0226 -0.0123,-0.0151 -0.0209,-0.0379 -0.0259,-0.0682 -0.0007,-0.0031 -0.0017,-0.0057 -0.0029,-0.0081 -0.001,-0.0024 -0.0033,-0.005 -0.0062,-0.0081 -0.0045,0.0043 -0.0095,0.0096 -0.0154,0.0156 -0.006,0.0061 -0.0131,0.013 -0.0215,0.0207l-0.0202 -0.0465zm0.2409 -0.3963l-0.0035 -0.0019c-0.019,0.0181 -0.0331,0.0353 -0.0428,0.0515 -0.0094,0.0161 -0.0143,0.0318 -0.0143,0.0469 0,0.0024 -0.0012,0.0064 -0.0032,0.0119 -0.0023,0.0055 -0.0055,0.0126 -0.0099,0.0214 -0.0055,0.0105 -0.011,0.0219 -0.0167,0.0343 -0.0064,0.019 -0.0114,0.0343 -0.0146,0.046 -0.0035,0.0117 -0.005,0.0202 -0.005,0.0252l0.0029 0.0041c0.0031,-0.0003 0.0067,-0.0034 0.0112,-0.0091 0.0043,-0.0057 0.0093,-0.0141 0.0152,-0.0252 0.0026,-0.006 0.0065,-0.0131 0.0115,-0.0212 0.005,-0.0081 0.0107,-0.0177 0.0173,-0.0288 0.0053,-0.0074 0.0139,-0.0265 0.0257,-0.057 0.0117,-0.0307 0.018,-0.0502 0.0191,-0.0586 0.0003,-0.0068 0.0014,-0.0135 0.0027,-0.02 0.0016,-0.0066 0.003,-0.013 0.0044,-0.0195zm0.0439 0.3963c0.0078,-0.0081 0.0197,-0.0178 0.0355,-0.0291 0.0161,-0.0116 0.028,-0.0209 0.0357,-0.0283 0.005,-0.006 0.0116,-0.0135 0.0197,-0.0219 0.0081,-0.0086 0.0177,-0.0188 0.0287,-0.0307 0.0068,-0.006 0.0133,-0.0107 0.0197,-0.0141 0.0064,-0.0033 0.0128,-0.005 0.0193,-0.005 0.0079,0 0.0143,0.002 0.0188,0.006 0.0047,0.0041 0.0069,0.0105 0.0069,0.0191 0,0.0133 -0.005,0.0345 -0.0152,0.0638 -0.0101,0.0292 -0.0151,0.0514 -0.0151,0.0666 0,0.0034 0.0008,0.0057 0.0022,0.007 0.0016,0.0014 0.0033,0.0021 0.0053,0.0021l0.0026 -0.0005c0.0064,-0.004 0.0138,-0.0092 0.0224,-0.0154 0.0087,-0.0063 0.0183,-0.0139 0.029,-0.0231 0.0088,-0.0081 0.0197,-0.0186 0.0326,-0.0317 0.0131,-0.0131 0.0283,-0.0282 0.0457,-0.0455 0.0069,-0.0053 0.0144,-0.0122 0.0231,-0.0207 0.0086,-0.0084 0.0182,-0.0184 0.0289,-0.0303 0.0045,-0.006 0.0105,-0.0107 0.0185,-0.0141 0.0079,-0.0033 0.0175,-0.005 0.0291,-0.005 0.0076,0 0.0134,0.0013 0.0174,0.0043 0.0038,0.0027 0.0057,0.007 0.0057,0.0129 0,0.0022 -0.0002,0.0045 -0.0007,0.0067 -0.0005,0.0023 -0.001,0.0043 -0.0012,0.0064 -0.0024,0.01 -0.006,0.0224 -0.0107,0.0371 -0.0046,0.0146 -0.0105,0.0319 -0.0172,0.0517 -0.0057,0.0126 -0.0116,0.0274 -0.0179,0.0448 -0.0063,0.0172 -0.0128,0.0364 -0.0199,0.0572l0.0035 0.0045c0.007,-0.0033 0.0176,-0.0114 0.0317,-0.024 0.014,-0.0125 0.0315,-0.0296 0.0527,-0.0508l0.0202 0.0465c-0.0027,0.0028 -0.006,0.0061 -0.0098,0.0099 -0.004,0.0039 -0.009,0.0081 -0.0154,0.0124 -0.036,0.0255 -0.067,0.0508 -0.0927,0.076 -0.0257,0.025 -0.0462,0.0498 -0.0614,0.0745 -0.0226,0.037 -0.0413,0.0672 -0.0562,0.0903 -0.015,0.0233 -0.0258,0.0396 -0.0326,0.0491 -0.0232,0.0305 -0.0453,0.0533 -0.0661,0.0681 -0.0209,0.0148 -0.0412,0.0223 -0.0611,0.0223 -0.0074,0 -0.0129,-0.0016 -0.0162,-0.0045 -0.0034,-0.0031 -0.0051,-0.0078 -0.0051,-0.0142 0,-0.0034 0.0008,-0.0075 0.0025,-0.0127 0.0018,-0.005 0.0047,-0.0104 0.0092,-0.016 0.0064,-0.0092 0.0122,-0.0187 0.0176,-0.0283l0.0151 -0.0133c0.0014,-0.0043 0.0021,-0.0074 0.0021,-0.009 0.0014,-0.0017 0.0033,-0.0038 0.0057,-0.006 0.0026,-0.0024 0.0055,-0.0052 0.009,-0.0081 0.0022,-0.006 0.0086,-0.0162 0.0189,-0.0302 0.0102,-0.0139 0.0247,-0.0318 0.0431,-0.0537 0.0138,-0.0161 0.0264,-0.0306 0.0379,-0.0431 0.0114,-0.0126 0.0212,-0.0233 0.0293,-0.0321 0.0012,-0.0028 0.0028,-0.0059 0.0044,-0.0097 0.0013,-0.0036 0.0027,-0.0074 0.0037,-0.011 0.0044,-0.0088 0.0092,-0.0193 0.0144,-0.0319 0.0051,-0.0124 0.0115,-0.027 0.0189,-0.0439 0.0033,-0.0097 0.0062,-0.0209 0.0086,-0.0335 0.0023,-0.0127 0.0045,-0.0264 0.0066,-0.0412 -0.0007,-0.0014 -0.0012,-0.0031 -0.0014,-0.0053 -0.0002,-0.0023 -0.0009,-0.0054 -0.0022,-0.0093 -0.0061,0.0031 -0.0126,0.0075 -0.0199,0.0136 -0.0072,0.006 -0.0151,0.0131 -0.0236,0.0212 -0.011,0.0145 -0.0224,0.0265 -0.0338,0.0362 -0.0113,0.0095 -0.0227,0.0169 -0.0338,0.0219 -0.0074,0.0145 -0.0168,0.0251 -0.0286,0.032 -0.0115,0.0069 -0.025,0.0104 -0.0401,0.0104 -0.0111,0 -0.0195,-0.0026 -0.0252,-0.0078 -0.0057,-0.0053 -0.0086,-0.0132 -0.0086,-0.0241 0,-0.0019 0.0001,-0.0045 0.0007,-0.0076 0.0005,-0.0029 0.0013,-0.0065 0.0024,-0.0105 -0.0014,-0.0034 -0.0031,-0.0081 -0.0052,-0.0141 0.0014,-0.0057 0.0026,-0.0123 0.0036,-0.0194 0,-0.0099 -0.0008,-0.0175 -0.0022,-0.0225 -0.0016,-0.0052 -0.004,-0.0076 -0.0074,-0.0076l-0.0021 0.0009c-0.0036,0.0027 -0.0088,0.0067 -0.0155,0.0122 -0.0067,0.0053 -0.0148,0.0119 -0.0243,0.0196 -0.0017,-0.0043 -0.0038,-0.0096 -0.0064,-0.0156 -0.0024,-0.0061 -0.005,-0.0132 -0.0077,-0.0213 -0.0007,-0.002 -0.0016,-0.0039 -0.0026,-0.0056 -0.0009,-0.0016 -0.0021,-0.003 -0.0035,-0.004zm0.907 -0.5032c0.0034,-0.0059 0.0084,-0.0103 0.015,-0.014 0.0065,-0.0036 0.0139,-0.0067 0.0224,-0.0093 0.0043,-0.0051 0.01,-0.011 0.0167,-0.0177 0.0019,-0.0021 0.0048,-0.0042 0.0083,-0.0062 0.0036,-0.0023 0.0075,-0.0043 0.0119,-0.0064 0.0067,-0.0028 0.0125,-0.0052 0.0177,-0.0076 0.0076,0 0.0135,0.0059 0.0176,0.0178 0.004,0.0117 0.006,0.0293 0.006,0.0529 0,0.036 -0.0022,0.0688 -0.0069,0.0982 -0.0044,0.0295 -0.0112,0.0556 -0.0203,0.078 -0.001,0.0027 -0.0021,0.0058 -0.0033,0.0091 -0.0012,0.0034 -0.0026,0.0071 -0.0043,0.0112 -0.001,0.006 -0.0024,0.0131 -0.0043,0.0212 -0.0019,0.0079 -0.004,0.0174 -0.0064,0.0283 -0.0007,0.0036 -0.001,0.0079 -0.0012,0.0127 -0.0002,0.005 -0.0009,0.0109 -0.0022,0.018 -0.0007,0.0044 -0.0028,0.0119 -0.0061,0.0225 -0.0034,0.0106 -0.0084,0.0242 -0.0151,0.0406l0.0019 0.0112c-0.0026,0.0094 -0.0062,0.021 -0.0109,0.0348 -0.0045,0.0138 -0.01,0.0296 -0.0164,0.0474 -0.002,0.0088 -0.005,0.0193 -0.0091,0.0315 -0.004,0.0124 -0.0088,0.0266 -0.0145,0.0428 -0.001,0.0088 -0.0021,0.0164 -0.0031,0.0227 -0.0007,0.0026 -0.0029,0.0099 -0.0065,0.0218 -0.0038,0.0117 -0.0099,0.0281 -0.0183,0.0489 -0.0023,0.0057 -0.0066,0.011 -0.0128,0.0159 -0.0064,0.0048 -0.0148,0.0095 -0.0255,0.0139 -0.0091,0.0037 -0.0177,0.0066 -0.026,0.0085 -0.0083,0.0021 -0.0162,0.0031 -0.0235,0.0031 -0.0112,0 -0.0208,-0.0024 -0.0287,-0.0072 -0.0082,-0.0051 -0.014,-0.0119 -0.0178,-0.0211 -0.0131,-0.0324 -0.0228,-0.0581 -0.029,-0.0776 -0.0062,-0.0193 -0.0091,-0.032 -0.0088,-0.038 -0.0017,-0.003 -0.0041,-0.0085 -0.0074,-0.0163 -0.0031,-0.0077 -0.0064,-0.0182 -0.0098,-0.0317 -0.0034,-0.0122 -0.0059,-0.0224 -0.0074,-0.0308 -0.0014,-0.0085 -0.0023,-0.015 -0.0023,-0.0197 0,-0.0219 0.0018,-0.0383 0.0052,-0.0493 0.0033,-0.0108 0.0083,-0.0164 0.0152,-0.0164 0.0117,0 0.0219,0.0018 0.0305,0.005 0.0086,0.0035 0.0159,0.0081 0.0219,0.0142 0.0034,0.0041 0.0071,0.0103 0.0109,0.0188 0.0039,0.0084 0.0082,0.0191 0.0134,0.0322 0.0067,0.0152 0.0117,0.0274 0.0148,0.0369 0.0033,0.0095 0.0049,0.0157 0.0049,0.0186 0,0.0062 -0.0042,0.0116 -0.0125,0.0166 -0.0082,0.0048 -0.0124,0.0093 -0.0124,0.0132 0.0031,0.0059 0.0057,0.0118 0.008,0.0178 0.0022,0.006 0.0044,0.0115 0.0067,0.0165 0.0038,0.0092 0.0076,0.0159 0.0114,0.02 0.0039,0.0043 0.0079,0.0064 0.0119,0.0064 0.0053,0 0.0115,-0.0076 0.0184,-0.0227 0.0069,-0.0152 0.0145,-0.0381 0.0224,-0.0687 0.0066,-0.0225 0.0121,-0.043 0.0171,-0.0617 0.0048,-0.0184 0.0084,-0.0355 0.0108,-0.0508 0.0023,-0.0066 0.0049,-0.0142 0.0076,-0.0231 0.0026,-0.0088 0.0057,-0.0195 0.009,-0.0321 0.001,-0.0026 0.0017,-0.0059 0.0017,-0.0098 0.0002,-0.0038 0.0009,-0.0085 0.0019,-0.0138 0.0026,-0.0169 0.0055,-0.034 0.0088,-0.0514 0.0033,-0.0172 0.0064,-0.0345 0.0093,-0.0517 0.0035,-0.0202 0.0057,-0.039 0.0071,-0.0562 0.0014,-0.0174 0.002,-0.0333 0.002,-0.0477 0,-0.0121 -0.0082,-0.0193 -0.0248,-0.0218 -0.0164,-0.0024 -0.0246,-0.0062 -0.0246,-0.0117 0,-0.0046 0.0029,-0.0102 0.0086,-0.0164 0.0057,-0.0062 0.0141,-0.0129 0.0252,-0.0203z"/>
  <path class="fil5" d="M9.03 10.4287l0.0459 -0.0302c0.0017,-0.0017 0.0038,-0.004 0.006,-0.0069 0.0024,-0.0028 0.0052,-0.0069 0.0081,-0.0122 0.0024,-0.0045 0.0055,-0.0081 0.0095,-0.0113 0.0038,-0.0029 0.0083,-0.0056 0.0133,-0.0081 0.0027,-0.0032 0.0065,-0.0075 0.0117,-0.0125 0.005,-0.005 0.0114,-0.0109 0.0191,-0.0176 0.0036,-0.0021 0.0085,-0.005 0.0142,-0.009 0.0057,-0.0038 0.0119,-0.0089 0.0186,-0.0153 0.0307,-0.029 0.0576,-0.0507 0.0807,-0.0652 0.0229,-0.0145 0.0424,-0.0217 0.0582,-0.0217 0.0088,0 0.0152,0.0019 0.0195,0.0055 0.0041,0.0038 0.0062,0.009 0.0062,0.0157 0,0.0071 -0.0012,0.0133 -0.0038,0.0186 -0.0024,0.0055 -0.0064,0.01 -0.0117,0.0138 -0.0085,0.006 -0.0176,0.0128 -0.0274,0.0202 -0.0054,0.007 -0.0119,0.0145 -0.0197,0.0224 -0.0077,0.0079 -0.0169,0.0157 -0.0272,0.0234 -0.0034,0.0045 -0.0062,0.0083 -0.0086,0.0117 -0.0017,0.0016 -0.0048,0.0047 -0.0097,0.009 -0.0046,0.0045 -0.0108,0.0095 -0.0186,0.0152 -0.0034,0.0074 -0.0107,0.017 -0.0219,0.0288 -0.0114,0.0119 -0.0264,0.026 -0.0453,0.0424 -0.0023,0.0024 -0.0066,0.0077 -0.0126,0.0162 -0.006,0.0084 -0.014,0.0195 -0.0238,0.0334l0.0036 0.0045c0.0074,-0.0024 0.0152,-0.0064 0.0233,-0.0121 0.0079,-0.0058 0.0169,-0.0134 0.0267,-0.0227 0.0114,-0.0105 0.0207,-0.019 0.0279,-0.0255 0.0073,-0.0066 0.0125,-0.0109 0.0156,-0.013 0.0022,-0.0013 0.0046,-0.0027 0.007,-0.0039 0.0023,-0.0014 0.005,-0.0031 0.008,-0.0052 0.0155,-0.0184 0.0299,-0.0322 0.0436,-0.041 0.0134,-0.009 0.0258,-0.0135 0.0372,-0.0135 0.0072,0 0.0126,0.0028 0.0162,0.0083 0.0038,0.0057 0.0059,0.014 0.0066,0.025 -0.0007,0.0169 -0.0009,0.0331 -0.0009,0.0486 -0.0004,0.0107 0.0026,0.0204 0.0088,0.029 0.0062,0.0086 0.0143,0.0129 0.0245,0.0129 0.0031,0 0.006,-0.0009 0.0088,-0.0026 0.0029,-0.0017 0.0058,-0.0038 0.0089,-0.0065 0.0023,-0.0031 0.0045,-0.0059 0.0067,-0.0087 0.0023,-0.0027 0.0045,-0.0053 0.0069,-0.0081 0.0014,-0.0006 0.0033,-0.0018 0.0057,-0.0036 0.0026,-0.0017 0.005,-0.0036 0.0074,-0.006 0.0047,0.0102 0.0087,0.019 0.0119,0.0265 0.0031,0.0076 0.0056,0.0144 0.0073,0.02 -0.0078,0.0071 -0.0154,0.0145 -0.0229,0.0219 -0.0076,0.0076 -0.0157,0.0149 -0.024,0.0216 -0.0102,0.0077 -0.02,0.0136 -0.0293,0.0174 -0.0095,0.004 -0.019,0.0059 -0.0283,0.0059 -0.0219,0 -0.0388,-0.0063 -0.0505,-0.0187 -0.0119,-0.0125 -0.0188,-0.0313 -0.0207,-0.0567 0,-0.0029 -0.0005,-0.006 -0.0014,-0.0093 -0.0008,-0.0031 -0.0026,-0.0064 -0.0053,-0.0098 -0.0016,0.0017 -0.0035,0.0034 -0.0055,0.0053 -0.0021,0.0019 -0.0043,0.0043 -0.0071,0.0073 -0.0043,0.0034 -0.0098,0.0076 -0.0164,0.0127 -0.0065,0.005 -0.0143,0.0111 -0.0229,0.0181 -0.0119,0.0121 -0.0217,0.0221 -0.0298,0.0298 -0.0081,0.0078 -0.0138,0.0133 -0.0173,0.0168 -0.0067,0.0057 -0.0144,0.0113 -0.0234,0.017 -0.009,0.0057 -0.019,0.0118 -0.0302,0.0178 -0.007,0.0036 -0.0131,0.0065 -0.0181,0.0088 -0.005,0.0022 -0.0088,0.0033 -0.0112,0.0033 -0.016,0 -0.0281,-0.004 -0.0358,-0.0119 -0.0078,-0.008 -0.0116,-0.0202 -0.0116,-0.0366 0,-0.0091 0.0019,-0.0177 0.0059,-0.026 0.0038,-0.0083 0.0096,-0.0164 0.0174,-0.024 0.0007,-0.0045 0.001,-0.0079 0.001,-0.0107 0,-0.0017 -0.0003,-0.0034 -0.0012,-0.0053 -0.0009,-0.0017 -0.0021,-0.0038 -0.0033,-0.0062 -0.002,-0.0047 -0.0043,-0.01 -0.0069,-0.016 -0.0024,-0.0059 -0.0051,-0.0123 -0.0082,-0.019 0.0013,-0.0014 0.0032,-0.004 0.0058,-0.0078 0.0024,-0.0039 0.0054,-0.0088 0.0088,-0.0144zm0.3722 0.0222c0.0067,-0.0088 0.0153,-0.0191 0.026,-0.0316 0.0106,-0.0122 0.0235,-0.0262 0.0386,-0.0418 0.0011,-0.0031 0.0025,-0.0068 0.004,-0.0109 0.0017,-0.0043 0.0043,-0.0097 0.0076,-0.016 0.0179,-0.0266 0.034,-0.0523 0.0481,-0.0767 0.0141,-0.0247 0.0262,-0.0487 0.0364,-0.0718 0.0029,-0.0058 0.0062,-0.0129 0.0098,-0.0215 0.0034,-0.0086 0.0079,-0.0183 0.0133,-0.029 0.0048,-0.0081 0.0094,-0.0143 0.0139,-0.0188 0.0045,-0.0043 0.009,-0.0065 0.0135,-0.0065 0.0067,0 0.0115,0.0029 0.0148,0.0086 0.0033,0.0057 0.0048,0.0147 0.0048,0.0267 0,0.0068 -0.0058,0.0286 -0.0174,0.0654 -0.0117,0.0369 -0.0289,0.0889 -0.0519,0.1558 -0.006,0.0162 -0.0127,0.0388 -0.0201,0.0679 -0.0075,0.0292 -0.0161,0.0655 -0.0257,0.109 -0.0011,0.0064 -0.0021,0.0138 -0.0033,0.0222 -0.0012,0.0083 -0.0029,0.0181 -0.0053,0.0293 -0.0057,0.0216 -0.0099,0.0386 -0.0121,0.0514 -0.0024,0.0129 -0.0035,0.021 -0.0031,0.0248l0.0021 0.004c0.0017,-0.0011 0.0036,-0.0042 0.0056,-0.0095 0.0023,-0.0055 0.0042,-0.0131 0.0059,-0.0233 0.0021,-0.0091 0.0036,-0.0167 0.0047,-0.0229 0.0008,-0.0062 0.001,-0.0114 0.0003,-0.0155 0.0074,-0.0195 0.0162,-0.0445 0.0264,-0.075 0.01,-0.0303 0.0219,-0.0659 0.0353,-0.1062 0.0054,-0.0098 0.0116,-0.0217 0.0185,-0.0357 0.0069,-0.0139 0.0141,-0.0305 0.0219,-0.0496 0.0077,-0.0074 0.0148,-0.013 0.021,-0.0164 0.0062,-0.0036 0.0115,-0.0054 0.0158,-0.0054 0.0095,0 0.0183,0.0026 0.0264,0.0076 0.0081,0.005 0.0155,0.0124 0.0223,0.0221 0.0015,0.0024 0.0046,0.0084 0.0093,0.0179 0.0045,0.0097 0.0107,0.0226 0.0184,0.0392 0.0043,0.01 0.009,0.0179 0.0136,0.0234 0.0047,0.0055 0.0093,0.0084 0.0137,0.0088l0.0212 0.0465c-0.0018,0.0004 -0.0063,0.0016 -0.0135,0.0035 -0.0072,0.002 -0.0176,0.0043 -0.031,0.0067l-0.0343 -0.0128c-0.0085,-0.0022 -0.0186,-0.0105 -0.0305,-0.0246 -0.0121,-0.0141 -0.0218,-0.0222 -0.0292,-0.0247 -0.007,0.005 -0.0146,0.015 -0.0227,0.0299 -0.0081,0.0148 -0.0162,0.0339 -0.0247,0.0576 -0.002,0.0053 -0.0046,0.0112 -0.0079,0.0174 -0.0031,0.0062 -0.0064,0.0132 -0.0098,0.0213 -0.0021,0.0128 -0.0043,0.0252 -0.0071,0.0369 -0.0043,0.0102 -0.0091,0.023 -0.0141,0.0386 -0.005,0.0157 -0.0104,0.0343 -0.0162,0.0559 -0.0016,0.0074 -0.0059,0.0184 -0.0128,0.0333 -0.0069,0.0148 -0.011,0.026 -0.0124,0.0338 -0.0007,0.0048 -0.0021,0.011 -0.0043,0.0187 -0.0023,0.0078 -0.0055,0.0168 -0.0098,0.0273 -0.0078,0.0134 -0.0149,0.0236 -0.0213,0.0305 -0.0063,0.0069 -0.0118,0.0103 -0.0162,0.0103 -0.0101,0 -0.0177,-0.0048 -0.0227,-0.0146 -0.005,-0.0098 -0.0076,-0.0243 -0.0076,-0.0435 0,-0.0289 0.0017,-0.0606 0.005,-0.0955 0.0035,-0.0346 0.0084,-0.0718 0.0152,-0.1115 0.002,-0.0115 0.0043,-0.0231 0.0065,-0.0348 0.0024,-0.0119 0.0048,-0.0238 0.0071,-0.0359 0.0031,-0.0141 0.0052,-0.0272 0.0064,-0.0389 0.0012,-0.0118 0.0014,-0.0224 0.0007,-0.0318 -0.0033,0.0009 -0.009,0.0052 -0.0169,0.0128 -0.008,0.0076 -0.018,0.019 -0.03,0.0341 -0.0014,-0.005 -0.0037,-0.0113 -0.0071,-0.0188 -0.0033,-0.0074 -0.0078,-0.0165 -0.0131,-0.0277zm0.3693 -0.0222l0.0458 -0.0302c0.0017,-0.0017 0.0038,-0.004 0.006,-0.0069 0.0025,-0.0028 0.0052,-0.0069 0.0081,-0.0122 0.0025,-0.0045 0.0056,-0.0081 0.0095,-0.0113 0.0038,-0.0029 0.0083,-0.0056 0.0133,-0.0081 0.0028,-0.0032 0.0066,-0.0075 0.0117,-0.0125 0.005,-0.005 0.0114,-0.0109 0.0192,-0.0176 0.0036,-0.0021 0.0084,-0.005 0.0141,-0.009 0.0057,-0.0038 0.0119,-0.0089 0.0186,-0.0153 0.0307,-0.029 0.0576,-0.0507 0.0807,-0.0652 0.0229,-0.0145 0.0424,-0.0217 0.0583,-0.0217 0.0087,0 0.0151,0.0019 0.0194,0.0055 0.0042,0.0038 0.0062,0.009 0.0062,0.0157 0,0.0071 -0.0012,0.0133 -0.0037,0.0186 -0.0025,0.0055 -0.0064,0.01 -0.0118,0.0138 -0.0084,0.006 -0.0176,0.0128 -0.0274,0.0202 -0.0053,0.007 -0.0119,0.0145 -0.0196,0.0224 -0.0078,0.0079 -0.0169,0.0157 -0.0273,0.0234 -0.0034,0.0045 -0.0062,0.0083 -0.0086,0.0117 -0.0017,0.0016 -0.0048,0.0047 -0.0096,0.009 -0.0047,0.0045 -0.0109,0.0095 -0.0187,0.0152 -0.0034,0.0074 -0.0106,0.017 -0.0219,0.0288 -0.0113,0.0119 -0.0263,0.026 -0.0453,0.0424 -0.0022,0.0024 -0.0065,0.0077 -0.0126,0.0162 -0.006,0.0084 -0.0139,0.0195 -0.0238,0.0334l0.0037 0.0045c0.0074,-0.0024 0.0151,-0.0064 0.0232,-0.0121 0.008,-0.0058 0.0169,-0.0134 0.0267,-0.0227 0.0114,-0.0105 0.0207,-0.019 0.028,-0.0255 0.0072,-0.0066 0.0124,-0.0109 0.0155,-0.013 0.0022,-0.0013 0.0046,-0.0027 0.0071,-0.0039 0.0022,-0.0014 0.005,-0.0031 0.0079,-0.0052 0.0155,-0.0184 0.03,-0.0322 0.0436,-0.041 0.0134,-0.009 0.0259,-0.0135 0.0372,-0.0135 0.0073,0 0.0126,0.0028 0.0162,0.0083 0.0038,0.0057 0.0059,0.014 0.0066,0.025 -0.0007,0.0169 -0.0009,0.0331 -0.0009,0.0486 -0.0003,0.0107 0.0026,0.0204 0.0088,0.029 0.0062,0.0086 0.0143,0.0129 0.0245,0.0129 0.0031,0 0.006,-0.0009 0.0088,-0.0026 0.0029,-0.0017 0.0058,-0.0038 0.009,-0.0065 0.0022,-0.0031 0.0044,-0.0059 0.0067,-0.0087 0.0022,-0.0027 0.0045,-0.0053 0.0069,-0.0081 0.0014,-0.0006 0.0033,-0.0018 0.0057,-0.0036 0.0025,-0.0017 0.005,-0.0036 0.0074,-0.006 0.0046,0.0102 0.0086,0.019 0.0119,0.0265 0.0031,0.0076 0.0055,0.0144 0.0072,0.02 -0.0077,0.0071 -0.0153,0.0145 -0.0229,0.0219 -0.0076,0.0076 -0.0157,0.0149 -0.024,0.0216 -0.0102,0.0077 -0.02,0.0136 -0.0293,0.0174 -0.0095,0.004 -0.0189,0.0059 -0.0283,0.0059 -0.0218,0 -0.0387,-0.0063 -0.0505,-0.0187 -0.0119,-0.0125 -0.0188,-0.0313 -0.0207,-0.0567 0,-0.0029 -0.0005,-0.006 -0.0013,-0.0093 -0.0009,-0.0031 -0.0026,-0.0064 -0.0054,-0.0098 -0.0015,0.0017 -0.0034,0.0034 -0.0055,0.0053 -0.0021,0.0019 -0.0043,0.0043 -0.0071,0.0073 -0.0043,0.0034 -0.0098,0.0076 -0.0163,0.0127 -0.0066,0.005 -0.0143,0.0111 -0.023,0.0181 -0.0119,0.0121 -0.0217,0.0221 -0.0298,0.0298 -0.0081,0.0078 -0.0138,0.0133 -0.0172,0.0168 -0.0067,0.0057 -0.0145,0.0113 -0.0235,0.017 -0.0089,0.0057 -0.0189,0.0118 -0.0301,0.0178 -0.0071,0.0036 -0.0131,0.0065 -0.0181,0.0088 -0.005,0.0022 -0.0088,0.0033 -0.0112,0.0033 -0.0161,0 -0.0281,-0.004 -0.0359,-0.0119 -0.0078,-0.008 -0.0116,-0.0202 -0.0116,-0.0366 0,-0.0091 0.0019,-0.0177 0.0059,-0.026 0.0038,-0.0083 0.0097,-0.0164 0.0174,-0.024 0.0007,-0.0045 0.0011,-0.0079 0.0011,-0.0107 0,-0.0017 -0.0004,-0.0034 -0.0012,-0.0053 -0.0009,-0.0017 -0.0021,-0.0038 -0.0033,-0.0062 -0.0021,-0.0047 -0.0043,-0.01 -0.0069,-0.016 -0.0024,-0.0059 -0.0052,-0.0123 -0.0083,-0.019 0.0014,-0.0014 0.0033,-0.004 0.0059,-0.0078 0.0024,-0.0039 0.0053,-0.0088 0.0088,-0.0144zm0.3721 0.0222c0.0014,-0.0024 0.0031,-0.005 0.0054,-0.0078 0.0021,-0.0029 0.0048,-0.0063 0.0077,-0.0103 0.0035,-0.0028 0.0078,-0.0066 0.0131,-0.0117 0.0056,-0.005 0.0116,-0.0109 0.0183,-0.0176 0.0061,-0.0067 0.0135,-0.0152 0.0223,-0.025 0.0086,-0.01 0.0193,-0.0219 0.0317,-0.036 0.0055,-0.0059 0.0122,-0.0131 0.0201,-0.0221 0.0081,-0.009 0.0178,-0.0195 0.0288,-0.0321 0.0095,-0.011 0.0197,-0.0193 0.0304,-0.0246 0.0108,-0.0054 0.0222,-0.0081 0.0343,-0.0081 0.0122,0 0.021,0.0038 0.0269,0.0114 0.0057,0.0075 0.0084,0.0186 0.0084,0.0331 0,0.0077 -0.0027,0.0225 -0.0084,0.0444 -0.0059,0.0219 -0.0147,0.0509 -0.0269,0.0869 -0.003,0.0067 -0.0059,0.0131 -0.0085,0.0191 -0.002,0.0044 -0.0034,0.0083 -0.0041,0.0116 -0.0007,0.0035 -0.001,0.006 -0.001,0.0076 0,0.0021 0.0012,0.0046 0.0036,0.0076 0.0017,-0.0011 0.0032,-0.0023 0.0048,-0.004 0.0014,-0.0017 0.0033,-0.0038 0.0052,-0.006 0.0027,-0.0052 0.0069,-0.0104 0.0124,-0.0161 0.0055,-0.0055 0.0122,-0.0115 0.02,-0.0184 0.0029,-0.0057 0.0069,-0.0114 0.0119,-0.0169 0.0048,-0.0055 0.0103,-0.0107 0.0164,-0.0153 0.0013,-0.0014 0.0031,-0.0037 0.0053,-0.0066 0.0021,-0.0031 0.0048,-0.0062 0.0078,-0.0097 0.0044,-0.0043 0.0096,-0.0089 0.0156,-0.0136 0.0061,-0.0046 0.0131,-0.0096 0.0212,-0.0146 0.0092,-0.0047 0.0173,-0.0085 0.0245,-0.0112 0.0073,-0.0026 0.0137,-0.004 0.019,-0.004 0.0105,0 0.0196,0.0026 0.0277,0.0076 0.0081,0.005 0.015,0.0129 0.0207,0.0238 0.0068,0.0208 0.0133,0.0402 0.0193,0.0579 0.0037,0.0105 0.0078,0.0183 0.0123,0.0233 0.0046,0.005 0.0098,0.0076 0.0155,0.0076 0.0043,0 0.0083,-0.0009 0.0119,-0.0026 0.0034,-0.0017 0.0067,-0.0042 0.0098,-0.0076l0.0202 0.0465c-0.0057,0.0047 -0.0116,0.0097 -0.0178,0.0147 -0.006,0.005 -0.0119,0.0098 -0.0176,0.0146 -0.0077,0.0071 -0.0149,0.0121 -0.0217,0.0149 -0.0067,0.0029 -0.0134,0.0043 -0.0201,0.0043 -0.0078,0 -0.0152,-0.0017 -0.0223,-0.005 -0.0071,-0.0035 -0.0131,-0.0085 -0.0183,-0.0152 -0.0025,-0.0027 -0.006,-0.0076 -0.01,-0.0148 -0.0041,-0.0073 -0.0087,-0.0164 -0.0141,-0.0271 -0.0045,-0.0043 -0.0095,-0.0101 -0.015,-0.0174 -0.0055,-0.0072 -0.0121,-0.0157 -0.0195,-0.0255l-0.0045 -0.0016c-0.0063,0.0021 -0.0127,0.0052 -0.0189,0.0092 -0.0062,0.0039 -0.0129,0.0093 -0.02,0.0157 -0.015,0.0134 -0.026,0.0219 -0.0328,0.0251 -0.0067,0.0035 -0.0112,0.0073 -0.0136,0.0118 -0.0046,0.0081 -0.0127,0.0184 -0.0243,0.0312 -0.0114,0.0129 -0.0257,0.0279 -0.0429,0.0455 -0.0043,0.0043 -0.0088,0.0086 -0.0131,0.0129 -0.0043,0.0041 -0.0088,0.0083 -0.0131,0.0122 -0.0045,0.0038 -0.0093,0.0064 -0.015,0.008 -0.0055,0.0015 -0.0116,0.0022 -0.0183,0.0022 -0.0136,0 -0.0208,-0.0046 -0.0221,-0.014 -0.0012,-0.0091 -0.0022,-0.0186 -0.0032,-0.0279 0.005,-0.0141 0.0108,-0.0319 0.0172,-0.0531 0.0064,-0.0212 0.0138,-0.0458 0.0223,-0.0743 0,-0.0015 0.0005,-0.0039 0.0017,-0.0067 0.0012,-0.0029 0.0026,-0.0067 0.0043,-0.0114 0.0015,-0.0043 0.0027,-0.0081 0.0034,-0.0113 0.0007,-0.0032 0.0011,-0.0061 0.0011,-0.0083 0,-0.0024 -0.0009,-0.0043 -0.0026,-0.0057 -0.0016,-0.0012 -0.0043,-0.0019 -0.0079,-0.0019 -0.0035,0 -0.008,0.0019 -0.0135,0.006 -0.0055,0.004 -0.0122,0.0104 -0.02,0.0192 -0.0095,0.0101 -0.0171,0.0181 -0.0228,0.0237 -0.0056,0.0057 -0.0094,0.0092 -0.0115,0.0102 -0.0035,0.0023 -0.0074,0.0057 -0.0119,0.01 -0.0045,0.0045 -0.0097,0.0093 -0.0153,0.0147 -0.0007,0.0013 -0.0018,0.0034 -0.0031,0.006 -0.0014,0.0028 -0.0035,0.0057 -0.0066,0.0091 -0.0014,-0.005 -0.0036,-0.0113 -0.0071,-0.0188 -0.0032,-0.0074 -0.0077,-0.0165 -0.0131,-0.0277zm0.4829 0c0.004,-0.0071 0.0093,-0.0141 0.0157,-0.0214 0.0064,-0.0072 0.0143,-0.0146 0.0241,-0.0224 0.0011,-0.0067 0.0021,-0.0134 0.0031,-0.02 0.0009,-0.0065 0.0016,-0.0133 0.0019,-0.02 0.0011,-0.0046 0.0026,-0.0102 0.0048,-0.0165 0.0023,-0.0066 0.0047,-0.0135 0.0075,-0.0209 0.0029,-0.0074 0.007,-0.0165 0.0122,-0.0277 0.0053,-0.0111 0.0121,-0.0235 0.0205,-0.0375 0.0071,-0.0075 0.0145,-0.0162 0.0223,-0.0255 0.0077,-0.0091 0.0155,-0.0184 0.0232,-0.0279 0.0036,-0.0031 0.0078,-0.0059 0.0121,-0.0086 0.0043,-0.0028 0.0088,-0.0057 0.0131,-0.0091 0.0041,-0.0014 0.0086,-0.0025 0.0136,-0.0035 0.0052,-0.001 0.0107,-0.0015 0.0167,-0.0015 0.0085,0 0.0152,0.0008 0.0205,0.0025 0.0052,0.0016 0.0095,0.0045 0.0128,0.0085 0.0024,0.0027 0.0047,0.0069 0.0069,0.0122 0.0022,0.0054 0.0043,0.0119 0.0064,0.0197 0.0008,0.0067 0.002,0.0141 0.0034,0.0222 0,-0.0021 -0.0005,-0.0012 -0.0017,0.0026 -0.0012,0.0036 -0.0029,0.0095 -0.0053,0.0176l-0.0045 0.0162c-0.0049,0.0162 -0.0154,0.0348 -0.0319,0.056 -0.0166,0.0212 -0.0388,0.0455 -0.0667,0.0728 -0.0023,0.0024 -0.0043,0.0053 -0.0061,0.0087 -0.0017,0.0037 -0.0024,0.0075 -0.0024,0.0114 0,0.0071 0.0012,0.0135 0.0038,0.0188 0.0024,0.0054 0.006,0.0093 0.0109,0.0121 0.0026,0.0021 0.0069,0.0041 0.0127,0.006 0.0061,0.0021 0.013,0.004 0.0211,0.0055 0.0131,-0.0008 0.0251,-0.0031 0.0358,-0.0065 0.0109,-0.0033 0.0205,-0.0074 0.029,-0.0121 0.0015,-0.001 0.0043,-0.0024 0.0079,-0.0043 0.0038,-0.0019 0.0074,-0.0043 0.0112,-0.0074 0.0043,0.0098 0.0083,0.0186 0.0116,0.0264 0.0034,0.0077 0.006,0.0145 0.0081,0.0201 -0.0192,0.0188 -0.0366,0.0331 -0.0523,0.0428 -0.0156,0.0095 -0.0301,0.0143 -0.0432,0.0143 -0.0054,0.0034 -0.0116,0.0059 -0.0185,0.0074 -0.0069,0.0016 -0.015,0.0023 -0.0245,0.0023 -0.0124,0 -0.0234,-0.0019 -0.0331,-0.0056 -0.0096,-0.0038 -0.0175,-0.0091 -0.0239,-0.0162 -0.0035,-0.0034 -0.0067,-0.0082 -0.0102,-0.015 -0.0033,-0.0065 -0.0069,-0.0143 -0.0105,-0.0234 -0.0031,-0.0074 -0.0059,-0.0129 -0.0086,-0.0164 -0.0028,-0.0036 -0.0057,-0.0053 -0.0092,-0.0053 -0.0025,0 -0.0057,0.0012 -0.0091,0.0038 -0.0033,0.0025 -0.0071,0.0063 -0.011,0.0113 -0.0014,-0.005 -0.0037,-0.0113 -0.0071,-0.0188 -0.0033,-0.0074 -0.0078,-0.0165 -0.0131,-0.0277zm0.1615 -0.1639c-0.0074,0 -0.0172,0.0096 -0.0298,0.0289 -0.0124,0.0195 -0.0186,0.0336 -0.0186,0.0428 0,0.002 0.0003,0.0034 0.0012,0.0043 0.0009,0.0008 0.0026,0.0012 0.0053,0.0012 0.0038,0 0.0068,-0.0019 0.0092,-0.0059 0.0022,-0.0038 0.0045,-0.0074 0.0065,-0.0108 0.0036,-0.0033 0.0073,-0.0069 0.0109,-0.0109 0.0034,-0.0038 0.0069,-0.0076 0.0103,-0.0112 0.004,-0.0048 0.0071,-0.0095 0.009,-0.0141 0.0021,-0.0049 0.0031,-0.0095 0.0031,-0.0142 0,-0.0031 -0.0005,-0.0055 -0.0017,-0.0074 -0.0012,-0.0019 -0.003,-0.0027 -0.0054,-0.0027zm0.0926 0.1639l0.0031 -0.0035c0.0012,-0.0048 0.0041,-0.0098 0.0088,-0.0151 0.0045,-0.0054 0.011,-0.0109 0.0195,-0.0162 0.011,-0.0071 0.0196,-0.0128 0.0258,-0.0171 0.0064,-0.0045 0.0102,-0.0076 0.0114,-0.0096 0.0031,-0.0037 0.0052,-0.0066 0.006,-0.0087 0.0038,-0.0026 0.0083,-0.0063 0.0138,-0.011 0.0054,-0.0047 0.0114,-0.0105 0.0181,-0.0172 0.0024,-0.0016 0.0049,-0.0043 0.0076,-0.008 0.0028,-0.0038 0.0054,-0.0079 0.0081,-0.0127 0.0043,-0.003 0.0093,-0.0069 0.0149,-0.0116 0.0055,-0.0046 0.012,-0.0107 0.0194,-0.0181 0.0085,-0.0091 0.018,-0.0191 0.0286,-0.03 0.0106,-0.011 0.0225,-0.0224 0.0356,-0.0341 0.0043,-0.0021 0.0084,-0.0036 0.0124,-0.0048 0.0038,-0.0012 0.0076,-0.0018 0.0113,-0.0018 0.0152,0 0.0266,0.0037 0.0342,0.0109 0.0074,0.0072 0.0112,0.0176 0.0112,0.031 0,0.0035 -0.0005,0.009 -0.0017,0.0168 -0.0012,0.0077 -0.0025,0.0174 -0.0038,0.0293 -0.0047,0.0339 -0.0081,0.0546 -0.01,0.062 -0.0021,0.0074 -0.0092,0.0307 -0.0212,0.0697 -0.0028,0.0063 -0.0055,0.0143 -0.0085,0.0238 -0.0027,0.0094 -0.0062,0.0208 -0.0103,0.0343 0.0007,0.0013 0.0024,0.0027 0.0052,0.0041 0.0022,0 0.0065,-0.0024 0.0125,-0.0069 0.0061,-0.0047 0.0142,-0.0114 0.0242,-0.0205 0.0119,-0.0109 0.0212,-0.0191 0.0279,-0.0248 0.0067,-0.0059 0.0109,-0.0092 0.0126,-0.0102 0.0039,0.0091 0.0077,0.0174 0.011,0.025 0.0035,0.0076 0.0062,0.0148 0.0086,0.0215 -0.0043,0.0028 -0.0082,0.0057 -0.0119,0.0092 -0.0034,0.0032 -0.0067,0.007 -0.0098,0.011 -0.0071,0.0048 -0.0152,0.0102 -0.0245,0.0162 -0.0093,0.006 -0.0195,0.0126 -0.0305,0.0197 -0.0052,0.0051 -0.0119,0.0112 -0.0205,0.0186 -0.0086,0.0072 -0.0183,0.0153 -0.029,0.0245l-0.0096 0.0019c-0.0047,0.0065 -0.0092,0.0113 -0.0135,0.0148 -0.0041,0.0033 -0.0079,0.0057 -0.0113,0.007 -0.0054,0.0019 -0.0107,0.004 -0.0161,0.0057 -0.0055,0.0019 -0.0112,0.0038 -0.0172,0.0059 -0.0036,-0.001 -0.0064,-0.0033 -0.0081,-0.0065 -0.0017,-0.0035 -0.0024,-0.0078 -0.0021,-0.0132 -0.005,-0.0091 -0.0089,-0.0196 -0.012,-0.0313 -0.003,-0.0118 -0.0045,-0.0249 -0.0045,-0.0393 0,-0.0028 0.0001,-0.0057 0.0005,-0.0086 0.0003,-0.0032 0.0007,-0.0057 0.001,-0.0081 -0.0024,-0.0088 -0.0036,-0.014 -0.0036,-0.0157 0,-0.01 0.0038,-0.0185 0.0115,-0.025 0.0078,-0.0066 0.0166,-0.0099 0.0264,-0.0099 0.005,0 0.0086,0.0026 0.0109,0.0078 0.0021,0.0053 0.0045,0.0079 0.0067,0.0079 0.0024,0 0.0048,-0.0046 0.0074,-0.0139 0.0024,-0.0092 0.005,-0.0228 0.0073,-0.0407 0.0024,-0.0154 0.0039,-0.0288 0.0046,-0.0404 0.0007,-0.0113 0.0009,-0.0201 0.0009,-0.0262 0,-0.0044 -0.0009,-0.0077 -0.0028,-0.0098 -0.0017,-0.0022 -0.0048,-0.0033 -0.0093,-0.0033 -0.0043,0 -0.0184,0.01 -0.0424,0.0302 -0.024,0.0202 -0.0572,0.0503 -0.1,0.0903 -0.0014,0.0024 -0.0033,0.0052 -0.0058,0.0087 -0.0025,0.0032 -0.0054,0.0075 -0.0088,0.0125 -0.0014,-0.005 -0.0037,-0.0113 -0.0071,-0.0188 -0.0033,-0.0074 -0.0078,-0.0165 -0.0131,-0.0277zm0.3162 0c0.0039,-0.0071 0.0093,-0.0141 0.0157,-0.0214 0.0063,-0.0072 0.0143,-0.0146 0.0241,-0.0224 0.001,-0.0067 0.0021,-0.0134 0.0031,-0.02 0.0008,-0.0065 0.0015,-0.0133 0.0019,-0.02 0.001,-0.0046 0.0026,-0.0102 0.0048,-0.0165 0.0023,-0.0066 0.0047,-0.0135 0.0074,-0.0209 0.003,-0.0074 0.0071,-0.0165 0.0123,-0.0277 0.0053,-0.0111 0.012,-0.0235 0.0205,-0.0375 0.007,-0.0075 0.0145,-0.0162 0.0222,-0.0255 0.0078,-0.0091 0.0155,-0.0184 0.0233,-0.0279 0.0036,-0.0031 0.0077,-0.0059 0.012,-0.0086 0.0044,-0.0028 0.0088,-0.0057 0.0132,-0.0091 0.0041,-0.0014 0.0086,-0.0025 0.0136,-0.0035 0.0051,-0.001 0.0107,-0.0015 0.0167,-0.0015 0.0084,0 0.0152,0.0008 0.0205,0.0025 0.0052,0.0016 0.0095,0.0045 0.0128,0.0085 0.0024,0.0027 0.0046,0.0069 0.0069,0.0122 0.0022,0.0054 0.0043,0.0119 0.0063,0.0197 0.0009,0.0067 0.0021,0.0141 0.0035,0.0222 0,-0.0021 -0.0005,-0.0012 -0.0017,0.0026 -0.0012,0.0036 -0.003,0.0095 -0.0054,0.0176l-0.0045 0.0162c-0.0048,0.0162 -0.0153,0.0348 -0.0319,0.056 -0.0165,0.0212 -0.0387,0.0455 -0.0667,0.0728 -0.0022,0.0024 -0.0043,0.0053 -0.006,0.0087 -0.0017,0.0037 -0.0024,0.0075 -0.0024,0.0114 0,0.0071 0.0012,0.0135 0.0038,0.0188 0.0024,0.0054 0.006,0.0093 0.0108,0.0121 0.0026,0.0021 0.0069,0.0041 0.0128,0.006 0.006,0.0021 0.0129,0.004 0.021,0.0055 0.0131,-0.0008 0.0252,-0.0031 0.0359,-0.0065 0.0108,-0.0033 0.0205,-0.0074 0.0289,-0.0121 0.0016,-0.001 0.0043,-0.0024 0.008,-0.0043 0.0038,-0.0019 0.0074,-0.0043 0.0112,-0.0074 0.0043,0.0098 0.0083,0.0186 0.0115,0.0264 0.0035,0.0077 0.0061,0.0145 0.0081,0.0201 -0.0191,0.0188 -0.0365,0.0331 -0.0522,0.0428 -0.0157,0.0095 -0.0302,0.0143 -0.0433,0.0143 -0.0053,0.0034 -0.0115,0.0059 -0.0184,0.0074 -0.0069,0.0016 -0.015,0.0023 -0.0245,0.0023 -0.0124,0 -0.0234,-0.0019 -0.0331,-0.0056 -0.0096,-0.0038 -0.0176,-0.0091 -0.024,-0.0162 -0.0034,-0.0034 -0.0067,-0.0082 -0.0101,-0.015 -0.0033,-0.0065 -0.0069,-0.0143 -0.0105,-0.0234 -0.0032,-0.0074 -0.0059,-0.0129 -0.0087,-0.0164 -0.0027,-0.0036 -0.0057,-0.0053 -0.0091,-0.0053 -0.0026,0 -0.0057,0.0012 -0.0091,0.0038 -0.0033,0.0025 -0.0071,0.0063 -0.0111,0.0113 -0.0013,-0.005 -0.0036,-0.0113 -0.007,-0.0188 -0.0033,-0.0074 -0.0078,-0.0165 -0.0131,-0.0277zm0.1615 -0.1639c-0.0074,0 -0.0172,0.0096 -0.0298,0.0289 -0.0124,0.0195 -0.0187,0.0336 -0.0187,0.0428 0,0.002 0.0004,0.0034 0.0013,0.0043 0.0008,0.0008 0.0025,0.0012 0.0053,0.0012 0.0038,0 0.0067,-0.0019 0.0091,-0.0059 0.0023,-0.0038 0.0045,-0.0074 0.0066,-0.0108 0.0036,-0.0033 0.0072,-0.0069 0.0108,-0.0109 0.0035,-0.0038 0.0069,-0.0076 0.0104,-0.0112 0.004,-0.0048 0.0071,-0.0095 0.009,-0.0141 0.002,-0.0049 0.0031,-0.0095 0.0031,-0.0142 0,-0.0031 -0.0006,-0.0055 -0.0018,-0.0074 -0.0012,-0.0019 -0.0029,-0.0027 -0.0053,-0.0027z"/>
  <path class="fil5" d="M11.6108 10.5066c0.0106,0 0.0188,0.0012 0.0249,0.0038 0.006,0.0026 0.0096,0.006 0.011,0.0103l-0.005 0.039c-0.001,0.0046 -0.0017,0.0094 -0.0021,0.0143 -0.0003,0.005 -0.001,0.0096 -0.0019,0.0145 -0.0017,0.0043 -0.0046,0.0075 -0.0086,0.0094 -0.0041,0.0021 -0.0096,0.0031 -0.0167,0.0031 -0.0054,0 -0.0129,0.0013 -0.0226,0.0038 -0.0095,0.0026 -0.0169,0.0038 -0.0219,0.0038 -0.0077,0 -0.0136,-0.0034 -0.0174,-0.0103 -0.004,-0.0069 -0.0059,-0.0176 -0.0059,-0.0321 0,-0.0134 0.0075,-0.0269 0.0225,-0.04 0.015,-0.0131 0.0296,-0.0196 0.0437,-0.0196zm-0.0101 -0.3151c0.0038,-0.0111 0.0067,-0.0209 0.0086,-0.0293 0.0021,-0.0085 0.0031,-0.0156 0.0031,-0.0213 0,-0.0029 -0.0005,-0.0069 -0.0012,-0.0118 -0.0009,-0.0049 -0.0016,-0.0166 -0.0019,-0.035 -0.0019,0.0006 -0.0042,0.001 -0.0066,0.001l-0.0086 -0.0057 -0.0014 -0.0071c0,-0.0077 0.0025,-0.0189 0.0073,-0.0338 0.0048,-0.0148 0.007,-0.0256 0.0064,-0.0327l-0.0006 -0.0269c-0.0007,-0.0046 -0.0005,-0.01 0.0007,-0.0159 0.0012,-0.0058 0.0031,-0.0119 0.0059,-0.0179 0.0027,-0.0074 0.0057,-0.0134 0.0091,-0.0179 0.0033,-0.0045 0.0071,-0.0074 0.0111,-0.0088 0.0017,-0.001 0.0036,-0.0019 0.0058,-0.0028 0.0023,-0.0008 0.0043,-0.0017 0.0064,-0.0024 0.0064,-0.005 0.0124,-0.0098 0.0181,-0.0143 0.0057,-0.0045 0.011,-0.0091 0.0157,-0.014 0.0084,-0.0056 0.016,-0.0101 0.0231,-0.0136 0.0069,-0.0032 0.0129,-0.005 0.0184,-0.005 0.0043,0 0.0075,0.0021 0.0093,0.0064 0.0019,0.0041 0.0028,0.0105 0.0028,0.0188 0,0.0052 -0.0005,0.0117 -0.0017,0.02 -0.0012,0.0083 -0.0031,0.0178 -0.0059,0.0286 -0.0027,0.011 -0.0048,0.0207 -0.0065,0.0288 -0.0018,0.0081 -0.0028,0.0147 -0.0031,0.0197 -0.0004,0.0074 -0.0018,0.0208 -0.0045,0.0401 -0.0028,0.0193 -0.0067,0.0441 -0.0121,0.0745 -0.0038,0.0202 -0.0083,0.0458 -0.0138,0.077 -0.0053,0.0311 -0.0115,0.0673 -0.0186,0.1083 0,0.0038 -0.0005,0.0081 -0.0014,0.0131 -0.0007,0.0052 -0.0017,0.0114 -0.0027,0.0188 -0.0007,0.0021 -0.0014,0.0043 -0.0024,0.0067 -0.0011,0.0026 -0.0025,0.0052 -0.0042,0.0079 -0.0007,0.0023 -0.0019,0.0097 -0.0034,0.0219 -0.0018,0.0125 -0.0037,0.0299 -0.0057,0.0523 -0.0009,0.0065 -0.0098,0.017 -0.0266,0.0317 -0.0165,0.0147 -0.0277,0.0219 -0.0336,0.0219 -0.0036,-0.0004 -0.006,-0.0014 -0.0071,-0.0031 0,-0.0016 -0.0001,-0.0048 -0.0005,-0.0095 -0.0003,-0.0048 -0.0005,-0.0083 -0.0005,-0.0107l0.0052 -0.0207c-0.0014,-0.012 -0.0028,-0.0239 -0.0042,-0.0353 0,-0.0078 0.0004,-0.0152 0.0009,-0.0222 0.0005,-0.0071 0.001,-0.014 0.0017,-0.0207 0.0021,-0.0078 0.004,-0.014 0.0061,-0.0187 0.001,-0.0034 0.0019,-0.0069 0.0026,-0.0106 0.0006,-0.0037 0.001,-0.0068 0.001,-0.0092 -0.0004,-0.0086 -0.0005,-0.0169 -0.0005,-0.0246 0,0.0017 0,0.0007 0.0001,-0.0031 0.0002,-0.0036 0.0006,-0.0095 0.0009,-0.0176 0.0007,-0.0031 0.001,-0.006 0.001,-0.009 0,-0.0027 0,-0.0058 0,-0.0093 0.0037,-0.0103 0.0062,-0.0203 0.0078,-0.0298 0.0016,-0.0093 0.0016,-0.0185 0.0002,-0.0272z"/>
 </g>
</svg>
