<?xml version="1.0" encoding="UTF-8"?>
<!DOCTYPE svg PUBLIC "-//W3C//DTD SVG 1.1//EN" "http://www.w3.org/Graphics/SVG/1.1/DTD/svg11.dtd">
<!-- Creator: CorelDRAW -->
<svg xmlns="http://www.w3.org/2000/svg" xml:space="preserve" width="105mm" height="148mm" style="shape-rendering:geometricPrecision; text-rendering:geometricPrecision; image-rendering:optimizeQuality; fill-rule:evenodd; clip-rule:evenodd"
viewBox="0 0 105 148"
 xmlns:xlink="http://www.w3.org/1999/xlink">
 <defs>
  <style type="text/css">
   <![CDATA[
    .str0 {stroke:white;stroke-width:0.6773}
    .fil0 {fill:white}
    .fil1 {fill:white;fill-rule:nonzero}
   ]]>
  </style>
 </defs>
 <g id="Layer_x0020_1">
  <metadata id="CorelCorpID_0Corel-Layer"/>
  <path class="fil0 str0" d="M52.5001 25.856c18.5665,0 33.6234,15.0569 33.6234,33.6235 0,18.5666 -15.0569,33.6235 -33.6234,33.6235 -18.5666,0 -33.6234,-15.0569 -33.6234,-33.6235 0,-18.5666 15.0568,-33.6235 33.6234,-33.6235zm0 1.5842c11.378,0 21.3712,5.9343 27.0558,14.8758 -0.9296,-0.3018 -2.0321,-0.4524 -3.3083,-0.4524 -5.0824,0 -9.2294,1.7253 -12.4408,5.176 -2.3459,2.5248 -4.4681,6.4243 -6.3669,11.6984 -0.4189,0.0281 -0.9495,0.0421 -1.5918,0.0421 -2.2342,0 -4.1191,-0.0421 -5.6548,-0.1263 1.787,-5.0497 3.323,-8.0373 4.6074,-8.9632 0.2237,-0.1683 0.3355,-0.3366 0.3355,-0.5049 0,-0.6172 -0.9637,-0.9257 -2.8905,-0.9257 -2.681,0 -5.1594,0.6661 -7.4352,1.9988 -2.2759,1.3325 -4.0421,3.177 -5.2989,5.5337 -0.8378,1.571 -1.2566,3.0157 -1.2566,4.3342 0,2.3846 1.145,4.2222 3.4348,5.5126 0.5864,0.3366 0.9495,0.5331 1.0892,0.5891l0.2095 0c0.3349,0 0.5025,-0.2104 0.5025,-0.6312 0,-0.2805 -0.1258,-0.477 -0.377,-0.589 -1.8431,-0.9259 -2.7647,-2.1742 -2.7647,-3.7452 0,-1.0661 0.3491,-2.4127 1.0474,-4.04 2.1501,-5.0216 5.8225,-7.5745 11.0164,-7.6586 -1.2845,1.2064 -2.4711,3.0859 -3.5603,5.6388 -0.3071,0.7295 -0.9635,2.4687 -1.9688,5.2181 -1.8431,5.0778 -3.6164,8.6547 -5.3197,10.7306 -2.625,3.2261 -6.018,4.8394 -10.1789,4.8394 -3.6987,0 -6.3738,-1.0628 -8.0272,-3.1869 -1.8596,-4.0576 -2.8973,-8.5699 -2.8973,-13.3249 0,-17.6918 14.3474,-32.0393 32.0392,-32.0393zm28.4065 17.2141c2.3193,4.4335 3.6327,9.4762 3.6327,14.8252 0,17.6918 -14.3475,32.0393 -32.0392,32.0393 -11.7858,0 -22.0851,-6.3692 -27.6497,-15.8506 1.9386,1.1689 4.256,1.7537 6.9538,1.7537 4.8311,0 8.8105,-1.8795 11.9381,-5.6389 2.0943,-2.5247 4.0912,-6.4522 5.9903,-11.7825 3.0994,0.0281 5.5291,0.056 7.2884,0.0841l-1.4594 3.9977c-0.642,1.7955 -1.1097,3.2613 -1.3891,4.3976 -0.1955,0.3997 -0.2932,0.6803 -0.2932,0.8554 0,0.4 0.1955,0.5962 0.5865,0.5962 0.1397,0 0.3281,-0.0631 0.5654,-0.1894 0.2373,-0.1262 0.412,-0.1893 0.5236,-0.1893 0.307,0 0.7748,0.0631 1.4034,0.1893 0.6283,0.1263 1.0961,0.1894 1.4031,0.1894 0.6144,0 1.1869,-0.1262 1.7173,-0.3787 0.6704,-0.3085 1.0056,-0.7434 1.0056,-1.3046 0,-0.1962 -0.1397,-0.3645 -0.4189,-0.5049 -0.1118,0 -0.3562,0.1333 -0.7333,0.3997 -0.3767,0.2667 -0.6632,0.4 -0.8585,0.4 -0.3073,0 -0.6843,-0.0421 -1.131,-0.1262l-0.9215 -0.1686c0.4747,-1.4587 0.8657,-2.6089 1.1727,-3.4504l4.2728 -11.9931c0.4189,-1.1784 1.0609,-2.3426 1.9267,-3.4928 3.0439,-4.0678 7.2467,-6.1016 12.6084,-6.1016 1.566,0 2.8671,0.481 3.905,1.444z"/>
  <path class="fil1" d="M14.0747 113.081l0 -14.9656 3.4878 0 0 5.7647 1.8126 0 0 -5.7647 3.4878 0 0 14.9656 -3.4878 0 0 -6.5215 -1.8126 0 0 6.5215 -3.4878 0zm15.0826 -2.8101l0 -1.1282c0,-0.227 -0.0653,-0.4059 -0.196,-0.5332 -0.1307,-0.1272 -0.313,-0.1926 -0.5469,-0.1926 -0.2374,0 -0.4162,0.0654 -0.5435,0.1926 -0.1273,0.1273 -0.1926,0.3062 -0.1926,0.5332l0 1.1282c0,0.2339 0.0653,0.4161 0.1926,0.54 0.1273,0.1238 0.3061,0.1857 0.5435,0.1857 0.2339,0 0.4162,-0.0619 0.5469,-0.1857 0.1307,-0.1239 0.196,-0.3061 0.196,-0.54zm0.1617 2.8101l0 -0.8461c-0.227,0.3714 -0.516,0.6328 -0.8668,0.7911 -0.3474,0.1582 -0.8152,0.2373 -1.3999,0.2373 -0.8874,0 -1.5066,-0.2098 -1.8574,-0.626 -0.3543,-0.4162 -0.5297,-1.1591 -0.5297,-2.2357l0 -1.2796c0,-0.8805 0.203,-1.5306 0.6054,-1.9502 0.4024,-0.4196 1.0284,-0.6294 1.8814,-0.6294 0.3715,0 0.7258,0.0515 1.0697,0.1547 0.3406,0.1067 0.6536,0.258 0.9356,0.4609l0 -1.5615c0,-0.43 -0.0481,-0.7155 -0.1445,-0.8531 -0.0997,-0.1375 -0.2992,-0.2063 -0.5984,-0.2063 -0.289,0 -0.4816,0.0688 -0.5744,0.2063 -0.0929,0.1376 -0.1411,0.4231 -0.1411,0.8531l-2.7104 0 0 -0.7671c0,-0.9665 0.2339,-1.6269 0.7052,-1.9777 0.4712,-0.3474 1.4411,-0.5228 2.9098,-0.5228 1.4653,0 2.4318,0.1754 2.903,0.5228 0.4713,0.3508 0.7052,1.0112 0.7052,1.9777l0 8.2516 -2.8927 0zm5.5962 0l-1.3793 -10.5698 3.0543 0 0.9459 9.0392 1.0388 -9.0392 2.9408 0 -1.4618 9.8234c-0.2821,1.8883 -0.6673,3.13 -1.1523,3.7285 -0.4884,0.5985 -1.2451,0.8978 -2.2735,0.8978 -0.2408,0 -0.4988,-0.0207 -0.7739,-0.0654 -0.2752,-0.0447 -0.5813,-0.1135 -0.9184,-0.2064l0 -2.1463c0.1685,0.0482 0.3199,0.0791 0.454,0.0998 0.1342,0.0206 0.2511,0.0309 0.3543,0.0309 0.4403,0 0.7842,-0.1307 1.0215,-0.3921 0.2374,-0.2614 0.3784,-0.6638 0.4162,-1.2004l-2.2666 0zm12.1107 -2.8101l0 -1.1282c0,-0.227 -0.0653,-0.4059 -0.196,-0.5332 -0.1307,-0.1272 -0.313,-0.1926 -0.5469,-0.1926 -0.2374,0 -0.4162,0.0654 -0.5435,0.1926 -0.1273,0.1273 -0.1926,0.3062 -0.1926,0.5332l0 1.1282c0,0.2339 0.0653,0.4161 0.1926,0.54 0.1273,0.1238 0.3061,0.1857 0.5435,0.1857 0.2339,0 0.4162,-0.0619 0.5469,-0.1857 0.1307,-0.1239 0.196,-0.3061 0.196,-0.54zm0.1617 2.8101l0 -0.8461c-0.227,0.3714 -0.516,0.6328 -0.8668,0.7911 -0.3474,0.1582 -0.8152,0.2373 -1.3999,0.2373 -0.8874,0 -1.5066,-0.2098 -1.8574,-0.626 -0.3543,-0.4162 -0.5297,-1.1591 -0.5297,-2.2357l0 -1.2796c0,-0.8805 0.203,-1.5306 0.6054,-1.9502 0.4024,-0.4196 1.0284,-0.6294 1.8814,-0.6294 0.3715,0 0.7258,0.0515 1.0697,0.1547 0.3406,0.1067 0.6536,0.258 0.9356,0.4609l0 -1.5615c0,-0.43 -0.0481,-0.7155 -0.1445,-0.8531 -0.0997,-0.1375 -0.2992,-0.2063 -0.5984,-0.2063 -0.289,0 -0.4816,0.0688 -0.5744,0.2063 -0.0929,0.1376 -0.1411,0.4231 -0.1411,0.8531l-2.7104 0 0 -0.7671c0,-0.9665 0.2339,-1.6269 0.7052,-1.9777 0.4712,-0.3474 1.4411,-0.5228 2.9098,-0.5228 1.4653,0 2.4318,0.1754 2.903,0.5228 0.4713,0.3508 0.7052,1.0112 0.7052,1.9777l0 8.2516 -2.8927 0zm4.8498 0l0 -15.227 2.9718 0 0 8.9085 1.5925 -4.2513 2.8514 0 -1.6923 4.523 2.2461 6.0468 -3.1644 0 -1.8333 -5.5515 0 5.5515 -2.9718 0zm12.9981 -2.8101l0 -1.1282c0,-0.227 -0.0653,-0.4059 -0.196,-0.5332 -0.1307,-0.1272 -0.313,-0.1926 -0.5469,-0.1926 -0.2374,0 -0.4162,0.0654 -0.5435,0.1926 -0.1273,0.1273 -0.1926,0.3062 -0.1926,0.5332l0 1.1282c0,0.2339 0.0653,0.4161 0.1926,0.54 0.1273,0.1238 0.3061,0.1857 0.5435,0.1857 0.2339,0 0.4162,-0.0619 0.5469,-0.1857 0.1307,-0.1239 0.196,-0.3061 0.196,-0.54zm0.1617 2.8101l0 -0.8461c-0.227,0.3714 -0.516,0.6328 -0.8668,0.7911 -0.3474,0.1582 -0.8152,0.2373 -1.3999,0.2373 -0.8874,0 -1.5066,-0.2098 -1.8574,-0.626 -0.3543,-0.4162 -0.5297,-1.1591 -0.5297,-2.2357l0 -1.2796c0,-0.8805 0.203,-1.5306 0.6054,-1.9502 0.4024,-0.4196 1.0284,-0.6294 1.8814,-0.6294 0.3715,0 0.7258,0.0515 1.0697,0.1547 0.3406,0.1067 0.6536,0.258 0.9356,0.4609l0 -1.5615c0,-0.43 -0.0481,-0.7155 -0.1445,-0.8531 -0.0997,-0.1375 -0.2992,-0.2063 -0.5984,-0.2063 -0.289,0 -0.4816,0.0688 -0.5744,0.2063 -0.0929,0.1376 -0.1411,0.4231 -0.1411,0.8531l-2.7104 0 0 -0.7671c0,-0.9665 0.2339,-1.6269 0.7052,-1.9777 0.4712,-0.3474 1.4411,-0.5228 2.9098,-0.5228 1.4653,0 2.4318,0.1754 2.903,0.5228 0.4713,0.3508 0.7052,1.0112 0.7052,1.9777l0 8.2516 -2.8927 0zm13.1942 -10.5698l1.0903 8.3031 0.9975 -8.3031 2.9409 0 -1.6029 10.5698 -4.2719 0 -1.1385 -8.4442 -1.1179 8.4442 -4.2823 0 -1.6132 -10.5698 2.9512 0 0.9872 8.3031 1.049 -8.3031 4.0106 0zm10.5767 7.7597l0 -1.1282c0,-0.227 -0.0653,-0.4059 -0.196,-0.5332 -0.1307,-0.1272 -0.313,-0.1926 -0.5469,-0.1926 -0.2374,0 -0.4162,0.0654 -0.5435,0.1926 -0.1273,0.1273 -0.1926,0.3062 -0.1926,0.5332l0 1.1282c0,0.2339 0.0653,0.4161 0.1926,0.54 0.1273,0.1238 0.3061,0.1857 0.5435,0.1857 0.2339,0 0.4162,-0.0619 0.5469,-0.1857 0.1307,-0.1239 0.196,-0.3061 0.196,-0.54zm0.1617 2.8101l0 -0.8461c-0.227,0.3714 -0.516,0.6328 -0.8668,0.7911 -0.3474,0.1582 -0.8152,0.2373 -1.3999,0.2373 -0.8874,0 -1.5066,-0.2098 -1.8574,-0.626 -0.3543,-0.4162 -0.5297,-1.1591 -0.5297,-2.2357l0 -1.2796c0,-0.8805 0.203,-1.5306 0.6054,-1.9502 0.4024,-0.4196 1.0284,-0.6294 1.8814,-0.6294 0.3715,0 0.7258,0.0515 1.0697,0.1547 0.3406,0.1067 0.6536,0.258 0.9356,0.4609l0 -1.5615c0,-0.43 -0.0481,-0.7155 -0.1445,-0.8531 -0.0997,-0.1375 -0.2992,-0.2063 -0.5984,-0.2063 -0.289,0 -0.4816,0.0688 -0.5744,0.2063 -0.0929,0.1376 -0.1411,0.4231 -0.1411,0.8531l-2.7104 0 0 -0.7671c0,-0.9665 0.2339,-1.6269 0.7052,-1.9777 0.4712,-0.3474 1.4411,-0.5228 2.9098,-0.5228 1.4653,0 2.4318,0.1754 2.903,0.5228 0.4713,0.3508 0.7052,1.0112 0.7052,1.9777l0 8.2516 -2.8927 0z"/>
  <path class="fil1" d="M43.3162 121.177l0.1857 0.4286c-0.0429,0.035 -0.1381,0.0635 -0.2858,0.0889 -0.1476,0.0239 -0.3397,0.0461 -0.5746,0.0651 -0.2731,0.2667 -0.5445,0.489 -0.816,0.6652 -0.2715,0.1778 -0.5398,0.308 -0.8065,0.3921 -0.0619,0.0175 -0.1333,0.0381 -0.2143,0.0603 -0.0492,0 -0.1032,-0.0111 -0.1619,-0.0301 -0.0603,-0.0207 -0.1254,-0.0492 -0.1968,-0.0873 -0.0731,-0.0461 -0.1318,-0.0905 -0.1715,-0.135 -0.0397,-0.0428 -0.0603,-0.0873 -0.0603,-0.1349 0,-0.0921 0.0444,-0.1826 0.1349,-0.2683 0.0905,-0.0873 0.2223,-0.1699 0.3953,-0.2477 0.3477,-0.1603 0.689,-0.3238 1.0271,-0.4873 0.0492,0 0.0857,0.0095 0.108,0.0301 0.0206,0.0191 0.0317,0.0445 0.0317,0.0762 0,0.0842 -0.0603,0.154 -0.1794,0.2112 -0.119,0.0571 -0.1794,0.0984 -0.1794,0.1238 0.0223,0.0318 0.0413,0.046 0.0572,0.046 0.0397,0 0.1286,-0.0603 0.2667,-0.1809 0.1381,-0.1207 0.2048,-0.1969 0.2016,-0.2286l-0.0222 -0.1064 0.0095 -0.019c0.0794,-0.0715 0.1397,-0.135 0.1778,-0.1905 0.0397,-0.0556 0.0587,-0.1001 0.0587,-0.135 0,-0.0778 -0.0381,-0.181 -0.1158,-0.3111 -0.0778,-0.1302 -0.1937,-0.2874 -0.3493,-0.4699 -0.1175,-0.1429 -0.2349,-0.2699 -0.354,-0.3842 -0.1175,-0.1127 -0.2302,-0.2127 -0.3381,-0.3 -0.0445,-0.0366 -0.081,-0.0731 -0.1128,-0.1096 -0.0301,-0.0349 -0.0555,-0.0682 -0.0746,-0.1 -0.0333,-0.0619 -0.0603,-0.1127 -0.0809,-0.1524 -0.0207,-0.0413 -0.0381,-0.0667 -0.054,-0.0794 -0.0143,-0.019 -0.0349,-0.0412 -0.0619,-0.0666 -0.027,-0.027 -0.0588,-0.0572 -0.0953,-0.0921 -0.0651,-0.0683 -0.1159,-0.1619 -0.1508,-0.2826 -0.0365,-0.1222 -0.054,-0.2715 -0.054,-0.4524 0,-0.1175 0.0159,-0.2318 0.0493,-0.3413 0.0317,-0.1096 0.0793,-0.208 0.1412,-0.2953 0.0096,-0.0191 0.0191,-0.0397 0.0286,-0.0651 0.0095,-0.0254 0.0191,-0.0524 0.0318,-0.0841 0.0714,-0.1461 0.1921,-0.3033 0.3635,-0.4715 0.1699,-0.1699 0.3937,-0.3477 0.6683,-0.5366 0.0381,-0.0191 0.0826,-0.0445 0.135,-0.0746 0.054,-0.0318 0.1127,-0.0715 0.1778,-0.1223 0.0365,-0.0301 0.0778,-0.0587 0.1222,-0.0825 0.0461,-0.0254 0.0984,-0.0492 0.1604,-0.0699 0.0841,-0.0349 0.1793,-0.0714 0.2841,-0.1127 0.1556,-0.0793 0.2842,-0.1381 0.3858,-0.1762 0.1032,-0.0365 0.1794,-0.0555 0.2333,-0.0555 0.1016,0 0.1778,0.0317 0.2302,0.0936 0.0508,0.0619 0.0762,0.1508 0.0762,0.2683 0,0.1318 -0.0095,0.2365 -0.0301,0.3191 -0.0207,0.0825 -0.0477,0.1381 -0.081,0.1651 -0.3667,0.2921 -0.6604,0.5112 -0.8842,0.6588 -0.2223,0.1476 -0.3794,0.2207 -0.4699,0.2207 -0.0429,0 -0.0762,-0.0127 -0.1016,-0.0365 -0.0254,-0.0254 -0.0365,-0.0635 -0.0365,-0.1128 0,-0.0841 0.0682,-0.1762 0.2079,-0.2762 0.1397,-0.1016 0.208,-0.1778 0.2048,-0.2302l-0.0413 -0.0285c-0.0158,0 -0.0333,0.0047 -0.0539,0.0142 -0.0207,0.0096 -0.0413,0.0223 -0.062,0.0366 -0.273,0.2206 -0.4794,0.4191 -0.6159,0.5937 -0.1381,0.1746 -0.208,0.3286 -0.208,0.4588 0,0.1016 0.0175,0.2063 0.054,0.3111 0.0349,0.1048 0.0873,0.2143 0.1556,0.3255 0.0492,0.0777 0.1222,0.1762 0.2159,0.2952 0.0952,0.1191 0.2143,0.2636 0.3603,0.4302 0.2017,0.2334 0.3572,0.4128 0.4652,0.5398 0.1079,0.127 0.1698,0.1937 0.181,0.2 0.0619,0.081 0.1158,0.1619 0.1587,0.2413 0.0429,0.081 0.073,0.1588 0.0889,0.2334 0.0143,0.0587 0.0254,0.1317 0.0318,0.2191 0.0063,0.0857 0.0095,0.192 0.0095,0.3159 0,0.0698 0.0111,0.1095 0.0333,0.1206 0.0207,0.0111 0.0572,0.0159 0.1064,0.0159 0.019,0 0.0333,-0.0032 0.0444,-0.0111 0.0111,-0.008 0.0223,-0.0175 0.035,-0.0302zm-0.0048 0l0.0286 -0.0317 0.0127 -0.0477c0.0841,-0.1143 0.2318,-0.2635 0.4429,-0.4476 0.2096,-0.1842 0.3556,-0.3334 0.4366,-0.4477 0.0317,-0.0492 0.0666,-0.0857 0.1063,-0.108 0.0413,-0.0206 0.081,-0.0317 0.1223,-0.0317 0.1079,0 0.2,0.027 0.273,0.081 0.0746,0.0539 0.1254,0.1365 0.1492,0.2444 0.0223,0.0969 0.0429,0.1937 0.0604,0.2905 0.019,0.0985 0.0349,0.1953 0.0476,0.2953 0.0206,0.0619 0.0476,0.1556 0.0778,0.281 0.0317,0.1254 0.0555,0.1969 0.0698,0.2159 0.0159,0.0302 0.0397,0.0524 0.0699,0.0667 0.0317,0.0143 0.0698,0.0206 0.1175,0.0206 0.0555,0 0.1127,-0.0095 0.1714,-0.0301 0.0587,-0.0207 0.1191,-0.054 0.181,-0.1048 0.0476,-0.0397 0.0952,-0.081 0.1476,-0.1223 0.0508,-0.0428 0.1016,-0.0841 0.1508,-0.1238l0.1858 0.4286c-0.0492,0.0493 -0.1159,0.1064 -0.1985,0.1699 -0.0809,0.0635 -0.1794,0.1365 -0.2952,0.2207 -0.127,0.0936 -0.235,0.1619 -0.3255,0.2079 -0.0889,0.0445 -0.1571,0.0667 -0.2048,0.0667 -0.281,0 -0.4651,-0.0333 -0.5477,-0.0984 -0.0841,-0.0651 -0.1778,-0.2461 -0.2794,-0.5429 -0.0127,-0.0254 -0.0317,-0.0556 -0.0555,-0.0889 -0.0254,-0.035 -0.054,-0.0747 -0.0842,-0.1207 -0.0381,-0.0714 -0.0698,-0.1254 -0.0984,-0.1603 -0.027,-0.0365 -0.0508,-0.054 -0.0698,-0.054 -0.0492,0 -0.1159,0.0333 -0.2001,0.1 -0.0825,0.0667 -0.1857,0.1667 -0.3063,0.3 -0.0159,-0.0396 -0.035,-0.0889 -0.0588,-0.1444 -0.0222,-0.0556 -0.046,-0.1207 -0.0714,-0.1953 -0.0064,-0.019 -0.0143,-0.0365 -0.0238,-0.0524 -0.008,-0.0143 -0.0191,-0.027 -0.0318,-0.0365zm1.9431 -3.6687c0.0778,0 0.135,0.0159 0.1699,0.046 0.0365,0.0318 0.054,0.0762 0.054,0.135 -0.0191,0.0873 -0.0334,0.1603 -0.0461,0.2191 -0.0317,0.1111 -0.0587,0.2032 -0.0825,0.2746 -0.0223,0.0714 -0.0397,0.1222 -0.0524,0.1524 -0.0286,0.0683 -0.0667,0.1286 -0.1143,0.1794 -0.0476,0.0524 -0.1064,0.0968 -0.1746,0.1381 -0.0715,0.0492 -0.1302,0.0841 -0.1794,0.1048 -0.0477,0.019 -0.081,0.0285 -0.1,0.0254 -0.0524,-0.0064 -0.1032,-0.0127 -0.1509,-0.0175 -0.0476,-0.0032 -0.0952,-0.0063 -0.1412,-0.0063 -0.0413,-0.0223 -0.0731,-0.0635 -0.0953,-0.1255 -0.0238,-0.0619 -0.0349,-0.146 -0.0349,-0.2508 0,-0.0936 0.0555,-0.2111 0.1698,-0.3508 0.1128,-0.1413 0.2128,-0.2175 0.3001,-0.227 0.0524,-0.0651 0.1143,-0.1381 0.1857,-0.2223 0.0302,-0.0222 0.0715,-0.0397 0.1207,-0.054 0.0492,-0.0142 0.1063,-0.0206 0.1714,-0.0206zm0.7176 3.6687c0.0191,-0.0222 0.0397,-0.0508 0.0651,-0.0857 0.0254,-0.0365 0.0524,-0.0746 0.0841,-0.1191 0.1366,-0.1698 0.2683,-0.3222 0.3969,-0.4572 0.1286,-0.1349 0.2508,-0.254 0.3651,-0.3603 0.0588,-0.0556 0.1302,-0.127 0.2144,-0.2159 0.0825,-0.0873 0.1809,-0.1889 0.2921,-0.3032 0.1111,-0.0445 0.2349,-0.0937 0.3683,-0.1493 0.0825,0 0.1444,0.027 0.1857,0.081 0.0397,0.054 0.0603,0.1333 0.0603,0.2349 0,0.0874 -0.0079,0.181 -0.0206,0.281 -0.0143,0.1 -0.0334,0.2032 -0.0588,0.3096 -0.0285,0.0825 -0.0508,0.1635 -0.0698,0.2413 0,0.0206 0.0048,0.0381 0.0143,0.0492 0.0095,0.0095 0.0238,0.0159 0.046,0.0159 0.0461,-0.0222 0.1365,-0.1 0.2699,-0.2334 0.1333,-0.1333 0.308,-0.3191 0.5255,-0.5572 0.1857,-0.2048 0.3492,-0.3572 0.4889,-0.4588 0.1381,-0.1 0.2508,-0.1508 0.335,-0.1508 0.0889,0 0.1555,0.0333 0.1968,0.1 0.0413,0.0667 0.0635,0.1651 0.0635,0.2953 0,0.1889 -0.0143,0.3715 -0.0428,0.5461 -0.027,0.1746 -0.0762,0.3429 -0.1445,0.5048 -0.0111,0.0302 -0.0191,0.0572 -0.0222,0.0778 -0.0032,0.0222 -0.0048,0.0429 -0.0048,0.0619 0,0.0207 0.0191,0.0413 0.0556,0.0603 0.0254,-0.0222 0.0539,-0.0539 0.0857,-0.0936 0.0333,-0.0397 0.0714,-0.0921 0.1143,-0.154 0.0714,-0.0587 0.1429,-0.1175 0.2143,-0.1762 0.0714,-0.0588 0.1492,-0.1191 0.2318,-0.181 0.0873,-0.0683 0.1762,-0.1206 0.2651,-0.1556 0.0905,-0.0365 0.1794,-0.0539 0.2651,-0.0539 0.0159,0 0.0318,0.0047 0.0476,0.0142 0.0143,0.0096 0.0302,0.0207 0.0461,0.0318 0.0714,0.0619 0.1301,0.1191 0.1762,0.1699 0.0476,0.0523 0.0794,0.0952 0.0984,0.1333 0.1207,0.2477 0.2286,0.4334 0.3239,0.5556 0.0936,0.1223 0.1762,0.1826 0.2476,0.1826 0.0159,0 0.0318,-0.0032 0.0476,-0.0111 0.0143,-0.008 0.0302,-0.0175 0.0461,-0.0302 0.0714,0.1524 0.1317,0.2953 0.1809,0.4286 -0.1111,0.0874 -0.2111,0.1524 -0.2984,0.1985 -0.0857,0.0444 -0.1619,0.0667 -0.227,0.0667 -0.2143,0 -0.435,-0.1382 -0.6636,-0.416 -0.227,-0.2778 -0.4016,-0.4159 -0.5223,-0.4159 -0.1619,0 -0.4302,0.2365 -0.8048,0.7128 -0.3747,0.4762 -0.6096,0.7144 -0.7017,0.7144 -0.0476,0 -0.1096,-0.0048 -0.1873,-0.0143 -0.0239,-0.0095 -0.0429,-0.0286 -0.0556,-0.0572 -0.0127,-0.0301 -0.0191,-0.0651 -0.0191,-0.1047 0,-0.0477 0.0096,-0.108 0.0286,-0.1842 0.0191,-0.0762 0.0429,-0.1651 0.0746,-0.2667 0.0397,-0.1318 0.0731,-0.2349 0.0969,-0.3127 0.0254,-0.0778 0.0397,-0.1318 0.0428,-0.162 0.0096,-0.0412 0.0223,-0.1206 0.0397,-0.2381 0.0159,-0.1175 0.0397,-0.2746 0.0667,-0.4699 0,-0.0333 -0.0095,-0.0603 -0.027,-0.0778 -0.019,-0.019 -0.0413,-0.0285 -0.0651,-0.0285 -0.0222,0 -0.046,0.0063 -0.073,0.0206 -0.0254,0.0143 -0.0556,0.0365 -0.0905,0.0683 -0.0365,0.0396 -0.0778,0.0793 -0.1238,0.1206 -0.0445,0.0397 -0.1159,0.0968 -0.2159,0.1715 -0.108,0.1238 -0.2191,0.2508 -0.3318,0.3794 -0.1143,0.1286 -0.2286,0.2587 -0.3461,0.3889 -0.1873,0.2159 -0.3349,0.3762 -0.4445,0.481 -0.1111,0.1032 -0.181,0.1556 -0.2111,0.1556 -0.0937,0 -0.1635,-0.0111 -0.2127,-0.0318 -0.0477,-0.0222 -0.0715,-0.0555 -0.0715,-0.0984 0,-0.1016 0.0556,-0.3159 0.1651,-0.6382 0.1096,-0.3238 0.1651,-0.5524 0.1651,-0.6858 0,-0.0222 -0.0079,-0.0396 -0.0206,-0.0539 -0.0143,-0.0143 -0.0318,-0.0207 -0.054,-0.0207 -0.0365,0 -0.081,0.0207 -0.1333,0.0635 -0.0508,0.0413 -0.108,0.1064 -0.1731,0.1969 -0.0444,0.0492 -0.0968,0.1063 -0.1587,0.1714 -0.0619,0.0651 -0.1381,0.1413 -0.227,0.227 -0.0096,0.0254 -0.0223,0.0493 -0.0381,0.0731 -0.0159,0.0222 -0.0318,0.0444 -0.0508,0.0666 -0.0127,-0.046 -0.0334,-0.1047 -0.0651,-0.173 -0.0302,-0.0683 -0.0715,-0.1524 -0.1207,-0.2556zm5.869 0c0.0619,-0.0809 0.1413,-0.1762 0.2397,-0.2905 0.0969,-0.1127 0.2159,-0.2413 0.3556,-0.3858 0.0096,-0.0285 0.0223,-0.0619 0.0365,-0.1 0.0159,-0.0397 0.0397,-0.0889 0.0699,-0.1476 0.1651,-0.2445 0.3127,-0.481 0.4429,-0.7064 0.1302,-0.2271 0.2413,-0.4477 0.335,-0.6604 0.027,-0.054 0.0571,-0.1191 0.0905,-0.1985 0.0317,-0.0794 0.073,-0.1683 0.1222,-0.2667 0.0444,-0.0746 0.0873,-0.1317 0.1286,-0.173 0.0413,-0.0397 0.0825,-0.0603 0.1238,-0.0603 0.0619,0 0.1064,0.0269 0.1365,0.0793 0.0302,0.0524 0.0445,0.135 0.0445,0.2461 0,0.0619 -0.054,0.2635 -0.1604,0.6017 -0.1079,0.3397 -0.2667,0.8191 -0.4778,1.4351 -0.0556,0.1492 -0.1175,0.3571 -0.1857,0.6254 -0.0683,0.2683 -0.1477,0.6033 -0.2366,1.0033 -0.0095,0.0588 -0.019,0.127 -0.0301,0.2048 -0.0111,0.0762 -0.027,0.1667 -0.0492,0.2699 -0.0524,0.1984 -0.0905,0.3556 -0.1112,0.4731 -0.0222,0.119 -0.0317,0.1937 -0.0285,0.2286l0.019 0.0365c0.0159,-0.0095 0.0333,-0.0381 0.0524,-0.0873 0.0206,-0.0508 0.0381,-0.1207 0.054,-0.2143 0.019,-0.0842 0.0333,-0.154 0.0428,-0.2112 0.008,-0.0571 0.0096,-0.1047 0.0032,-0.1428 0.0683,-0.1794 0.1492,-0.4096 0.2429,-0.6906 0.0921,-0.2794 0.2016,-0.6064 0.3254,-0.9779 0.0492,-0.0905 0.1064,-0.2 0.1699,-0.3286 0.0635,-0.1286 0.1302,-0.281 0.2016,-0.4572 0.0714,-0.0683 0.1365,-0.1191 0.1937,-0.1508 0.0571,-0.0334 0.1063,-0.0493 0.146,-0.0493 0.0873,0 0.1683,0.0239 0.2429,0.0699 0.0746,0.046 0.1429,0.1143 0.2048,0.2032 0.0143,0.0222 0.0429,0.0778 0.0857,0.1651 0.0413,0.0889 0.0985,0.208 0.1699,0.3604 0.0397,0.092 0.0825,0.1651 0.1254,0.2159 0.0429,0.0508 0.0857,0.0777 0.1254,0.0809l0.1953 0.4286c-0.0159,0.0032 -0.0572,0.0143 -0.1238,0.0318 -0.0667,0.019 -0.162,0.0397 -0.2858,0.0619l-0.3159 -0.1175c-0.0778,-0.0206 -0.1715,-0.0968 -0.281,-0.227 -0.1111,-0.1302 -0.2,-0.2048 -0.2683,-0.227 -0.0651,0.046 -0.1349,0.1381 -0.2095,0.2746 -0.0746,0.1366 -0.1493,0.3128 -0.227,0.5303 -0.0191,0.0492 -0.0429,0.1032 -0.0731,0.1603 -0.0285,0.0572 -0.0587,0.1222 -0.0905,0.1969 -0.019,0.1174 -0.0396,0.2317 -0.065,0.3397 -0.0397,0.0937 -0.0842,0.2111 -0.1302,0.3556 -0.0461,0.1445 -0.0953,0.3159 -0.1492,0.5143 -0.0143,0.0683 -0.054,0.1699 -0.1175,0.3064 -0.0635,0.1366 -0.1016,0.2397 -0.1143,0.3112 -0.0064,0.0444 -0.0191,0.1016 -0.0397,0.173 -0.0206,0.0715 -0.0508,0.154 -0.0905,0.2508 -0.0714,0.1239 -0.1365,0.2175 -0.1953,0.281 -0.0587,0.0635 -0.1095,0.0953 -0.1492,0.0953 -0.0936,0 -0.1635,-0.0445 -0.2095,-0.135 -0.0461,-0.0904 -0.0699,-0.2238 -0.0699,-0.4 0,-0.2667 0.0159,-0.5588 0.0461,-0.8795 0.0317,-0.3191 0.0777,-0.662 0.1397,-1.0271 0.019,-0.1064 0.0396,-0.2127 0.0603,-0.3207 0.0222,-0.1095 0.0444,-0.2191 0.0651,-0.3302 0.0285,-0.1302 0.0476,-0.2508 0.0587,-0.3588 0.0111,-0.1079 0.0127,-0.2063 0.0064,-0.2921 -0.0302,0.008 -0.0826,0.0477 -0.1556,0.1175 -0.073,0.0699 -0.1651,0.1746 -0.2762,0.3143 -0.0127,-0.046 -0.0334,-0.1047 -0.0651,-0.173 -0.0302,-0.0683 -0.0715,-0.1524 -0.1207,-0.2556zm3.2512 0c0.0286,-0.0301 0.0556,-0.0682 0.0841,-0.1143 0.027,-0.0444 0.0651,-0.0936 0.1112,-0.146l0.3064 -0.2683c0.0127,-0.0095 0.019,-0.0222 0.0206,-0.0381 0.0016,-0.0143 0.0032,-0.0365 0.0032,-0.0635 -0.0032,-0.0413 -0.008,-0.073 -0.0143,-0.0984 0,-0.0715 0.0143,-0.1905 0.0413,-0.3588 0.0285,-0.1667 0.0539,-0.2667 0.0746,-0.3016l-0.027 -0.0889c0.0397,-0.2064 0.0968,-0.4334 0.1699,-0.6811 0.073,-0.246 0.1555,-0.5127 0.2476,-0.8017 0.0318,-0.0492 0.0635,-0.1127 0.0984,-0.1889 0.0334,-0.0762 0.0731,-0.1619 0.1159,-0.2572 0.0524,-0.1619 0.1223,-0.3302 0.2096,-0.508 0.0873,-0.1762 0.1841,-0.3571 0.2937,-0.5429 0.1444,-0.246 0.2746,-0.4302 0.3873,-0.554 0.1127,-0.1238 0.2143,-0.1858 0.3048,-0.1858 0.1794,0 0.3032,0.035 0.3699,0.1048 0.0667,0.0699 0.1,0.2 0.1,0.3921 0,0.0508 -0.0079,0.127 -0.0254,0.2302 -0.0175,0.1048 -0.0254,0.1826 -0.0254,0.235 0,0.0539 -0.0175,0.127 -0.0508,0.2238 -0.0349,0.0953 -0.0524,0.1842 -0.0524,0.2651 -0.0032,0.0254 -0.0111,0.0492 -0.0222,0.0746l0.0048 0.0651c-0.0127,0.0429 -0.0318,0.0953 -0.0572,0.1572 -0.0238,0.0619 -0.0571,0.1365 -0.0968,0.2238 -0.0223,0.0778 -0.0492,0.1667 -0.0842,0.2699 -0.0333,0.1016 -0.0746,0.2143 -0.1206,0.335 -0.0191,0.0301 -0.0429,0.0682 -0.0715,0.1143 -0.0301,0.0444 -0.0619,0.0952 -0.0952,0.1508 -0.0095,0.0397 -0.0254,0.0857 -0.0476,0.1397 -0.0207,0.0524 -0.0508,0.1143 -0.0873,0.1857 -0.0191,0.0365 -0.0445,0.0778 -0.0747,0.1207 -0.0317,0.0428 -0.0682,0.0984 -0.1127,0.1666 -0.0174,0.0318 -0.0381,0.0699 -0.0603,0.1175 -0.0206,0.0461 -0.046,0.0984 -0.0746,0.1572 -0.0333,0.0524 -0.0778,0.1175 -0.1349,0.1952 -0.0556,0.0778 -0.1191,0.1699 -0.1905,0.2747 -0.0953,0.1714 -0.1953,0.3334 -0.2969,0.4889 0,0.3001 0.0587,0.5271 0.1794,0.6811 0.119,0.1524 0.2984,0.2302 0.5366,0.2302 0.0158,0 0.0619,-0.0112 0.1397,-0.0334 0.0777,-0.0206 0.1841,-0.0555 0.3206,-0.1016 0.0397,-0.0254 0.0889,-0.0603 0.1445,-0.1063 0.0556,-0.0445 0.1191,-0.0985 0.1905,-0.1604l0.181 0.4286c-0.081,0.0715 -0.162,0.1445 -0.2413,0.2191 -0.081,0.0746 -0.1635,0.1477 -0.2477,0.2191 -0.0952,0.0794 -0.1937,0.1413 -0.2921,0.1826 -0.1,0.0428 -0.1968,0.0635 -0.2937,0.0635 -0.0492,0 -0.1254,-0.0048 -0.227,-0.0159 -0.1032,-0.0111 -0.1794,-0.0175 -0.2333,-0.0175 -0.1731,0 -0.316,-0.0698 -0.4303,-0.2079 -0.1127,-0.1397 -0.192,-0.3493 -0.2381,-0.6287 -0.0063,-0.0286 -0.0159,-0.0524 -0.027,-0.0746 -0.0095,-0.0222 -0.0301,-0.046 -0.0571,-0.0746 -0.0413,0.0397 -0.0873,0.0889 -0.1413,0.1444 -0.0556,0.0556 -0.1207,0.1191 -0.1984,0.1905l-0.1858 -0.4286zm2.2178 -3.6496l-0.0318 -0.0175c-0.1746,0.1667 -0.3048,0.3254 -0.3937,0.4747 -0.0873,0.1476 -0.1318,0.2921 -0.1318,0.4318 0,0.0222 -0.0111,0.0587 -0.0301,0.1095 -0.0207,0.0508 -0.0508,0.1159 -0.0905,0.1968 -0.0508,0.0969 -0.1016,0.2017 -0.154,0.316 -0.0587,0.1746 -0.1048,0.3159 -0.1349,0.4238 -0.0318,0.108 -0.0461,0.1858 -0.0461,0.2318l0.027 0.0381c0.0286,-0.0032 0.0619,-0.0318 0.1032,-0.0841 0.0397,-0.0524 0.0857,-0.1302 0.1397,-0.2318 0.0238,-0.0556 0.0603,-0.1207 0.1064,-0.1953 0.046,-0.0746 0.0984,-0.1635 0.1587,-0.2651 0.0492,-0.0683 0.1286,-0.2445 0.2366,-0.5255 0.1079,-0.2825 0.1666,-0.4619 0.1762,-0.5397 0.0031,-0.0619 0.0127,-0.1238 0.0254,-0.1842 0.0143,-0.0603 0.027,-0.119 0.0397,-0.1793zm0.4048 3.6496c0.0714,-0.0746 0.181,-0.1635 0.327,-0.2683 0.1477,-0.1063 0.2572,-0.1921 0.3287,-0.2603 0.046,-0.0556 0.1063,-0.1238 0.1809,-0.2016 0.0746,-0.0794 0.1635,-0.1731 0.2651,-0.2826 0.062,-0.0556 0.1223,-0.0984 0.181,-0.1302 0.0588,-0.0301 0.1175,-0.046 0.1778,-0.046 0.073,0 0.1318,0.019 0.1731,0.0555 0.0428,0.0381 0.0635,0.0969 0.0635,0.1763 0,0.1222 -0.0461,0.3175 -0.1397,0.5873 -0.0937,0.2683 -0.1397,0.4731 -0.1397,0.6128 0,0.0318 0.0079,0.0524 0.0206,0.0651 0.0143,0.0127 0.0302,0.019 0.0492,0.019l0.0238 -0.0047c0.0588,-0.0365 0.127,-0.0842 0.2064,-0.1413 0.0794,-0.0587 0.1683,-0.1286 0.2667,-0.2127 0.081,-0.0746 0.181,-0.1715 0.3,-0.2921 0.1207,-0.1207 0.2604,-0.2604 0.4207,-0.4191 0.0635,-0.0492 0.1334,-0.1127 0.2127,-0.1905 0.0794,-0.0778 0.1683,-0.1699 0.2667,-0.2794 0.0413,-0.0556 0.0969,-0.0985 0.1699,-0.1302 0.073,-0.0302 0.1619,-0.046 0.2683,-0.046 0.0698,0 0.1238,0.0127 0.1603,0.0396 0.035,0.0254 0.0524,0.0651 0.0524,0.1191 0,0.0206 -0.0016,0.0413 -0.0063,0.0619 -0.0048,0.0207 -0.0096,0.0397 -0.0111,0.0588 -0.0223,0.092 -0.0556,0.2063 -0.0985,0.3413 -0.0428,0.1349 -0.0968,0.2937 -0.1587,0.4762 -0.0524,0.1159 -0.1064,0.2524 -0.1651,0.4128 -0.0572,0.1587 -0.1175,0.3349 -0.1826,0.527l0.0318 0.0413c0.0651,-0.0302 0.1619,-0.1048 0.2921,-0.2207 0.1286,-0.1159 0.2905,-0.273 0.4857,-0.4683l0.1858 0.4286c-0.0254,0.0254 -0.0556,0.0556 -0.0905,0.0905 -0.0365,0.0365 -0.0826,0.0746 -0.1413,0.1143 -0.3318,0.235 -0.6175,0.4683 -0.8541,0.7001 -0.2365,0.2302 -0.4254,0.4588 -0.5651,0.6858 -0.208,0.3413 -0.381,0.6192 -0.5175,0.8319 -0.1382,0.2143 -0.2382,0.3651 -0.3001,0.4524 -0.2143,0.281 -0.4175,0.4906 -0.6096,0.6271 -0.1921,0.1365 -0.3794,0.2048 -0.562,0.2048 -0.0682,0 -0.119,-0.0143 -0.1492,-0.0413 -0.0317,-0.0286 -0.0476,-0.0714 -0.0476,-0.1302 0,-0.0317 0.0079,-0.0698 0.0238,-0.1175 0.0159,-0.046 0.0429,-0.0952 0.0841,-0.1476 0.0588,-0.0841 0.1128,-0.1714 0.162,-0.2603l0.1397 -0.1223c0.0127,-0.0397 0.019,-0.0682 0.019,-0.0825 0.0127,-0.0159 0.0302,-0.035 0.0524,-0.0556 0.0238,-0.0222 0.0508,-0.0476 0.0826,-0.0746 0.0206,-0.0556 0.0793,-0.1492 0.1746,-0.2778 0.0936,-0.1286 0.227,-0.2937 0.3969,-0.4953 0.127,-0.1477 0.2428,-0.281 0.3492,-0.3969 0.1048,-0.1159 0.1953,-0.2143 0.2699,-0.2953 0.0111,-0.0254 0.0254,-0.0539 0.0397,-0.0889 0.0127,-0.0333 0.0254,-0.0682 0.0349,-0.1016 0.0397,-0.0809 0.0841,-0.1778 0.1318,-0.2937 0.0476,-0.1143 0.1063,-0.2492 0.1746,-0.4048 0.0301,-0.0889 0.0571,-0.1921 0.0794,-0.308 0.0206,-0.1174 0.0412,-0.2428 0.0603,-0.3794 -0.0064,-0.0127 -0.0111,-0.0285 -0.0127,-0.0492 -0.0016,-0.0206 -0.008,-0.0492 -0.0207,-0.0857 -0.0555,0.0286 -0.1158,0.0698 -0.1825,0.1254 -0.0667,0.0556 -0.1397,0.1207 -0.2175,0.1953 -0.1016,0.1333 -0.2064,0.2444 -0.3112,0.3333 -0.1047,0.0874 -0.2095,0.1556 -0.3111,0.2017 -0.0683,0.1333 -0.1556,0.2317 -0.2635,0.2952 -0.1064,0.0635 -0.2302,0.0953 -0.3699,0.0953 -0.1016,0 -0.1794,-0.0238 -0.2318,-0.0715 -0.0524,-0.0492 -0.0794,-0.1222 -0.0794,-0.2222 0,-0.0175 0.0016,-0.0413 0.0064,-0.0699 0.0047,-0.0269 0.0127,-0.0603 0.0222,-0.0968 -0.0127,-0.0317 -0.0286,-0.0746 -0.0476,-0.1302 0.0127,-0.0524 0.0238,-0.1127 0.0333,-0.1778 0,-0.092 -0.0079,-0.1619 -0.0206,-0.2079 -0.0143,-0.0477 -0.0365,-0.0699 -0.0683,-0.0699l-0.019 0.008c-0.0334,0.0254 -0.081,0.0619 -0.1429,0.1127 -0.0619,0.0492 -0.1365,0.1095 -0.2238,0.1809 -0.0159,-0.0396 -0.035,-0.0889 -0.0588,-0.1444 -0.0222,-0.0556 -0.046,-0.1207 -0.0714,-0.1953 -0.0064,-0.019 -0.0143,-0.0365 -0.0238,-0.0524 -0.008,-0.0143 -0.0191,-0.027 -0.0318,-0.0365zm8.3519 -4.6339c0.0318,-0.054 0.0778,-0.0952 0.1382,-0.1286 0.0603,-0.0333 0.1285,-0.0619 0.2063,-0.0857 0.0397,-0.0476 0.0921,-0.1016 0.154,-0.1635 0.0175,-0.0191 0.0445,-0.0381 0.0762,-0.0572 0.0334,-0.0206 0.0699,-0.0397 0.1096,-0.0587 0.0619,-0.0254 0.1158,-0.0476 0.1635,-0.0699 0.0698,0 0.1238,0.054 0.1619,0.1636 0.0365,0.1079 0.0556,0.2698 0.0556,0.4873 0,0.3318 -0.0207,0.6334 -0.0635,0.9049 -0.0413,0.2715 -0.1032,0.5112 -0.1874,0.7175 -0.0095,0.0254 -0.019,0.054 -0.0301,0.0842 -0.0111,0.0317 -0.0238,0.0651 -0.0397,0.1032 -0.0095,0.0555 -0.0222,0.1206 -0.0397,0.1952 -0.0175,0.0731 -0.0365,0.1604 -0.0587,0.2604 -0.0064,0.0333 -0.0096,0.073 -0.0112,0.1175 -0.0015,0.046 -0.0079,0.1 -0.0206,0.1651 -0.0063,0.0412 -0.0254,0.1095 -0.0556,0.2079 -0.0317,0.0969 -0.0777,0.2223 -0.1397,0.3731l0.0175 0.1032c-0.0238,0.0873 -0.0571,0.1936 -0.1,0.3206 -0.0413,0.127 -0.0921,0.2731 -0.1508,0.4366 -0.0191,0.081 -0.0461,0.1778 -0.0842,0.2905 -0.0365,0.1143 -0.0809,0.2445 -0.1333,0.3937 -0.0095,0.081 -0.0191,0.1508 -0.0286,0.2096 -0.0063,0.0238 -0.027,0.0905 -0.0603,0.2 -0.0349,0.1079 -0.0905,0.2588 -0.1683,0.4508 -0.0206,0.0524 -0.0603,0.1016 -0.1175,0.1461 -0.0587,0.0444 -0.1365,0.0873 -0.2349,0.1286 -0.0841,0.0333 -0.1635,0.0603 -0.2397,0.0778 -0.0762,0.019 -0.1492,0.0285 -0.2159,0.0285 -0.1032,0 -0.1921,-0.0222 -0.2651,-0.0666 -0.0746,-0.0461 -0.1286,-0.1096 -0.1635,-0.1937 -0.1207,-0.2985 -0.2096,-0.535 -0.2668,-0.7144 -0.0571,-0.1778 -0.0841,-0.2953 -0.0809,-0.3508 -0.0159,-0.027 -0.0381,-0.0778 -0.0683,-0.1492 -0.0286,-0.0715 -0.0587,-0.1683 -0.0905,-0.2921 -0.0317,-0.1128 -0.0539,-0.2064 -0.0682,-0.2842 -0.0127,-0.0778 -0.0207,-0.1381 -0.0207,-0.181 0,-0.2016 0.0159,-0.3524 0.0477,-0.454 0.0301,-0.1 0.0762,-0.1508 0.1397,-0.1508 0.1079,0 0.2016,0.0159 0.281,0.046 0.0793,0.0318 0.146,0.0746 0.2016,0.1302 0.0317,0.0381 0.0651,0.0952 0.1,0.173 0.0365,0.0778 0.0762,0.1762 0.1238,0.2969 0.0619,0.1397 0.108,0.2524 0.1365,0.3397 0.0302,0.0873 0.0445,0.1445 0.0445,0.1715 0,0.0571 -0.0381,0.1063 -0.1143,0.1524 -0.0762,0.0444 -0.1143,0.0857 -0.1143,0.1222 0.0286,0.054 0.0524,0.108 0.073,0.1635 0.0206,0.0556 0.0413,0.1064 0.0619,0.1524 0.0349,0.0842 0.0699,0.1461 0.1048,0.1842 0.0365,0.0397 0.073,0.0587 0.1095,0.0587 0.0492,0 0.1064,-0.0698 0.1699,-0.2095 0.0635,-0.1397 0.1333,-0.3509 0.2064,-0.6319 0.0603,-0.2079 0.1111,-0.3968 0.1571,-0.5683 0.0445,-0.1699 0.0778,-0.327 0.1,-0.4683 0.0207,-0.0603 0.0445,-0.1302 0.0699,-0.2127 0.0238,-0.081 0.0524,-0.1794 0.0825,-0.2953 0.0096,-0.0238 0.0159,-0.054 0.0159,-0.0905 0.0016,-0.0349 0.008,-0.0778 0.0175,-0.127 0.0238,-0.1556 0.0508,-0.3127 0.0809,-0.4731 0.0302,-0.1587 0.0588,-0.3175 0.0858,-0.4762 0.0317,-0.1858 0.0524,-0.3588 0.0651,-0.5175 0.0127,-0.1604 0.019,-0.3064 0.019,-0.4398 0,-0.1111 -0.0762,-0.1778 -0.2286,-0.2 -0.1508,-0.0222 -0.227,-0.0572 -0.227,-0.108 0,-0.0428 0.027,-0.0936 0.0794,-0.1508 0.0524,-0.0571 0.1301,-0.119 0.2317,-0.1873z"/>
  <path class="fil1" d="M67.1384 120.972l0.4223 -0.2778c0.0159,-0.0159 0.0349,-0.0365 0.0556,-0.0635 0.0222,-0.0254 0.0476,-0.0635 0.0746,-0.1127 0.0222,-0.0413 0.0508,-0.0746 0.0873,-0.1032 0.0349,-0.027 0.0762,-0.0524 0.1222,-0.0746 0.0254,-0.0302 0.0604,-0.0698 0.108,-0.1159 0.046,-0.046 0.1048,-0.1 0.1762,-0.1619 0.0333,-0.0191 0.0778,-0.046 0.1302,-0.0826 0.0524,-0.0349 0.1095,-0.0825 0.1714,-0.1412 0.2826,-0.2667 0.5303,-0.4668 0.743,-0.6001 0.2111,-0.1334 0.3905,-0.2 0.5366,-0.2 0.0809,0 0.1397,0.0174 0.1793,0.0508 0.0381,0.0349 0.0572,0.0825 0.0572,0.1444 0,0.0651 -0.0111,0.1223 -0.0349,0.1715 -0.0223,0.0508 -0.0588,0.092 -0.108,0.127 -0.0778,0.0555 -0.1619,0.1174 -0.2524,0.1857 -0.0492,0.0651 -0.1095,0.1334 -0.181,0.2064 -0.0714,0.073 -0.1555,0.1444 -0.2508,0.2159 -0.0317,0.0413 -0.0571,0.0762 -0.0794,0.1079 -0.0158,0.0143 -0.0444,0.0429 -0.0889,0.0826 -0.0428,0.0413 -0.1,0.0873 -0.1714,0.1397 -0.0318,0.0682 -0.0984,0.1571 -0.2016,0.2651 -0.1048,0.1095 -0.2429,0.2397 -0.4175,0.3905 -0.0207,0.0222 -0.0604,0.0715 -0.1159,0.1492 -0.0556,0.0778 -0.1286,0.1794 -0.2191,0.308l0.0333 0.0413c0.0683,-0.0222 0.1397,-0.0587 0.2143,-0.1111 0.0731,-0.054 0.1556,-0.1239 0.2461,-0.2096 0.1048,-0.0968 0.1905,-0.1746 0.2572,-0.2349 0.0667,-0.0604 0.1143,-0.1 0.1429,-0.1191 0.0206,-0.0127 0.0428,-0.0254 0.065,-0.0365 0.0207,-0.0127 0.0461,-0.0286 0.0731,-0.0476 0.1428,-0.1699 0.2762,-0.2969 0.4016,-0.3779 0.1238,-0.0825 0.2381,-0.1238 0.3429,-0.1238 0.0667,0 0.1159,0.0254 0.1492,0.0762 0.035,0.0524 0.054,0.1286 0.0604,0.2302 -0.0064,0.1556 -0.008,0.3048 -0.008,0.4477 -0.0032,0.0984 0.0238,0.1873 0.081,0.2667 0.0571,0.0794 0.1317,0.119 0.2254,0.119 0.0286,0 0.0556,-0.0079 0.081,-0.0238 0.027,-0.0158 0.0539,-0.0349 0.0825,-0.0603 0.0207,-0.0286 0.0413,-0.054 0.0619,-0.0794 0.0207,-0.0254 0.0413,-0.0492 0.0635,-0.0746 0.0127,-0.0063 0.0302,-0.0174 0.0524,-0.0333 0.0238,-0.0159 0.0461,-0.0334 0.0683,-0.0556 0.0428,0.0937 0.0794,0.1746 0.1095,0.2445 0.0286,0.0698 0.0508,0.1318 0.0667,0.1841 -0.0714,0.0651 -0.1413,0.1334 -0.2111,0.2017 -0.0699,0.0698 -0.1445,0.1365 -0.2207,0.1984 -0.0937,0.0714 -0.1842,0.1254 -0.2699,0.1603 -0.0873,0.0365 -0.1746,0.054 -0.2603,0.054 -0.2016,0 -0.3572,-0.0571 -0.4652,-0.1714 -0.1095,-0.1159 -0.173,-0.289 -0.1905,-0.5223 0,-0.027 -0.0047,-0.0556 -0.0127,-0.0858 -0.0079,-0.0285 -0.0238,-0.0587 -0.0492,-0.0904 -0.0143,0.0158 -0.0317,0.0317 -0.0508,0.0492 -0.019,0.0174 -0.0397,0.0397 -0.0651,0.0666 -0.0397,0.0318 -0.0905,0.0699 -0.1508,0.1175 -0.0603,0.0461 -0.1317,0.1016 -0.2111,0.1667 -0.1096,0.1111 -0.2,0.2032 -0.2747,0.2746 -0.0746,0.0715 -0.127,0.1223 -0.1587,0.154 -0.0619,0.0524 -0.1334,0.1048 -0.2159,0.1572 -0.0826,0.0524 -0.1746,0.1079 -0.2778,0.1635 -0.0651,0.0333 -0.1207,0.0603 -0.1667,0.081 -0.046,0.0206 -0.081,0.0301 -0.1032,0.0301 -0.1476,0 -0.2588,-0.0365 -0.3302,-0.1095 -0.0714,-0.073 -0.1064,-0.1857 -0.1064,-0.3366 0,-0.0841 0.0175,-0.1635 0.054,-0.2397 0.0349,-0.0762 0.0889,-0.1508 0.1604,-0.2206 0.0063,-0.0413 0.0095,-0.0731 0.0095,-0.0985 0,-0.0158 -0.0032,-0.0317 -0.0111,-0.0492 -0.008,-0.0158 -0.0191,-0.0349 -0.0302,-0.0571 -0.0191,-0.0429 -0.0397,-0.0921 -0.0635,-0.1477 -0.0222,-0.0539 -0.0476,-0.1127 -0.0762,-0.1746 0.0127,-0.0127 0.0302,-0.0365 0.054,-0.0714 0.0222,-0.0365 0.0492,-0.081 0.0809,-0.1334zm3.4274 0.2048c0.0619,-0.0809 0.1413,-0.1762 0.2397,-0.2905 0.0969,-0.1127 0.2159,-0.2413 0.3556,-0.3858 0.0096,-0.0285 0.0223,-0.0619 0.0365,-0.1 0.0159,-0.0397 0.0397,-0.0889 0.0699,-0.1476 0.1651,-0.2445 0.3127,-0.481 0.4429,-0.7064 0.1302,-0.2271 0.2413,-0.4477 0.335,-0.6604 0.027,-0.054 0.0571,-0.1191 0.0905,-0.1985 0.0317,-0.0794 0.073,-0.1683 0.1222,-0.2667 0.0444,-0.0746 0.0873,-0.1317 0.1286,-0.173 0.0413,-0.0397 0.0825,-0.0603 0.1238,-0.0603 0.0619,0 0.1064,0.0269 0.1365,0.0793 0.0302,0.0524 0.0445,0.135 0.0445,0.2461 0,0.0619 -0.054,0.2635 -0.1604,0.6017 -0.1079,0.3397 -0.2667,0.8191 -0.4778,1.4351 -0.0556,0.1492 -0.1175,0.3571 -0.1857,0.6254 -0.0683,0.2683 -0.1477,0.6033 -0.2366,1.0033 -0.0095,0.0588 -0.019,0.127 -0.0301,0.2048 -0.0111,0.0762 -0.027,0.1667 -0.0492,0.2699 -0.0524,0.1984 -0.0905,0.3556 -0.1112,0.4731 -0.0222,0.119 -0.0317,0.1937 -0.0285,0.2286l0.019 0.0365c0.0159,-0.0095 0.0333,-0.0381 0.0524,-0.0873 0.0206,-0.0508 0.0381,-0.1207 0.054,-0.2143 0.019,-0.0842 0.0333,-0.154 0.0428,-0.2112 0.008,-0.0571 0.0096,-0.1047 0.0032,-0.1428 0.0683,-0.1794 0.1492,-0.4096 0.2429,-0.6906 0.0921,-0.2794 0.2016,-0.6064 0.3254,-0.9779 0.0492,-0.0905 0.1064,-0.2 0.1699,-0.3286 0.0635,-0.1286 0.1302,-0.281 0.2016,-0.4572 0.0714,-0.0683 0.1365,-0.1191 0.1937,-0.1508 0.0571,-0.0334 0.1063,-0.0493 0.146,-0.0493 0.0873,0 0.1683,0.0239 0.2429,0.0699 0.0746,0.046 0.1429,0.1143 0.2048,0.2032 0.0143,0.0222 0.0429,0.0778 0.0857,0.1651 0.0413,0.0889 0.0985,0.208 0.1699,0.3604 0.0397,0.092 0.0825,0.1651 0.1254,0.2159 0.0429,0.0508 0.0857,0.0777 0.1254,0.0809l0.1953 0.4286c-0.0159,0.0032 -0.0572,0.0143 -0.1238,0.0318 -0.0667,0.019 -0.162,0.0397 -0.2858,0.0619l-0.3159 -0.1175c-0.0778,-0.0206 -0.1715,-0.0968 -0.281,-0.227 -0.1111,-0.1302 -0.2,-0.2048 -0.2683,-0.227 -0.0651,0.046 -0.1349,0.1381 -0.2095,0.2746 -0.0746,0.1366 -0.1493,0.3128 -0.227,0.5303 -0.0191,0.0492 -0.0429,0.1032 -0.0731,0.1603 -0.0285,0.0572 -0.0587,0.1222 -0.0905,0.1969 -0.019,0.1174 -0.0396,0.2317 -0.065,0.3397 -0.0397,0.0937 -0.0842,0.2111 -0.1302,0.3556 -0.0461,0.1445 -0.0953,0.3159 -0.1492,0.5143 -0.0143,0.0683 -0.054,0.1699 -0.1175,0.3064 -0.0635,0.1366 -0.1016,0.2397 -0.1143,0.3112 -0.0064,0.0444 -0.0191,0.1016 -0.0397,0.173 -0.0206,0.0715 -0.0508,0.154 -0.0905,0.2508 -0.0714,0.1239 -0.1365,0.2175 -0.1953,0.281 -0.0587,0.0635 -0.1095,0.0953 -0.1492,0.0953 -0.0936,0 -0.1635,-0.0445 -0.2095,-0.135 -0.0461,-0.0904 -0.0699,-0.2238 -0.0699,-0.4 0,-0.2667 0.0159,-0.5588 0.0461,-0.8795 0.0317,-0.3191 0.0777,-0.662 0.1397,-1.0271 0.019,-0.1064 0.0396,-0.2127 0.0603,-0.3207 0.0222,-0.1095 0.0444,-0.2191 0.0651,-0.3302 0.0285,-0.1302 0.0476,-0.2508 0.0587,-0.3588 0.0111,-0.1079 0.0127,-0.2063 0.0064,-0.2921 -0.0302,0.008 -0.0826,0.0477 -0.1556,0.1175 -0.073,0.0699 -0.1651,0.1746 -0.2762,0.3143 -0.0127,-0.046 -0.0334,-0.1047 -0.0651,-0.173 -0.0302,-0.0683 -0.0715,-0.1524 -0.1207,-0.2556zm3.4004 -0.2048l0.4223 -0.2778c0.0159,-0.0159 0.0349,-0.0365 0.0556,-0.0635 0.0222,-0.0254 0.0476,-0.0635 0.0746,-0.1127 0.0222,-0.0413 0.0508,-0.0746 0.0873,-0.1032 0.0349,-0.027 0.0762,-0.0524 0.1222,-0.0746 0.0254,-0.0302 0.0604,-0.0698 0.108,-0.1159 0.046,-0.046 0.1048,-0.1 0.1762,-0.1619 0.0333,-0.0191 0.0778,-0.046 0.1302,-0.0826 0.0524,-0.0349 0.1095,-0.0825 0.1714,-0.1412 0.2826,-0.2667 0.5303,-0.4668 0.743,-0.6001 0.2111,-0.1334 0.3905,-0.2 0.5366,-0.2 0.0809,0 0.1397,0.0174 0.1793,0.0508 0.0381,0.0349 0.0572,0.0825 0.0572,0.1444 0,0.0651 -0.0111,0.1223 -0.0349,0.1715 -0.0223,0.0508 -0.0588,0.092 -0.108,0.127 -0.0778,0.0555 -0.1619,0.1174 -0.2524,0.1857 -0.0492,0.0651 -0.1095,0.1334 -0.181,0.2064 -0.0714,0.073 -0.1555,0.1444 -0.2508,0.2159 -0.0317,0.0413 -0.0571,0.0762 -0.0794,0.1079 -0.0158,0.0143 -0.0444,0.0429 -0.0889,0.0826 -0.0428,0.0413 -0.1,0.0873 -0.1714,0.1397 -0.0318,0.0682 -0.0984,0.1571 -0.2016,0.2651 -0.1048,0.1095 -0.2429,0.2397 -0.4175,0.3905 -0.0207,0.0222 -0.0604,0.0715 -0.1159,0.1492 -0.0556,0.0778 -0.1286,0.1794 -0.2191,0.308l0.0333 0.0413c0.0683,-0.0222 0.1397,-0.0587 0.2143,-0.1111 0.0731,-0.054 0.1556,-0.1239 0.2461,-0.2096 0.1048,-0.0968 0.1905,-0.1746 0.2572,-0.2349 0.0667,-0.0604 0.1143,-0.1 0.1429,-0.1191 0.0206,-0.0127 0.0428,-0.0254 0.065,-0.0365 0.0207,-0.0127 0.0461,-0.0286 0.0731,-0.0476 0.1428,-0.1699 0.2762,-0.2969 0.4016,-0.3779 0.1238,-0.0825 0.2381,-0.1238 0.3429,-0.1238 0.0667,0 0.1159,0.0254 0.1492,0.0762 0.035,0.0524 0.054,0.1286 0.0604,0.2302 -0.0064,0.1556 -0.008,0.3048 -0.008,0.4477 -0.0032,0.0984 0.0238,0.1873 0.081,0.2667 0.0571,0.0794 0.1317,0.119 0.2254,0.119 0.0286,0 0.0556,-0.0079 0.081,-0.0238 0.027,-0.0158 0.0539,-0.0349 0.0825,-0.0603 0.0207,-0.0286 0.0413,-0.054 0.0619,-0.0794 0.0207,-0.0254 0.0413,-0.0492 0.0635,-0.0746 0.0127,-0.0063 0.0302,-0.0174 0.0524,-0.0333 0.0238,-0.0159 0.0461,-0.0334 0.0683,-0.0556 0.0428,0.0937 0.0794,0.1746 0.1095,0.2445 0.0286,0.0698 0.0508,0.1318 0.0667,0.1841 -0.0714,0.0651 -0.1413,0.1334 -0.2111,0.2017 -0.0699,0.0698 -0.1445,0.1365 -0.2207,0.1984 -0.0937,0.0714 -0.1842,0.1254 -0.2699,0.1603 -0.0873,0.0365 -0.1746,0.054 -0.2603,0.054 -0.2016,0 -0.3572,-0.0571 -0.4652,-0.1714 -0.1095,-0.1159 -0.173,-0.289 -0.1905,-0.5223 0,-0.027 -0.0047,-0.0556 -0.0127,-0.0858 -0.0079,-0.0285 -0.0238,-0.0587 -0.0492,-0.0904 -0.0143,0.0158 -0.0317,0.0317 -0.0508,0.0492 -0.019,0.0174 -0.0397,0.0397 -0.0651,0.0666 -0.0397,0.0318 -0.0905,0.0699 -0.1508,0.1175 -0.0603,0.0461 -0.1317,0.1016 -0.2111,0.1667 -0.1096,0.1111 -0.2,0.2032 -0.2747,0.2746 -0.0746,0.0715 -0.127,0.1223 -0.1587,0.154 -0.0619,0.0524 -0.1334,0.1048 -0.2159,0.1572 -0.0826,0.0524 -0.1746,0.1079 -0.2778,0.1635 -0.0651,0.0333 -0.1207,0.0603 -0.1667,0.081 -0.046,0.0206 -0.081,0.0301 -0.1032,0.0301 -0.1476,0 -0.2588,-0.0365 -0.3302,-0.1095 -0.0714,-0.073 -0.1064,-0.1857 -0.1064,-0.3366 0,-0.0841 0.0175,-0.1635 0.054,-0.2397 0.0349,-0.0762 0.0889,-0.1508 0.1604,-0.2206 0.0063,-0.0413 0.0095,-0.0731 0.0095,-0.0985 0,-0.0158 -0.0032,-0.0317 -0.0111,-0.0492 -0.008,-0.0158 -0.0191,-0.0349 -0.0302,-0.0571 -0.0191,-0.0429 -0.0397,-0.0921 -0.0635,-0.1477 -0.0222,-0.0539 -0.0476,-0.1127 -0.0762,-0.1746 0.0127,-0.0127 0.0302,-0.0365 0.054,-0.0714 0.0222,-0.0365 0.0492,-0.081 0.0809,-0.1334zm3.4274 0.2048c0.0127,-0.0222 0.0286,-0.046 0.0492,-0.0714 0.0191,-0.027 0.0445,-0.0588 0.0715,-0.0953 0.0317,-0.0254 0.0714,-0.0603 0.1206,-0.1079 0.0508,-0.0461 0.1064,-0.1 0.1683,-0.1619 0.0556,-0.062 0.1238,-0.1397 0.2048,-0.2302 0.0794,-0.0921 0.1778,-0.2016 0.2921,-0.3318 0.0508,-0.054 0.1127,-0.1207 0.1857,-0.2032 0.0746,-0.0826 0.1635,-0.1794 0.2651,-0.2953 0.0873,-0.1016 0.181,-0.1778 0.2794,-0.227 0.1,-0.0492 0.2048,-0.0746 0.3159,-0.0746 0.1128,0 0.1937,0.0349 0.2477,0.1048 0.0524,0.0698 0.0778,0.1714 0.0778,0.3048 0,0.0714 -0.0254,0.2079 -0.0778,0.4095 -0.054,0.2016 -0.1349,0.4683 -0.2477,0.8001 -0.0269,0.0619 -0.0539,0.1207 -0.0777,0.1762 -0.0191,0.0397 -0.0318,0.0762 -0.0381,0.1064 -0.0064,0.0318 -0.0096,0.0556 -0.0096,0.0699 0,0.019 0.0111,0.0428 0.0334,0.0698 0.0158,-0.0095 0.0301,-0.0206 0.0444,-0.0365 0.0127,-0.0159 0.0302,-0.0349 0.0476,-0.0556 0.0254,-0.0476 0.0635,-0.0952 0.1143,-0.1476 0.0508,-0.0508 0.1128,-0.1064 0.1842,-0.1699 0.027,-0.0524 0.0635,-0.1047 0.1095,-0.1555 0.0445,-0.0508 0.0953,-0.0985 0.1508,-0.1413 0.0127,-0.0127 0.0286,-0.0334 0.0493,-0.0604 0.019,-0.0285 0.0444,-0.0571 0.0714,-0.0889 0.0413,-0.0396 0.0889,-0.0825 0.1445,-0.1254 0.0555,-0.0428 0.1206,-0.0889 0.1952,-0.1349 0.0842,-0.0429 0.1588,-0.0778 0.2254,-0.1032 0.0667,-0.0238 0.1255,-0.0365 0.1747,-0.0365 0.0968,0 0.1809,0.0238 0.2556,0.0698 0.0746,0.0461 0.1381,0.1191 0.1905,0.2191 0.0619,0.1921 0.1222,0.3699 0.1778,0.5334 0.0333,0.0969 0.0714,0.1683 0.1127,0.2143 0.0428,0.0461 0.0905,0.0699 0.1428,0.0699 0.0397,0 0.0762,-0.008 0.1096,-0.0238 0.0317,-0.0159 0.0619,-0.0381 0.0905,-0.0699l0.1857 0.4286c-0.0524,0.0429 -0.1064,0.0889 -0.1635,0.135 -0.0556,0.046 -0.1095,0.0905 -0.1619,0.1349 -0.0715,0.0651 -0.1381,0.1111 -0.2001,0.1365 -0.0619,0.027 -0.1238,0.0397 -0.1857,0.0397 -0.0714,0 -0.1397,-0.0158 -0.2048,-0.046 -0.0651,-0.0318 -0.1206,-0.0778 -0.1683,-0.1397 -0.0238,-0.0254 -0.0555,-0.0699 -0.092,-0.1365 -0.0381,-0.0667 -0.081,-0.1508 -0.1302,-0.2493 -0.0413,-0.0397 -0.0873,-0.0936 -0.1381,-0.1603 -0.0508,-0.0667 -0.1111,-0.1445 -0.1794,-0.235l-0.0413 -0.0142c-0.0587,0.019 -0.1175,0.0476 -0.1746,0.0841 -0.0572,0.0365 -0.1191,0.0857 -0.1842,0.1445 -0.1381,0.1238 -0.2397,0.2016 -0.3016,0.2317 -0.0619,0.0318 -0.1032,0.0667 -0.1254,0.108 -0.0429,0.0746 -0.1175,0.1698 -0.2238,0.2873 -0.1048,0.1191 -0.2366,0.2572 -0.3953,0.4191 -0.0397,0.0397 -0.081,0.0794 -0.1207,0.1191 -0.0397,0.0381 -0.0809,0.0762 -0.1206,0.1127 -0.0413,0.0349 -0.0857,0.0587 -0.1381,0.073 -0.0508,0.0143 -0.1064,0.0207 -0.1683,0.0207 -0.1254,0 -0.1921,-0.0429 -0.2032,-0.1286 -0.0111,-0.0842 -0.0206,-0.1715 -0.0302,-0.2572 0.0461,-0.1302 0.1,-0.2937 0.1588,-0.489 0.0587,-0.1952 0.127,-0.4222 0.2048,-0.6842 0,-0.0143 0.0047,-0.0365 0.0158,-0.0619 0.0112,-0.027 0.0239,-0.0619 0.0397,-0.1048 0.0143,-0.0396 0.0254,-0.0746 0.0318,-0.1047 0.0063,-0.0286 0.0095,-0.0556 0.0095,-0.0762 0,-0.0223 -0.0079,-0.0397 -0.0238,-0.0524 -0.0143,-0.0111 -0.0397,-0.0175 -0.073,-0.0175 -0.0318,0 -0.0731,0.0175 -0.1239,0.0556 -0.0508,0.0365 -0.1127,0.0952 -0.1841,0.1762 -0.0873,0.0937 -0.1572,0.1667 -0.2096,0.2191 -0.0523,0.0524 -0.0873,0.0841 -0.1063,0.0936 -0.0318,0.0207 -0.0683,0.0524 -0.1096,0.0921 -0.0412,0.0413 -0.0889,0.0857 -0.1412,0.1349 -0.0064,0.0127 -0.0159,0.0318 -0.0286,0.0556 -0.0127,0.0254 -0.0318,0.0524 -0.0603,0.0841 -0.0127,-0.046 -0.0334,-0.1047 -0.0651,-0.173 -0.0302,-0.0683 -0.0715,-0.1524 -0.1207,-0.2556zm4.4466 0c0.0365,-0.0651 0.0857,-0.1302 0.1445,-0.1968 0.0587,-0.0667 0.1317,-0.135 0.2222,-0.2064 0.0096,-0.0619 0.0191,-0.1238 0.0286,-0.1842 0.0079,-0.0603 0.0143,-0.1222 0.0175,-0.1841 0.0095,-0.0429 0.0238,-0.0937 0.0444,-0.1524 0.0207,-0.0603 0.0429,-0.1238 0.0683,-0.1921 0.027,-0.0683 0.0651,-0.1524 0.1127,-0.2556 0.0492,-0.1016 0.1111,-0.2159 0.1889,-0.3445 0.0651,-0.0698 0.1334,-0.1492 0.2048,-0.2349 0.0714,-0.0842 0.1429,-0.1699 0.2143,-0.2572 0.0333,-0.0286 0.0714,-0.054 0.1111,-0.0794 0.0397,-0.0254 0.081,-0.0524 0.1207,-0.0841 0.0381,-0.0127 0.0794,-0.0222 0.1254,-0.0318 0.0476,-0.0095 0.0984,-0.0142 0.154,-0.0142 0.0778,0 0.1397,0.0079 0.1889,0.0238 0.0476,0.0143 0.0873,0.0412 0.1175,0.0778 0.0222,0.0254 0.0428,0.0635 0.0635,0.1127 0.0206,0.0492 0.0397,0.1095 0.0587,0.1809 0.0079,0.062 0.0191,0.1302 0.0318,0.2048 0,-0.019 -0.0048,-0.0111 -0.0159,0.0238 -0.0111,0.0334 -0.027,0.0874 -0.0492,0.162l-0.0413 0.1492c-0.0445,0.1492 -0.1413,0.3207 -0.2937,0.5159 -0.1524,0.1953 -0.3572,0.4191 -0.6144,0.67 -0.0206,0.0222 -0.0396,0.0492 -0.0555,0.0809 -0.0159,0.0334 -0.0222,0.0683 -0.0222,0.1048 0,0.0651 0.0111,0.1238 0.0349,0.173 0.0222,0.0492 0.0555,0.0858 0.1,0.1112 0.0238,0.019 0.0635,0.0381 0.1175,0.0555 0.0555,0.0191 0.119,0.0365 0.1936,0.0508 0.1207,-0.0079 0.2318,-0.0286 0.3302,-0.0603 0.1001,-0.0302 0.189,-0.0683 0.2667,-0.1111 0.0143,-0.0096 0.0397,-0.0223 0.0731,-0.0397 0.0349,-0.0175 0.0682,-0.0397 0.1032,-0.0683 0.0396,0.0905 0.0762,0.1715 0.1063,0.2429 0.0318,0.0714 0.0556,0.1334 0.0746,0.1857 -0.1762,0.1731 -0.3365,0.3048 -0.481,0.3937 -0.1444,0.0874 -0.2778,0.1318 -0.3984,0.1318 -0.0493,0.0318 -0.1064,0.054 -0.1699,0.0683 -0.0635,0.0143 -0.1381,0.0206 -0.2254,0.0206 -0.1143,0 -0.2159,-0.0175 -0.3048,-0.0508 -0.0889,-0.0349 -0.162,-0.0841 -0.2207,-0.1492 -0.0317,-0.0318 -0.0619,-0.0762 -0.0937,-0.1381 -0.0301,-0.0604 -0.0635,-0.1318 -0.0968,-0.2159 -0.0286,-0.0683 -0.054,-0.1191 -0.0794,-0.1508 -0.0254,-0.0334 -0.0524,-0.0493 -0.0841,-0.0493 -0.0238,0 -0.0524,0.0112 -0.0841,0.035 -0.0302,0.0238 -0.0651,0.0587 -0.1016,0.1047 -0.0127,-0.046 -0.0334,-0.1047 -0.0651,-0.173 -0.0302,-0.0683 -0.0715,-0.1524 -0.1207,-0.2556zm1.4875 -1.5097c-0.0683,0 -0.1587,0.0889 -0.2746,0.2667 -0.1143,0.1794 -0.1715,0.3096 -0.1715,0.3937 0,0.0191 0.0032,0.0318 0.0111,0.0397 0.008,0.0079 0.0238,0.0111 0.0492,0.0111 0.035,0 0.062,-0.0175 0.0842,-0.054 0.0206,-0.0349 0.0413,-0.0682 0.0603,-0.1 0.0333,-0.0301 0.0667,-0.0635 0.1,-0.1 0.0318,-0.0349 0.0635,-0.0698 0.0953,-0.1032 0.0365,-0.0444 0.0651,-0.0873 0.0825,-0.1302 0.0191,-0.0444 0.0286,-0.0873 0.0286,-0.1301 0,-0.0286 -0.0048,-0.0508 -0.0159,-0.0683 -0.0111,-0.0175 -0.027,-0.0254 -0.0492,-0.0254zm0.8525 1.5097l0.0286 -0.0317c0.0111,-0.0445 0.0381,-0.0905 0.0809,-0.1397 0.0413,-0.0492 0.1017,-0.1 0.1794,-0.1493 0.1016,-0.065 0.181,-0.1174 0.2382,-0.1571 0.0587,-0.0413 0.0936,-0.0699 0.1047,-0.0889 0.0286,-0.0334 0.0477,-0.0603 0.0556,-0.0794 0.0349,-0.0238 0.0762,-0.0587 0.127,-0.1016 0.0492,-0.0429 0.1048,-0.0968 0.1667,-0.1587 0.0222,-0.0143 0.0444,-0.0397 0.0698,-0.0731 0.0254,-0.0349 0.0493,-0.073 0.0747,-0.1174 0.0396,-0.027 0.0857,-0.0635 0.1365,-0.1064 0.0508,-0.0429 0.1111,-0.0984 0.1794,-0.1667 0.0778,-0.0841 0.1651,-0.1762 0.2635,-0.2762 0.0968,-0.1016 0.2064,-0.2064 0.327,-0.3143 0.0397,-0.0191 0.0778,-0.0334 0.1143,-0.0445 0.0349,-0.0111 0.0699,-0.0159 0.1048,-0.0159 0.1397,0 0.2445,0.0334 0.3143,0.1 0.0683,0.0667 0.1032,0.162 0.1032,0.2858 0,0.0317 -0.0048,0.0825 -0.0159,0.154 -0.0111,0.0714 -0.0222,0.1603 -0.0349,0.2699 -0.0429,0.3127 -0.0746,0.5032 -0.0921,0.5715 -0.019,0.0682 -0.0841,0.2825 -0.1952,0.6413 -0.0254,0.0587 -0.0508,0.1318 -0.0778,0.2191 -0.0254,0.0873 -0.0572,0.1921 -0.0953,0.3159 0.0064,0.0127 0.0223,0.0254 0.0477,0.0381 0.0206,0 0.0603,-0.0222 0.1158,-0.0635 0.0556,-0.0429 0.1302,-0.1048 0.2223,-0.1889 0.1095,-0.1 0.1953,-0.1762 0.2572,-0.2286 0.0619,-0.054 0.1,-0.0842 0.1159,-0.0937 0.0365,0.0842 0.0714,0.1604 0.1016,0.2302 0.0317,0.0699 0.0571,0.1365 0.0793,0.1984 -0.0397,0.0254 -0.0762,0.0524 -0.1095,0.0842 -0.0318,0.0301 -0.0619,0.0651 -0.0905,0.1016 -0.0651,0.0444 -0.1397,0.0936 -0.2254,0.1492 -0.0857,0.0556 -0.1794,0.1159 -0.281,0.181 -0.0476,0.0476 -0.1095,0.1032 -0.1889,0.1714 -0.0794,0.0667 -0.1683,0.1413 -0.2667,0.2255l-0.0889 0.0174c-0.0429,0.0604 -0.0842,0.1048 -0.1238,0.1366 -0.0381,0.0301 -0.0731,0.0523 -0.1048,0.065 -0.0492,0.0175 -0.0984,0.0366 -0.1477,0.0524 -0.0508,0.0175 -0.1031,0.035 -0.1587,0.054 -0.0333,-0.0095 -0.0587,-0.0302 -0.0746,-0.0603 -0.0159,-0.0318 -0.0222,-0.0715 -0.0191,-0.1207 -0.046,-0.0841 -0.0825,-0.181 -0.1111,-0.2889 -0.027,-0.108 -0.0413,-0.2286 -0.0413,-0.362 0,-0.0254 0.0016,-0.0523 0.0048,-0.0793 0.0032,-0.0286 0.0063,-0.0524 0.0095,-0.0746 -0.0222,-0.081 -0.0333,-0.1286 -0.0333,-0.1445 0,-0.0921 0.0349,-0.1699 0.1063,-0.2302 0.0715,-0.0603 0.1524,-0.0905 0.2429,-0.0905 0.0461,0 0.0794,0.0238 0.1,0.0715 0.0191,0.0492 0.0413,0.073 0.062,0.073 0.0222,0 0.0444,-0.0429 0.0682,-0.1286 0.0222,-0.0841 0.0461,-0.2096 0.0667,-0.3747 0.0222,-0.1412 0.0365,-0.2651 0.0429,-0.3714 0.0063,-0.1048 0.0079,-0.1858 0.0079,-0.2413 0,-0.0413 -0.0079,-0.0715 -0.0254,-0.0905 -0.0159,-0.0207 -0.0445,-0.0302 -0.0857,-0.0302 -0.0397,0 -0.1699,0.0921 -0.3906,0.2778 -0.2206,0.1858 -0.527,0.4636 -0.9207,0.8319 -0.0127,0.0222 -0.0302,0.0476 -0.054,0.0794 -0.0222,0.0301 -0.0492,0.0698 -0.0809,0.1158 -0.0127,-0.046 -0.0334,-0.1047 -0.0651,-0.173 -0.0302,-0.0683 -0.0715,-0.1524 -0.1207,-0.2556zm2.9115 0c0.0365,-0.0651 0.0857,-0.1302 0.1445,-0.1968 0.0587,-0.0667 0.1317,-0.135 0.2222,-0.2064 0.0096,-0.0619 0.0191,-0.1238 0.0286,-0.1842 0.0079,-0.0603 0.0143,-0.1222 0.0175,-0.1841 0.0095,-0.0429 0.0238,-0.0937 0.0444,-0.1524 0.0207,-0.0603 0.0429,-0.1238 0.0683,-0.1921 0.027,-0.0683 0.0651,-0.1524 0.1127,-0.2556 0.0492,-0.1016 0.1111,-0.2159 0.1889,-0.3445 0.0651,-0.0698 0.1334,-0.1492 0.2048,-0.2349 0.0714,-0.0842 0.1429,-0.1699 0.2143,-0.2572 0.0333,-0.0286 0.0714,-0.054 0.1111,-0.0794 0.0397,-0.0254 0.081,-0.0524 0.1207,-0.0841 0.0381,-0.0127 0.0794,-0.0222 0.1254,-0.0318 0.0476,-0.0095 0.0984,-0.0142 0.154,-0.0142 0.0778,0 0.1397,0.0079 0.1889,0.0238 0.0476,0.0143 0.0873,0.0412 0.1175,0.0778 0.0222,0.0254 0.0428,0.0635 0.0635,0.1127 0.0206,0.0492 0.0397,0.1095 0.0587,0.1809 0.0079,0.062 0.0191,0.1302 0.0318,0.2048 0,-0.019 -0.0048,-0.0111 -0.0159,0.0238 -0.0111,0.0334 -0.027,0.0874 -0.0492,0.162l-0.0413 0.1492c-0.0445,0.1492 -0.1413,0.3207 -0.2937,0.5159 -0.1524,0.1953 -0.3572,0.4191 -0.6144,0.67 -0.0206,0.0222 -0.0396,0.0492 -0.0555,0.0809 -0.0159,0.0334 -0.0222,0.0683 -0.0222,0.1048 0,0.0651 0.0111,0.1238 0.0349,0.173 0.0222,0.0492 0.0555,0.0858 0.1,0.1112 0.0238,0.019 0.0635,0.0381 0.1175,0.0555 0.0555,0.0191 0.119,0.0365 0.1936,0.0508 0.1207,-0.0079 0.2318,-0.0286 0.3302,-0.0603 0.1001,-0.0302 0.189,-0.0683 0.2667,-0.1111 0.0143,-0.0096 0.0397,-0.0223 0.0731,-0.0397 0.0349,-0.0175 0.0682,-0.0397 0.1032,-0.0683 0.0396,0.0905 0.0762,0.1715 0.1063,0.2429 0.0318,0.0714 0.0556,0.1334 0.0746,0.1857 -0.1762,0.1731 -0.3365,0.3048 -0.481,0.3937 -0.1444,0.0874 -0.2778,0.1318 -0.3984,0.1318 -0.0493,0.0318 -0.1064,0.054 -0.1699,0.0683 -0.0635,0.0143 -0.1381,0.0206 -0.2254,0.0206 -0.1143,0 -0.2159,-0.0175 -0.3048,-0.0508 -0.0889,-0.0349 -0.162,-0.0841 -0.2207,-0.1492 -0.0317,-0.0318 -0.0619,-0.0762 -0.0937,-0.1381 -0.0301,-0.0604 -0.0635,-0.1318 -0.0968,-0.2159 -0.0286,-0.0683 -0.054,-0.1191 -0.0794,-0.1508 -0.0254,-0.0334 -0.0524,-0.0493 -0.0841,-0.0493 -0.0238,0 -0.0524,0.0112 -0.0841,0.035 -0.0302,0.0238 -0.0651,0.0587 -0.1016,0.1047 -0.0127,-0.046 -0.0334,-0.1047 -0.0651,-0.173 -0.0302,-0.0683 -0.0715,-0.1524 -0.1207,-0.2556zm1.4875 -1.5097c-0.0683,0 -0.1587,0.0889 -0.2746,0.2667 -0.1143,0.1794 -0.1715,0.3096 -0.1715,0.3937 0,0.0191 0.0032,0.0318 0.0111,0.0397 0.008,0.0079 0.0238,0.0111 0.0492,0.0111 0.035,0 0.062,-0.0175 0.0842,-0.054 0.0206,-0.0349 0.0413,-0.0682 0.0603,-0.1 0.0333,-0.0301 0.0667,-0.0635 0.1,-0.1 0.0318,-0.0349 0.0635,-0.0698 0.0953,-0.1032 0.0365,-0.0444 0.0651,-0.0873 0.0825,-0.1302 0.0191,-0.0444 0.0286,-0.0873 0.0286,-0.1301 0,-0.0286 -0.0048,-0.0508 -0.0159,-0.0683 -0.0111,-0.0175 -0.027,-0.0254 -0.0492,-0.0254z"/>
  <path class="fil1" d="M90.9049 121.69c0.0969,0 0.1731,0.0111 0.2286,0.0349 0.0556,0.0238 0.0889,0.0556 0.1016,0.0953l-0.046 0.3587c-0.0095,0.0429 -0.0159,0.0873 -0.0191,0.1318 -0.0031,0.046 -0.0095,0.0889 -0.0174,0.1333 -0.0159,0.0397 -0.0429,0.0699 -0.0794,0.0874 -0.0381,0.019 -0.0889,0.0285 -0.154,0.0285 -0.0492,0 -0.1191,0.0112 -0.208,0.035 -0.0873,0.0238 -0.1555,0.0349 -0.2016,0.0349 -0.0714,0 -0.1254,-0.0318 -0.1603,-0.0953 -0.0365,-0.0635 -0.054,-0.1619 -0.054,-0.2952 0,-0.1239 0.0683,-0.2477 0.2064,-0.3683 0.1381,-0.1207 0.273,-0.181 0.4032,-0.181zm-0.0936 -2.902c0.0349,-0.1016 0.0619,-0.1921 0.0793,-0.2698 0.0191,-0.0778 0.0286,-0.1429 0.0286,-0.1953 0,-0.027 -0.0048,-0.0635 -0.0111,-0.1095 -0.0079,-0.0445 -0.0143,-0.1524 -0.0175,-0.3223 -0.0174,0.0063 -0.0381,0.0095 -0.0603,0.0095l-0.0794 -0.0524 -0.0127 -0.0651c0,-0.0714 0.0223,-0.1746 0.0667,-0.3111 0.0445,-0.1365 0.0651,-0.2365 0.0587,-0.3016l-0.0047 -0.2477c-0.0064,-0.0428 -0.0048,-0.0921 0.0063,-0.146 0.0111,-0.054 0.0286,-0.1096 0.054,-0.1651 0.0254,-0.0683 0.0524,-0.1239 0.0841,-0.1651 0.0302,-0.0413 0.0651,-0.0683 0.1016,-0.081 0.0159,-0.0095 0.0334,-0.0175 0.054,-0.0254 0.0207,-0.0079 0.0397,-0.0159 0.0588,-0.0222 0.0587,-0.0461 0.1143,-0.0905 0.1666,-0.1318 0.0524,-0.0413 0.1016,-0.0841 0.1445,-0.1286 0.0778,-0.0524 0.1476,-0.0936 0.2127,-0.1254 0.0635,-0.0301 0.1191,-0.046 0.1699,-0.046 0.0397,0 0.0683,0.019 0.0857,0.0587 0.0175,0.0381 0.0254,0.0969 0.0254,0.1731 0,0.0476 -0.0047,0.1079 -0.0159,0.1841 -0.0111,0.0762 -0.0285,0.1635 -0.0539,0.2635 -0.0254,0.1016 -0.0445,0.1905 -0.0604,0.2651 -0.0158,0.0747 -0.0254,0.135 -0.0285,0.181 -0.0032,0.0683 -0.0159,0.1921 -0.0413,0.3699 -0.0254,0.1778 -0.0619,0.4064 -0.1111,0.6858 -0.035,0.1857 -0.0762,0.4223 -0.127,0.7096 -0.0492,0.2858 -0.1064,0.6191 -0.1715,0.997 0,0.0349 -0.0047,0.0746 -0.0127,0.1206 -0.0063,0.0476 -0.0159,0.1048 -0.0254,0.1731 -0.0063,0.019 -0.0127,0.0396 -0.0222,0.0619 -0.0095,0.0238 -0.0222,0.0476 -0.0381,0.073 -0.0064,0.0206 -0.0175,0.0889 -0.0318,0.2016 -0.0158,0.1143 -0.0333,0.2746 -0.0523,0.481 -0.008,0.0603 -0.0905,0.1572 -0.2445,0.2921 -0.1524,0.135 -0.2556,0.2016 -0.3096,0.2016 -0.0333,-0.0031 -0.0555,-0.0127 -0.0651,-0.0285 0,-0.0143 -0.0016,-0.0445 -0.0047,-0.0874 -0.0032,-0.0444 -0.0048,-0.0762 -0.0048,-0.0984l0.0476 -0.1905c-0.0127,-0.1111 -0.0254,-0.2206 -0.0381,-0.3254 0,-0.0715 0.0032,-0.1397 0.008,-0.2048 0.0047,-0.0651 0.0095,-0.1286 0.0158,-0.1905 0.0191,-0.0714 0.0366,-0.1286 0.0556,-0.1715 0.0095,-0.0317 0.0175,-0.0635 0.0238,-0.0984 0.0064,-0.0333 0.0095,-0.0619 0.0095,-0.0841 -0.0031,-0.0794 -0.0047,-0.1556 -0.0047,-0.227 0,0.0158 0,0.0063 0.0016,-0.0286 0.0016,-0.0333 0.0047,-0.0873 0.0079,-0.1619 0.0064,-0.0286 0.0095,-0.0556 0.0095,-0.0826 0,-0.0254 0,-0.054 0,-0.0857 0.0334,-0.0953 0.0572,-0.1873 0.0715,-0.2746 0.0143,-0.0858 0.0143,-0.1699 0.0016,-0.2509z"/>
 </g>
</svg>
