<?xml version="1.0" encoding="UTF-8"?>
<!DOCTYPE svg PUBLIC "-//W3C//DTD SVG 1.1//EN" "http://www.w3.org/Graphics/SVG/1.1/DTD/svg11.dtd">
<!-- Creator: CorelDRAW -->
<svg xmlns="http://www.w3.org/2000/svg" xml:space="preserve" width="15mm" height="11mm" style="shape-rendering:geometricPrecision; text-rendering:geometricPrecision; image-rendering:optimizeQuality; fill-rule:evenodd; clip-rule:evenodd"
viewBox="0 0 15 11"
 xmlns:xlink="http://www.w3.org/1999/xlink">
 <defs>
  <style type="text/css">
   <![CDATA[
    .str0 {stroke:#B73128;stroke-width:0.3387}
    .fil0 {fill:none}
   ]]>
  </style>
 </defs>
 <g id="Layer_x0020_1">
  <metadata id="CorelCorpID_0Corel-Layer"/>
  <path id="video-solid.svg" class="fil0 str0" d="M0.3749 2.3333c0,-0.8733 0.7101,-1.5833 1.5834,-1.5833l6.3334 0c0.8733,0 1.5833,0.71 1.5833,1.5833l0 6.3334c0,0.8733 -0.71,1.5833 -1.5833,1.5833l-6.3334 0c-0.8733,0 -1.5834,-0.71 -1.5834,-1.5833l0 -6.3334zm13.832 -0.6977c0.2573,0.1385 0.4182,0.4057 0.4182,0.6977l0 6.3334c0,0.2919 -0.1608,0.5591 -0.4182,0.6977 -0.2573,0.1387 -0.5689,0.1237 -0.8139,-0.0396l-2.375 -1.5834 -0.3513 -0.235 0 -0.4231 0 -3.1666 0 -0.4231 0.3513 -0.235 2.375 -1.5834c0.2424,-0.1608 0.5543,-0.1781 0.8139,-0.0396z"/>
 </g>
</svg>
