<?xml version="1.0" encoding="UTF-8"?>
<!DOCTYPE svg PUBLIC "-//W3C//DTD SVG 1.1//EN" "http://www.w3.org/Graphics/SVG/1.1/DTD/svg11.dtd">
<!-- Creator: CorelDRAW -->
<svg xmlns="http://www.w3.org/2000/svg" xml:space="preserve" width="15mm" height="11mm" style="shape-rendering:geometricPrecision; text-rendering:geometricPrecision; image-rendering:optimizeQuality; fill-rule:evenodd; clip-rule:evenodd"
viewBox="0 0 15 11"
 xmlns:xlink="http://www.w3.org/1999/xlink">
 <defs>
  <style type="text/css">
   <![CDATA[
    .str0 {stroke:#B73128;stroke-width:0.3387}
    .fil0 {fill:none}
   ]]>
  </style>
 </defs>
 <g id="Layer_x0020_1">
  <metadata id="CorelCorpID_0Corel-Layer"/>
  <path id="briefcase-solid.svg" class="fil0 str0" d="M6 1.5l3 0c0.0917,0 0.1667,0.075 0.1667,0.1667l0 0.8333 -3.3334 0 0 -0.8333c0,-0.0917 0.075,-0.1667 0.1667,-0.1667zm-1.1667 0.1667l0 0.8333 -1.3333 0c-0.7354,0 -1.3334,0.5979 -1.3334,1.3333l0 2 4.0001 0 2.6666 0 4.0001 0 0 -2c0,-0.7354 -0.598,-1.3333 -1.3334,-1.3333l-1.3333 0 0 -0.8333c0,-0.6438 -0.5229,-1.1667 -1.1667,-1.1667l-3 0c-0.6438,0 -1.1667,0.5229 -1.1667,1.1667zm8.0001 4.8333l-4.0001 0 0 0.6667c0,0.3687 -0.2979,0.6666 -0.6666,0.6666l-1.3334 0c-0.3687,0 -0.6666,-0.2979 -0.6666,-0.6666l0 -0.6667 -4.0001 0 0 2.6667c0,0.7354 0.598,1.3333 1.3334,1.3333l8 0c0.7354,0 1.3334,-0.5979 1.3334,-1.3333l0 -2.6667z"/>
 </g>
</svg>
