<?xml version="1.0" encoding="UTF-8"?>
<!DOCTYPE svg PUBLIC "-//W3C//DTD SVG 1.1//EN" "http://www.w3.org/Graphics/SVG/1.1/DTD/svg11.dtd">
<!-- Creator: CorelDRAW -->
<svg xmlns="http://www.w3.org/2000/svg" xml:space="preserve" width="15mm" height="11mm" style="shape-rendering:geometricPrecision; text-rendering:geometricPrecision; image-rendering:optimizeQuality; fill-rule:evenodd; clip-rule:evenodd"
viewBox="0 0 15 11"
 xmlns:xlink="http://www.w3.org/1999/xlink">
 <defs>
  <style type="text/css">
   <![CDATA[
    .fil0 {fill:#B73128;fill-rule:nonzero}
   ]]>
  </style>
 </defs>
 <g id="Layer_x0020_1">
  <metadata id="CorelCorpID_0Corel-Layer"/>
  <g id="_532738408">
   <g>
    <g>
     <path id="_250539560" class="fil0" d="M3.3045 0.8289l-0.361 -0.1578 0.0043 -0.0092 0.0047 -0.0088 0.0051 -0.0086 0.0055 -0.0081 0.0058 -0.0079 0.0062 -0.0075 0.0065 -0.0071 0.0068 -0.0068 0.0071 -0.0064 0.0074 -0.0061 0.0076 -0.0056 0.0079 -0.0053 0.0082 -0.0049 0.0083 -0.0044 0.0085 -0.0041 0.0088 -0.0037 0.0088 -0.0032 0.0091 -0.0028 0.0091 -0.0024 0.0093 -0.0019 0.0094 -0.0015 0.0095 -0.0011 0.0095 -0.0006 0.0096 -0.0001 0.0096 0.0004 0.0096 0.0008 0.0096 0.0013 0.0096 0.0018 0.0096 0.0023 0.0096 0.0028 0.0094 0.0033 0.0094 0.0038 0.0092 0.0043 0.0088 0.0047 0.0086 0.0051 0.0081 0.0055 0.0079 0.0058 0.0075 0.0062 0.0071 0.0065 0.0068 0.0068 0.0064 0.0071 0.0061 0.0074 0.0056 0.0076 0.0053 0.0079 0.0049 0.0082 0.0044 0.0083 0.0041 0.0085 0.0037 0.0088 0.0032 0.0088 0.0028 0.0091 0.0024 0.0091 0.0019 0.0093 0.0015 0.0094 0.0011 0.0095 0.0006 0.0095 0.0001 0.0096 -0.0004 0.0096 -0.0008 0.0096 -0.0013 0.0096 -0.0018 0.0096 -0.0023 0.0096 -0.0028 0.0096 -0.0033 0.0094 -0.0038 0.0094zm-0.0042 4.5447l-0.3526 0.176 -0.0646 -0.1336 -0.0611 -0.1349 -0.0575 -0.136 -0.0538 -0.1371 -0.0501 -0.1383 -0.0462 -0.1395 -0.0424 -0.1407 -0.0385 -0.142 -0.0344 -0.1432 -0.0304 -0.1445 -0.0261 -0.1456 -0.022 -0.1468 -0.0178 -0.1481 -0.0135 -0.1494 -0.009 -0.1506 -0.0047 -0.1517 -0.0001 -0.153 0.0044 -0.1542 0.0089 -0.1554 0.0136 -0.1566 0.0182 -0.1579 0.023 -0.1592 0.0278 -0.1603 0.0325 -0.1616 0.0375 -0.1629 0.0424 -0.1641 0.0473 -0.1652 0.0523 -0.1667 0.0574 -0.1679 0.0624 -0.1691 0.0675 -0.1705 0.0728 -0.1719 0.361 0.1578 -0.0692 0.1635 -0.0641 0.1619 -0.0592 0.1603 -0.0542 0.1587 -0.0493 0.1571 -0.0445 0.1556 -0.0398 0.1541 -0.0351 0.1525 -0.0305 0.151 -0.0258 0.1495 -0.0214 0.1482 -0.017 0.1467 -0.0126 0.1454 -0.0083 0.144 -0.004 0.1426 0.0001 0.1414 0.0043 0.1401 0.0084 0.139 0.0123 0.1376 0.0164 0.1365 0.0204 0.1356 0.0241 0.1342 0.028 0.1333 0.0318 0.1322 0.0355 0.1312 0.0392 0.1303 0.0428 0.1293 0.0465 0.1283 0.05 0.1275 0.0535 0.1266 0.0571 0.1257 0.0604 0.1248zm-0.3526 0.176l0.3526 -0.176 0.0043 0.0092 0.0038 0.0093 0.0033 0.0093 0.0028 0.0095 0.0022 0.0095 0.0018 0.0096 0.0014 0.0095 0.0008 0.0096 0.0004 0.0096 -0.0001 0.0095 -0.0006 0.0095 -0.001 0.0095 -0.0015 0.0093 -0.0019 0.0093 -0.0024 0.0092 -0.0027 0.009 -0.0032 0.0089 -0.0037 0.0087 -0.004 0.0086 -0.0045 0.0084 -0.0049 0.0081 -0.0052 0.008 -0.0057 0.0077 -0.006 0.0074 -0.0064 0.0071 -0.0069 0.0069 -0.0071 0.0066 -0.0076 0.0062 -0.0079 0.0059 -0.0082 0.0055 -0.0086 0.0051 -0.009 0.0048 -0.0092 0.0043 -0.0093 0.0038 -0.0093 0.0033 -0.0095 0.0028 -0.0095 0.0022 -0.0096 0.0018 -0.0095 0.0014 -0.0096 0.0008 -0.0096 0.0004 -0.0095 -0.0001 -0.0095 -0.0006 -0.0095 -0.001 -0.0093 -0.0015 -0.0093 -0.0019 -0.0092 -0.0024 -0.009 -0.0027 -0.0089 -0.0032 -0.0087 -0.0037 -0.0086 -0.004 -0.0084 -0.0045 -0.0081 -0.0049 -0.008 -0.0052 -0.0077 -0.0057 -0.0074 -0.006 -0.0071 -0.0064 -0.0069 -0.0069 -0.0066 -0.0071 -0.0062 -0.0076 -0.0059 -0.0079 -0.0055 -0.0082 -0.0051 -0.0086 -0.0048 -0.009z"/>
    </g>
    <g>
     <path id="_250543304" class="fil0" d="M4.9689 1.555l-0.361 -0.1578 0.0043 -0.0092 0.0047 -0.0088 0.0051 -0.0086 0.0055 -0.0081 0.0058 -0.0079 0.0062 -0.0075 0.0065 -0.0071 0.0068 -0.0068 0.0071 -0.0064 0.0074 -0.0061 0.0076 -0.0056 0.0079 -0.0053 0.0082 -0.0049 0.0083 -0.0044 0.0085 -0.0041 0.0088 -0.0037 0.0088 -0.0032 0.0091 -0.0028 0.0091 -0.0024 0.0093 -0.0019 0.0094 -0.0015 0.0095 -0.0011 0.0095 -0.0006 0.0096 -0.0001 0.0096 0.0004 0.0096 0.0008 0.0096 0.0013 0.0096 0.0018 0.0096 0.0023 0.0096 0.0028 0.0094 0.0033 0.0094 0.0038 0.0092 0.0043 0.0088 0.0047 0.0086 0.0051 0.0081 0.0055 0.0079 0.0058 0.0075 0.0062 0.0071 0.0065 0.0068 0.0068 0.0064 0.0071 0.0061 0.0074 0.0056 0.0076 0.0053 0.0079 0.0049 0.0082 0.0044 0.0083 0.0041 0.0085 0.0037 0.0088 0.0032 0.0088 0.0028 0.0091 0.0024 0.0091 0.0019 0.0093 0.0015 0.0094 0.0011 0.0095 0.0006 0.0095 0.0001 0.0096 -0.0004 0.0096 -0.0008 0.0096 -0.0013 0.0096 -0.0018 0.0096 -0.0023 0.0096 -0.0028 0.0096 -0.0033 0.0094 -0.0038 0.0094zm-0.0042 3.0922l-0.3526 0.176 -0.0454 -0.0938 -0.0429 -0.0947 -0.0404 -0.0955 -0.0377 -0.0963 -0.0353 -0.0972 -0.0324 -0.0981 -0.0299 -0.099 -0.027 -0.0999 -0.0242 -0.1006 -0.0214 -0.1017 -0.0184 -0.1024 -0.0155 -0.1034 -0.0126 -0.1043 -0.0094 -0.105 -0.0064 -0.1059 -0.0033 -0.1069 -0.0001 -0.1076 0.0031 -0.1085 0.0063 -0.1093 0.0096 -0.11 0.0127 -0.1109 0.0162 -0.1119 0.0196 -0.1125 0.0228 -0.1134 0.0263 -0.1142 0.0297 -0.115 0.0331 -0.1159 0.0367 -0.1168 0.0401 -0.1174 0.0437 -0.1185 0.0473 -0.1192 0.0509 -0.1202 0.361 0.1578 -0.0473 0.1118 -0.0439 0.1106 -0.0403 0.1095 -0.0371 0.1084 -0.0337 0.1072 -0.0303 0.1061 -0.0271 0.105 -0.0239 0.104 -0.0208 0.1028 -0.0176 0.1019 -0.0146 0.1007 -0.0115 0.0997 -0.0086 0.099 -0.0057 0.0977 -0.0027 0.0969 0.0001 0.096 0.0029 0.0951 0.0058 0.0943 0.0084 0.0936 0.011 0.0925 0.0139 0.092 0.0164 0.0912 0.019 0.0905 0.0216 0.0898 0.024 0.0891 0.0267 0.0884 0.0292 0.0879 0.0315 0.0872 0.0341 0.0867 0.0364 0.0861 0.0387 0.0855 0.0412 0.085zm-0.3526 0.176l0.3526 -0.176 0.0043 0.0092 0.0038 0.0093 0.0033 0.0093 0.0028 0.0095 0.0022 0.0095 0.0018 0.0096 0.0014 0.0095 0.0008 0.0096 0.0004 0.0096 -0.0001 0.0095 -0.0006 0.0095 -0.001 0.0095 -0.0015 0.0093 -0.0019 0.0093 -0.0024 0.0092 -0.0027 0.009 -0.0032 0.0089 -0.0037 0.0087 -0.004 0.0086 -0.0045 0.0084 -0.0049 0.0081 -0.0052 0.008 -0.0057 0.0077 -0.006 0.0074 -0.0064 0.0071 -0.0069 0.0069 -0.0071 0.0066 -0.0076 0.0062 -0.0079 0.0059 -0.0082 0.0055 -0.0086 0.0051 -0.009 0.0048 -0.0092 0.0043 -0.0093 0.0038 -0.0093 0.0033 -0.0095 0.0028 -0.0095 0.0022 -0.0096 0.0018 -0.0095 0.0014 -0.0096 0.0008 -0.0096 0.0004 -0.0095 -0.0001 -0.0095 -0.0006 -0.0095 -0.001 -0.0093 -0.0015 -0.0093 -0.0019 -0.0092 -0.0024 -0.009 -0.0027 -0.0089 -0.0032 -0.0087 -0.0037 -0.0086 -0.004 -0.0084 -0.0045 -0.0081 -0.0049 -0.008 -0.0052 -0.0077 -0.0057 -0.0074 -0.006 -0.0071 -0.0064 -0.0069 -0.0069 -0.0066 -0.0071 -0.0062 -0.0076 -0.0059 -0.0079 -0.0055 -0.0082 -0.0051 -0.0086 -0.0048 -0.009z"/>
    </g>
   </g>
   <g>
    <g>
     <path class="fil0" d="M11.6955 0.8293l-0.0038 -0.0094 -0.0033 -0.0094 -0.0028 -0.0096 -0.0023 -0.0096 -0.0018 -0.0096 -0.0013 -0.0096 -0.0008 -0.0096 -0.0004 -0.0096 0.0001 -0.0096 0.0006 -0.0095 0.0011 -0.0095 0.0015 -0.0094 0.0019 -0.0093 0.0024 -0.0091 0.0028 -0.0091 0.0032 -0.0088 0.0037 -0.0088 0.0041 -0.0085 0.0044 -0.0083 0.0049 -0.0082 0.0053 -0.0079 0.0056 -0.0076 0.0061 -0.0074 0.0064 -0.0071 0.0068 -0.0068 0.0071 -0.0065 0.0075 -0.0062 0.0079 -0.0058 0.0081 -0.0055 0.0086 -0.0051 0.0088 -0.0047 0.0092 -0.0043 0.0094 -0.0038 0.0094 -0.0033 0.0096 -0.0028 0.0096 -0.0023 0.0096 -0.0018 0.0096 -0.0013 0.0096 -0.0008 0.0096 -0.0004 0.0096 0.0001 0.0095 0.0006 0.0095 0.0011 0.0094 0.0015 0.0093 0.0019 0.0091 0.0024 0.0091 0.0028 0.0088 0.0032 0.0088 0.0037 0.0085 0.0041 0.0083 0.0044 0.0082 0.0049 0.0079 0.0053 0.0076 0.0056 0.0074 0.0061 0.0071 0.0064 0.0068 0.0068 0.0065 0.0071 0.0062 0.0075 0.0058 0.0079 0.0055 0.0081 0.0051 0.0086 0.0047 0.0088 0.0043 0.0092 -0.361 0.1578zm0.0042 4.5447l0.0604 -0.1248 0.0571 -0.1257 0.0535 -0.1266 0.05 -0.1275 0.0465 -0.1283 0.0428 -0.1293 0.0392 -0.1303 0.0355 -0.1312 0.0318 -0.1322 0.028 -0.1333 0.0241 -0.1342 0.0204 -0.1356 0.0164 -0.1365 0.0123 -0.1376 0.0084 -0.139 0.0043 -0.1401 0.0001 -0.1414 -0.004 -0.1426 -0.0083 -0.144 -0.0126 -0.1454 -0.017 -0.1467 -0.0214 -0.1482 -0.0258 -0.1495 -0.0305 -0.151 -0.0351 -0.1525 -0.0398 -0.1541 -0.0445 -0.1556 -0.0493 -0.1571 -0.0542 -0.1587 -0.0592 -0.1603 -0.0641 -0.1619 -0.0692 -0.1635 0.361 -0.1578 0.0728 0.1719 0.0675 0.1705 0.0624 0.1691 0.0574 0.1679 0.0523 0.1667 0.0473 0.1652 0.0424 0.1641 0.0375 0.1629 0.0325 0.1616 0.0278 0.1603 0.023 0.1592 0.0182 0.1579 0.0136 0.1566 0.0089 0.1554 0.0044 0.1542 -0.0001 0.153 -0.0047 0.1517 -0.009 0.1506 -0.0135 0.1494 -0.0178 0.1481 -0.022 0.1468 -0.0261 0.1456 -0.0304 0.1445 -0.0344 0.1432 -0.0385 0.142 -0.0424 0.1407 -0.0462 0.1395 -0.0501 0.1383 -0.0538 0.1371 -0.0575 0.136 -0.0611 0.1349 -0.0646 0.1336 -0.3526 -0.176zm0.3526 0.176l-0.0048 0.009 -0.0051 0.0086 -0.0055 0.0082 -0.0059 0.0079 -0.0062 0.0076 -0.0066 0.0071 -0.0069 0.0069 -0.0071 0.0064 -0.0074 0.006 -0.0077 0.0057 -0.008 0.0052 -0.0081 0.0049 -0.0084 0.0045 -0.0086 0.004 -0.0087 0.0037 -0.0089 0.0032 -0.009 0.0027 -0.0092 0.0024 -0.0093 0.0019 -0.0093 0.0015 -0.0095 0.001 -0.0095 0.0006 -0.0095 0.0001 -0.0096 -0.0004 -0.0096 -0.0008 -0.0095 -0.0014 -0.0096 -0.0018 -0.0095 -0.0022 -0.0095 -0.0028 -0.0093 -0.0033 -0.0093 -0.0038 -0.0092 -0.0043 -0.009 -0.0048 -0.0086 -0.0051 -0.0082 -0.0055 -0.0079 -0.0059 -0.0076 -0.0062 -0.0071 -0.0066 -0.0069 -0.0069 -0.0064 -0.0071 -0.006 -0.0074 -0.0057 -0.0077 -0.0052 -0.008 -0.0049 -0.0081 -0.0045 -0.0084 -0.004 -0.0086 -0.0037 -0.0087 -0.0032 -0.0089 -0.0027 -0.009 -0.0024 -0.0092 -0.0019 -0.0093 -0.0015 -0.0093 -0.001 -0.0095 -0.0006 -0.0095 -0.0001 -0.0095 0.0004 -0.0096 0.0008 -0.0096 0.0014 -0.0095 0.0018 -0.0096 0.0022 -0.0095 0.0028 -0.0095 0.0033 -0.0093 0.0038 -0.0093 0.0043 -0.0092 0.3526 0.176z"/>
    </g>
    <g>
     <path class="fil0" d="M10.031 1.5553l-0.0038 -0.0094 -0.0033 -0.0094 -0.0028 -0.0096 -0.0023 -0.0096 -0.0018 -0.0096 -0.0013 -0.0096 -0.0008 -0.0096 -0.0004 -0.0096 0.0001 -0.0096 0.0006 -0.0095 0.0011 -0.0095 0.0015 -0.0093 0.0019 -0.0093 0.0024 -0.0092 0.0028 -0.009 0.0033 -0.0089 0.0036 -0.0087 0.0041 -0.0085 0.0045 -0.0084 0.0048 -0.0081 0.0053 -0.0079 0.0057 -0.0076 0.006 -0.0074 0.0064 -0.0071 0.0068 -0.0069 0.0072 -0.0065 0.0075 -0.0061 0.0078 -0.0059 0.0082 -0.0054 0.0085 -0.0051 0.0089 -0.0047 0.0092 -0.0043 0.0094 -0.0038 0.0095 -0.0033 0.0095 -0.0028 0.0096 -0.0023 0.0096 -0.0018 0.0096 -0.0013 0.0097 -0.0008 0.0096 -0.0004 0.0096 0.0002 0.0095 0.0006 0.0095 0.001 0.0094 0.0015 0.0092 0.0019 0.0092 0.0024 0.009 0.0028 0.0089 0.0033 0.0087 0.0036 0.0086 0.0041 0.0083 0.0045 0.0082 0.0049 0.0079 0.0053 0.0076 0.0056 0.0074 0.0061 0.0071 0.0064 0.0068 0.0068 0.0065 0.0071 0.0062 0.0075 0.0058 0.0078 0.0055 0.0082 0.0051 0.0086 0.0047 0.0088 0.0043 0.0092 -0.3612 0.1576zm0.0043 3.0923l0.0412 -0.085 0.0387 -0.0855 0.0364 -0.0861 0.0341 -0.0867 0.0315 -0.0872 0.0292 -0.0879 0.0267 -0.0884 0.024 -0.0891 0.0216 -0.0898 0.019 -0.0905 0.0164 -0.0912 0.0139 -0.0919 0.011 -0.0926 0.0084 -0.0934 0.0057 -0.0944 0.0029 -0.0951 0.0001 -0.096 -0.0027 -0.097 -0.0056 -0.0978 -0.0086 -0.0987 -0.0116 -0.0999 -0.0145 -0.1008 -0.0176 -0.1017 -0.0208 -0.1029 -0.0239 -0.1039 -0.0271 -0.1051 -0.0304 -0.1061 -0.0336 -0.1072 -0.0371 -0.1084 -0.0403 -0.1094 -0.0439 -0.1107 -0.0474 -0.1119 0.3612 -0.1576 0.0508 0.1201 0.0473 0.1193 0.0437 0.1184 0.0401 0.1176 0.0366 0.1166 0.0332 0.1159 0.0297 0.1151 0.0263 0.1141 0.0228 0.1135 0.0196 0.1125 0.0161 0.1118 0.0128 0.1109 0.0096 0.1101 0.0062 0.1094 0.0031 0.1084 -0.0001 0.1076 -0.0033 0.1067 -0.0063 0.106 -0.0094 0.105 -0.0126 0.1044 -0.0155 0.1033 -0.0184 0.1024 -0.0214 0.1017 -0.0242 0.1006 -0.027 0.0999 -0.0299 0.099 -0.0324 0.0981 -0.0353 0.0972 -0.0377 0.0963 -0.0404 0.0955 -0.0429 0.0947 -0.0454 0.0938 -0.3526 -0.176zm0.3526 0.176l-0.0048 0.009 -0.0051 0.0086 -0.0055 0.0082 -0.0059 0.0079 -0.0062 0.0076 -0.0066 0.0071 -0.0069 0.0069 -0.0071 0.0064 -0.0074 0.006 -0.0077 0.0057 -0.008 0.0052 -0.0081 0.0049 -0.0084 0.0045 -0.0086 0.004 -0.0087 0.0037 -0.0089 0.0032 -0.009 0.0027 -0.0092 0.0024 -0.0093 0.0019 -0.0093 0.0015 -0.0095 0.001 -0.0095 0.0006 -0.0095 0.0001 -0.0096 -0.0004 -0.0096 -0.0008 -0.0095 -0.0014 -0.0096 -0.0018 -0.0095 -0.0022 -0.0095 -0.0028 -0.0093 -0.0033 -0.0093 -0.0038 -0.0092 -0.0043 -0.009 -0.0048 -0.0086 -0.0051 -0.0082 -0.0055 -0.0079 -0.0059 -0.0076 -0.0062 -0.0071 -0.0066 -0.0069 -0.0069 -0.0064 -0.0071 -0.006 -0.0074 -0.0057 -0.0077 -0.0052 -0.008 -0.0049 -0.0081 -0.0045 -0.0084 -0.004 -0.0086 -0.0037 -0.0087 -0.0032 -0.0089 -0.0027 -0.009 -0.0024 -0.0092 -0.0019 -0.0093 -0.0015 -0.0093 -0.001 -0.0095 -0.0006 -0.0095 -0.0001 -0.0095 0.0004 -0.0096 0.0008 -0.0096 0.0014 -0.0095 0.0018 -0.0096 0.0022 -0.0095 0.0028 -0.0095 0.0033 -0.0093 0.0038 -0.0093 0.0043 -0.0092 0.3526 0.176z"/>
    </g>
   </g>
   <g>
    <path class="fil0" d="M4.0459 10.1686l0.3588 0.1628 -0.0044 0.0091 -0.0048 0.0088 -0.0053 0.0085 -0.0055 0.0081 -0.006 0.0077 -0.0063 0.0075 -0.0066 0.007 -0.0069 0.0067 -0.0072 0.0063 -0.0074 0.0059 -0.0078 0.0056 -0.0079 0.0052 -0.0082 0.0047 -0.0084 0.0044 -0.0086 0.0039 -0.0088 0.0036 -0.0089 0.0031 -0.0091 0.0027 -0.0092 0.0022 -0.0093 0.0018 -0.0094 0.0014 -0.0095 0.0009 -0.0095 0.0005 -0.0096 0 -0.0096 -0.0005 -0.0096 -0.001 -0.0096 -0.0014 -0.0096 -0.002 -0.0096 -0.0024 -0.0094 -0.0029 -0.0095 -0.0034 -0.0093 -0.004 -0.0091 -0.0044 -0.0088 -0.0048 -0.0085 -0.0053 -0.0081 -0.0055 -0.0077 -0.006 -0.0075 -0.0063 -0.007 -0.0066 -0.0067 -0.0069 -0.0063 -0.0072 -0.0059 -0.0074 -0.0056 -0.0078 -0.0052 -0.0079 -0.0047 -0.0082 -0.0044 -0.0084 -0.0039 -0.0086 -0.0036 -0.0088 -0.0031 -0.0089 -0.0027 -0.0091 -0.0022 -0.0092 -0.0018 -0.0093 -0.0014 -0.0094 -0.0009 -0.0095 -0.0005 -0.0095 0 -0.0096 0.0005 -0.0096 0.001 -0.0096 0.0014 -0.0096 0.002 -0.0096 0.0024 -0.0096 0.0029 -0.0094 0.0034 -0.0095 0.004 -0.0093zm3.1162 -5.9166l-2.7574 6.0794 -0.3588 -0.1628 2.7574 -6.0794 0.3588 0.1628zm0 0l-0.3588 -0.1628 0.0044 -0.0091 0.0048 -0.0088 0.0053 -0.0085 0.0055 -0.0081 0.006 -0.0077 0.0063 -0.0075 0.0066 -0.007 0.0069 -0.0067 0.0072 -0.0063 0.0074 -0.0059 0.0078 -0.0056 0.0079 -0.0052 0.0082 -0.0047 0.0084 -0.0044 0.0086 -0.0039 0.0088 -0.0036 0.0089 -0.0031 0.0091 -0.0027 0.0092 -0.0022 0.0093 -0.0018 0.0094 -0.0014 0.0095 -0.0009 0.0095 -0.0005 0.0096 0 0.0096 0.0005 0.0096 0.001 0.0096 0.0014 0.0096 0.002 0.0096 0.0024 0.0094 0.0029 0.0095 0.0034 0.0093 0.004 0.0091 0.0044 0.0088 0.0048 0.0085 0.0053 0.0081 0.0055 0.0077 0.006 0.0075 0.0063 0.007 0.0066 0.0067 0.0069 0.0063 0.0072 0.0059 0.0074 0.0056 0.0078 0.0052 0.0079 0.0047 0.0082 0.0044 0.0084 0.0039 0.0086 0.0036 0.0088 0.0031 0.0089 0.0027 0.0091 0.0022 0.0092 0.0018 0.0093 0.0014 0.0094 0.0009 0.0095 0.0005 0.0095 0 0.0096 -0.0005 0.0096 -0.001 0.0096 -0.0014 0.0096 -0.002 0.0096 -0.0024 0.0096 -0.0029 0.0094 -0.0034 0.0095 -0.004 0.0093zm0.9793 -0.1629l-0.3588 0.1628 -0.004 -0.0093 -0.0034 -0.0095 -0.0029 -0.0094 -0.0024 -0.0096 -0.002 -0.0096 -0.0014 -0.0096 -0.001 -0.0096 -0.0005 -0.0096 0 -0.0096 0.0005 -0.0095 0.0009 -0.0095 0.0014 -0.0094 0.0018 -0.0093 0.0022 -0.0092 0.0027 -0.0091 0.0031 -0.0089 0.0036 -0.0088 0.0039 -0.0086 0.0044 -0.0084 0.0047 -0.0082 0.0052 -0.0079 0.0056 -0.0078 0.0059 -0.0074 0.0063 -0.0072 0.0067 -0.0069 0.007 -0.0066 0.0075 -0.0063 0.0077 -0.006 0.0081 -0.0055 0.0085 -0.0053 0.0088 -0.0048 0.0091 -0.0044 0.0093 -0.004 0.0095 -0.0034 0.0094 -0.0029 0.0096 -0.0024 0.0096 -0.002 0.0096 -0.0014 0.0096 -0.001 0.0096 -0.0005 0.0096 0 0.0095 0.0005 0.0095 0.0009 0.0094 0.0014 0.0093 0.0018 0.0092 0.0022 0.0091 0.0027 0.0089 0.0031 0.0088 0.0036 0.0086 0.0039 0.0084 0.0044 0.0082 0.0047 0.0079 0.0052 0.0078 0.0056 0.0074 0.0059 0.0072 0.0063 0.0069 0.0067 0.0066 0.007 0.0063 0.0075 0.006 0.0077 0.0055 0.0081 0.0053 0.0085 0.0048 0.0088 0.0044 0.0091zm2.3984 6.2405l-2.7572 -6.0777 0.3588 -0.1628 2.7572 6.0777 -0.3588 0.1628zm0 0l0.3588 -0.1628 0.004 0.0093 0.0034 0.0095 0.0029 0.0094 0.0024 0.0096 0.002 0.0096 0.0014 0.0096 0.001 0.0096 0.0005 0.0096 0 0.0096 -0.0005 0.0095 -0.0009 0.0095 -0.0014 0.0094 -0.0018 0.0093 -0.0022 0.0092 -0.0027 0.0091 -0.0031 0.0089 -0.0036 0.0088 -0.0039 0.0086 -0.0044 0.0084 -0.0047 0.0082 -0.0052 0.0079 -0.0056 0.0078 -0.0059 0.0074 -0.0063 0.0072 -0.0067 0.0069 -0.007 0.0066 -0.0075 0.0063 -0.0077 0.006 -0.0081 0.0055 -0.0085 0.0053 -0.0088 0.0048 -0.0091 0.0044 -0.0093 0.004 -0.0095 0.0034 -0.0094 0.0029 -0.0096 0.0024 -0.0096 0.002 -0.0096 0.0014 -0.0096 0.001 -0.0096 0.0005 -0.0096 0 -0.0095 -0.0005 -0.0095 -0.0009 -0.0094 -0.0014 -0.0093 -0.0018 -0.0092 -0.0022 -0.0091 -0.0027 -0.0089 -0.0031 -0.0088 -0.0036 -0.0086 -0.0039 -0.0084 -0.0044 -0.0082 -0.0047 -0.0079 -0.0052 -0.0078 -0.0056 -0.0074 -0.0059 -0.0072 -0.0063 -0.0069 -0.0067 -0.0066 -0.007 -0.0063 -0.0075 -0.006 -0.0077 -0.0055 -0.0081 -0.0053 -0.0085 -0.0048 -0.0088 -0.0044 -0.0091zm-1.6856 -7.2384l-0.394 0 0 0 -0.0013 -0.0511 -0.0038 -0.05 -0.0063 -0.0495 -0.0087 -0.0488 -0.011 -0.0476 -0.0133 -0.0468 -0.0155 -0.046 -0.0177 -0.0447 -0.0197 -0.0435 -0.0218 -0.0427 -0.0237 -0.0413 -0.0258 -0.0401 -0.0276 -0.0388 -0.0293 -0.0373 -0.0312 -0.036 -0.0326 -0.0343 -0.0343 -0.0326 -0.0359 -0.0311 -0.0375 -0.0294 -0.0388 -0.0276 -0.04 -0.0258 -0.0413 -0.0237 -0.0426 -0.0218 -0.0437 -0.0197 -0.0448 -0.0177 -0.0458 -0.0155 -0.0468 -0.0133 -0.0477 -0.011 -0.0488 -0.0087 -0.0495 -0.0063 -0.05 -0.0038 -0.0511 -0.0013 0 -0.394 0.0709 0.0017 0.0702 0.0054 0.0691 0.0089 0.068 0.0121 0.0669 0.0154 0.0658 0.0187 0.0642 0.0217 0.0628 0.0247 0.0613 0.0277 0.0596 0.0306 0.0579 0.0333 0.0562 0.036 0.054 0.0384 0.0521 0.041 0.0501 0.0433 0.0481 0.0458 0.0458 0.0481 0.0432 0.05 0.0411 0.0521 0.0384 0.0542 0.036 0.0561 0.0333 0.0579 0.0306 0.0595 0.0277 0.0613 0.0247 0.0629 0.0217 0.0642 0.0187 0.0656 0.0154 0.067 0.0121 0.068 0.0089 0.0691 0.0054 0.0702 0.0017 0.0709 0 0zm-0.8106 1.2586l-0.1632 -0.3586 0.0001 -0.0001 0.0317 -0.015 0.0311 -0.0163 0.0305 -0.0172 0.0297 -0.0183 0.0291 -0.0192 0.0281 -0.0203 0.0278 -0.0214 0.0268 -0.0222 0.0262 -0.0233 0.0251 -0.0238 0.0241 -0.0247 0.0236 -0.026 0.0226 -0.0264 0.0215 -0.0273 0.0206 -0.0281 0.0198 -0.0289 0.0186 -0.0295 0.0176 -0.0301 0.0166 -0.031 0.0155 -0.0314 0.0143 -0.0321 0.0134 -0.0328 0.0119 -0.033 0.011 -0.0338 0.0098 -0.0346 0.0085 -0.0348 0.0072 -0.0351 0.0061 -0.0359 0.0047 -0.0363 0.0034 -0.0367 0.0021 -0.0369 0.0007 -0.0375 0.394 0 -0.0009 0.0521 -0.0029 0.0517 -0.0048 0.0513 -0.0067 0.0505 -0.0083 0.0499 -0.0102 0.0497 -0.0121 0.0488 -0.0136 0.048 -0.0152 0.0474 -0.0171 0.0468 -0.0186 0.0458 -0.0201 0.0449 -0.0217 0.0442 -0.0232 0.0432 -0.0246 0.0423 -0.0262 0.0413 -0.0274 0.0403 -0.0288 0.0391 -0.0303 0.0383 -0.0314 0.037 -0.0326 0.0358 -0.0341 0.0349 -0.0353 0.0336 -0.0362 0.0321 -0.0374 0.031 -0.0384 0.0296 -0.0397 0.0285 -0.0407 0.027 -0.0417 0.0257 -0.0425 0.024 -0.0435 0.0227 -0.0445 0.0212 0.0001 -0.0001zm-0.5713 0.1234l0 -0.394 0 0 0.014 -0.0001 0.0132 -0.0002 0.0132 -0.0005 0.0143 -0.0007 0.0137 -0.0008 0.013 -0.001 0.0128 -0.0011 0.0134 -0.0014 0.0141 -0.0016 0.0126 -0.0016 0.0133 -0.0019 0.0131 -0.002 0.0124 -0.0022 0.0136 -0.0025 0.0129 -0.0025 0.0122 -0.0026 0.0134 -0.0031 0.0128 -0.003 0.0125 -0.0032 0.0124 -0.0033 0.0124 -0.0036 0.0128 -0.0037 0.0123 -0.0039 0.0123 -0.004 0.012 -0.0041 0.012 -0.0042 0.0118 -0.0044 0.0123 -0.0048 0.0122 -0.0049 0.0118 -0.0049 0.0116 -0.0049 0.0117 -0.0053 0.1632 0.3586 -0.0163 0.0073 -0.0168 0.0073 -0.0166 0.0069 -0.0164 0.0065 -0.0165 0.0064 -0.0172 0.0064 -0.0172 0.0062 -0.0174 0.0059 -0.0173 0.0056 -0.0173 0.0053 -0.017 0.0051 -0.0176 0.005 -0.0178 0.0047 -0.0179 0.0046 -0.0178 0.0042 -0.0172 0.0039 -0.0186 0.004 -0.0181 0.0035 -0.0174 0.0033 -0.0188 0.0032 -0.0183 0.0028 -0.0183 0.0027 -0.019 0.0024 -0.0177 0.002 -0.0184 0.002 -0.0192 0.0017 -0.0192 0.0014 -0.0185 0.001 -0.0181 0.0009 -0.0192 0.0007 -0.0194 0.0004 -0.0188 0.0001 0 0zm-0.5711 -0.1232l0.163 -0.3588 0 0 0.0118 0.0054 0.0116 0.0049 0.0118 0.0049 0.012 0.0048 0.0118 0.0046 0.0121 0.0044 0.0127 0.0045 0.0119 0.0041 0.0121 0.0039 0.0127 0.004 0.0124 0.0037 0.0125 0.0035 0.0126 0.0034 0.0124 0.0031 0.0126 0.0031 0.0128 0.0028 0.0128 0.0028 0.0129 0.0025 0.0136 0.0025 0.0124 0.0022 0.0132 0.002 0.0131 0.0019 0.0127 0.0016 0.014 0.0016 0.0134 0.0014 0.013 0.0011 0.0128 0.001 0.0138 0.0008 0.0142 0.0007 0.0132 0.0005 0.0133 0.0002 0.0139 0.0001 0 0.394 -0.0187 -0.0001 -0.0193 -0.0004 -0.0194 -0.0007 -0.018 -0.0009 -0.0186 -0.001 -0.0192 -0.0014 -0.019 -0.0017 -0.0186 -0.002 -0.0176 -0.002 -0.0191 -0.0024 -0.0183 -0.0027 -0.0182 -0.0028 -0.0188 -0.0032 -0.0174 -0.0033 -0.0181 -0.0035 -0.018 -0.0038 -0.0178 -0.004 -0.018 -0.0043 -0.0178 -0.0045 -0.0176 -0.0048 -0.0175 -0.0049 -0.0176 -0.0053 -0.0169 -0.0052 -0.0175 -0.0057 -0.0173 -0.0059 -0.0165 -0.0059 -0.0169 -0.0062 -0.0172 -0.0066 -0.0166 -0.0066 -0.0166 -0.0069 -0.0168 -0.0073 -0.0162 -0.0072 0 0zm-0.8108 -1.2588l0.394 0 0 0 0.0007 0.0375 0.0021 0.037 0.0034 0.0366 0.0047 0.0363 0.0061 0.036 0.0072 0.0351 0.0085 0.0347 0.0098 0.0345 0.0109 0.0338 0.0121 0.0332 0.0133 0.0327 0.0144 0.0321 0.0156 0.0317 0.0164 0.0308 0.0176 0.0299 0.0188 0.0298 0.0196 0.0287 0.0206 0.028 0.0216 0.0274 0.0227 0.0267 0.0235 0.0258 0.0241 0.0247 0.0252 0.0239 0.026 0.0232 0.0269 0.0222 0.0277 0.0214 0.0281 0.0202 0.0292 0.0193 0.0297 0.0183 0.0305 0.0172 0.0311 0.0163 0.0317 0.015 -0.163 0.3588 -0.0445 -0.0212 -0.0435 -0.0227 -0.0425 -0.024 -0.0417 -0.0257 -0.0406 -0.0269 -0.0399 -0.0286 -0.0383 -0.0296 -0.0375 -0.031 -0.0362 -0.0322 -0.0352 -0.0335 -0.0341 -0.0349 -0.0327 -0.036 -0.0313 -0.0369 -0.0302 -0.038 -0.029 -0.0394 -0.0274 -0.0403 -0.026 -0.041 -0.0248 -0.0425 -0.0232 -0.0434 -0.0216 -0.0439 -0.0202 -0.0451 -0.0185 -0.0457 -0.0171 -0.0468 -0.0153 -0.0474 -0.0136 -0.0479 -0.0121 -0.0489 -0.0102 -0.0497 -0.0083 -0.05 -0.0067 -0.0505 -0.0048 -0.0512 -0.0029 -0.0518 -0.0009 -0.0521 0 0zm1.3819 -1.3818l0 0.394 0 0 -0.0511 0.0013 -0.05 0.0038 -0.0495 0.0063 -0.0488 0.0087 -0.0477 0.011 -0.0468 0.0133 -0.0458 0.0155 -0.0448 0.0177 -0.0437 0.0197 -0.0426 0.0218 -0.0413 0.0237 -0.04 0.0258 -0.0388 0.0276 -0.0375 0.0294 -0.0359 0.0311 -0.0343 0.0326 -0.0326 0.0343 -0.0312 0.036 -0.0293 0.0373 -0.0276 0.0388 -0.0258 0.0401 -0.0237 0.0413 -0.0218 0.0427 -0.0197 0.0435 -0.0177 0.0447 -0.0155 0.046 -0.0133 0.0468 -0.011 0.0476 -0.0087 0.0488 -0.0063 0.0495 -0.0038 0.05 -0.0013 0.0511 -0.394 0 0.0017 -0.0709 0.0054 -0.0702 0.0089 -0.0691 0.0121 -0.068 0.0154 -0.067 0.0187 -0.0656 0.0217 -0.0642 0.0247 -0.0629 0.0277 -0.0613 0.0306 -0.0595 0.0333 -0.0579 0.036 -0.0561 0.0384 -0.0542 0.0411 -0.0521 0.0432 -0.05 0.0458 -0.0481 0.0481 -0.0458 0.0501 -0.0433 0.0521 -0.041 0.054 -0.0384 0.0562 -0.036 0.0579 -0.0333 0.0596 -0.0306 0.0613 -0.0277 0.0628 -0.0247 0.0642 -0.0217 0.0658 -0.0187 0.0669 -0.0154 0.068 -0.0121 0.0691 -0.0089 0.0702 -0.0054 0.0709 -0.0017 0 0z"/>
   </g>
   <g>
    <path class="fil0" d="M5.8487 6.4736l0.0002 0.394 -0.0101 -0.0003 -0.01 -0.0007 -0.0099 -0.0013 -0.0097 -0.0017 -0.0095 -0.0022 -0.0094 -0.0026 -0.0091 -0.0031 -0.009 -0.0036 -0.0087 -0.0039 -0.0085 -0.0044 -0.0083 -0.0047 -0.008 -0.0051 -0.0077 -0.0055 -0.0075 -0.0058 -0.0071 -0.0062 -0.0069 -0.0065 -0.0065 -0.0069 -0.0062 -0.0071 -0.0058 -0.0075 -0.0055 -0.0077 -0.0052 -0.008 -0.0047 -0.0082 -0.0044 -0.0085 -0.0039 -0.0087 -0.0035 -0.009 -0.0031 -0.0091 -0.0027 -0.0094 -0.0022 -0.0095 -0.0017 -0.0097 -0.0013 -0.0099 -0.0007 -0.01 -0.0003 -0.0101 0.0003 -0.0101 0.0007 -0.01 0.0013 -0.0099 0.0017 -0.0097 0.0022 -0.0095 0.0026 -0.0094 0.0031 -0.0091 0.0036 -0.009 0.0039 -0.0087 0.0044 -0.0085 0.0047 -0.0083 0.0051 -0.008 0.0055 -0.0077 0.0058 -0.0075 0.0062 -0.0071 0.0065 -0.0068 0.0069 -0.0066 0.0071 -0.0062 0.0075 -0.0058 0.0077 -0.0055 0.008 -0.0052 0.0082 -0.0047 0.0085 -0.0044 0.0087 -0.0039 0.009 -0.0035 0.0091 -0.0031 0.0094 -0.0027 0.0095 -0.0022 0.0097 -0.0017 0.0099 -0.0013 0.01 -0.0007 0.0101 -0.0003zm3.2471 0.3931l-3.2469 0.0009 -0.0002 -0.394 3.2469 -0.0009 0.0002 0.394zm0 0l-0.0002 -0.394 0.0101 0.0003 0.01 0.0007 0.0099 0.0013 0.0097 0.0017 0.0095 0.0022 0.0094 0.0026 0.0091 0.0031 0.009 0.0036 0.0087 0.0039 0.0085 0.0044 0.0083 0.0047 0.008 0.0051 0.0077 0.0055 0.0075 0.0058 0.0071 0.0062 0.0069 0.0066 0.0065 0.0068 0.0062 0.0071 0.0058 0.0075 0.0055 0.0077 0.0052 0.008 0.0047 0.0082 0.0044 0.0085 0.0039 0.0087 0.0035 0.009 0.0031 0.0091 0.0027 0.0094 0.0022 0.0095 0.0017 0.0097 0.0013 0.0099 0.0007 0.01 0.0003 0.0101 -0.0003 0.0101 -0.0007 0.01 -0.0013 0.0099 -0.0017 0.0097 -0.0022 0.0095 -0.0026 0.0094 -0.0031 0.0091 -0.0036 0.009 -0.0039 0.0087 -0.0044 0.0085 -0.0047 0.0083 -0.0051 0.008 -0.0055 0.0077 -0.0058 0.0075 -0.0062 0.0071 -0.0065 0.0069 -0.0069 0.0065 -0.0071 0.0062 -0.0075 0.0058 -0.0077 0.0055 -0.008 0.0052 -0.0082 0.0047 -0.0085 0.0044 -0.0087 0.0039 -0.009 0.0035 -0.0091 0.0031 -0.0094 0.0027 -0.0095 0.0022 -0.0097 0.0017 -0.0099 0.0013 -0.01 0.0007 -0.0101 0.0003z"/>
   </g>
   <g>
    <path class="fil0" d="M5.0323 8.3063l0 0.394 -0.0101 -0.0003 -0.0099 -0.0007 -0.0098 -0.0013 -0.0096 -0.0017 -0.0095 -0.0022 -0.0093 -0.0027 -0.0091 -0.0031 -0.0088 -0.0035 -0.0087 -0.0039 -0.0084 -0.0044 -0.0082 -0.0047 -0.008 -0.0051 -0.0077 -0.0055 -0.0073 -0.0059 -0.0072 -0.0062 -0.0068 -0.0065 -0.0064 -0.0068 -0.0062 -0.0072 -0.0058 -0.0074 -0.0055 -0.0078 -0.005 -0.0079 -0.0048 -0.0083 -0.0043 -0.0085 -0.0039 -0.0087 -0.0035 -0.009 -0.0031 -0.0091 -0.0026 -0.0094 -0.0022 -0.0095 -0.0017 -0.0097 -0.0013 -0.0099 -0.0007 -0.01 -0.0003 -0.0101 0.0003 -0.0101 0.0007 -0.01 0.0013 -0.0099 0.0017 -0.0097 0.0022 -0.0095 0.0026 -0.0094 0.0031 -0.0091 0.0035 -0.009 0.0039 -0.0087 0.0043 -0.0085 0.0048 -0.0083 0.005 -0.0079 0.0055 -0.0078 0.0058 -0.0074 0.0062 -0.0072 0.0064 -0.0068 0.0068 -0.0065 0.0072 -0.0062 0.0073 -0.0059 0.0077 -0.0055 0.008 -0.0051 0.0082 -0.0047 0.0084 -0.0044 0.0087 -0.0039 0.0088 -0.0035 0.0091 -0.0031 0.0093 -0.0027 0.0095 -0.0022 0.0096 -0.0017 0.0098 -0.0013 0.0099 -0.0007 0.0101 -0.0003zm4.8834 0.394l-4.8834 0 0 -0.394 4.8834 0 0 0.394zm0 0l0 -0.394 0.0101 0.0003 0.0099 0.0007 0.0098 0.0013 0.0096 0.0017 0.0095 0.0022 0.0093 0.0027 0.0091 0.0031 0.0088 0.0035 0.0087 0.0039 0.0084 0.0044 0.0082 0.0047 0.008 0.0051 0.0077 0.0055 0.0073 0.0059 0.0072 0.0062 0.0068 0.0065 0.0064 0.0068 0.0062 0.0072 0.0058 0.0074 0.0055 0.0078 0.005 0.0079 0.0048 0.0083 0.0043 0.0085 0.0039 0.0087 0.0035 0.009 0.0031 0.0091 0.0026 0.0094 0.0022 0.0095 0.0017 0.0097 0.0013 0.0099 0.0007 0.01 0.0003 0.0101 -0.0003 0.0101 -0.0007 0.01 -0.0013 0.0099 -0.0017 0.0097 -0.0022 0.0095 -0.0026 0.0094 -0.0031 0.0091 -0.0035 0.009 -0.0039 0.0087 -0.0043 0.0085 -0.0048 0.0083 -0.005 0.0079 -0.0055 0.0078 -0.0058 0.0074 -0.0062 0.0072 -0.0064 0.0068 -0.0068 0.0065 -0.0072 0.0062 -0.0073 0.0059 -0.0077 0.0055 -0.008 0.0051 -0.0082 0.0047 -0.0084 0.0044 -0.0087 0.0039 -0.0088 0.0035 -0.0091 0.0031 -0.0093 0.0027 -0.0095 0.0022 -0.0096 0.0017 -0.0098 0.0013 -0.0099 0.0007 -0.0101 0.0003z"/>
   </g>
  </g>
 </g>
</svg>
