<?xml version="1.0" encoding="UTF-8"?>
<!DOCTYPE svg PUBLIC "-//W3C//DTD SVG 1.1//EN" "http://www.w3.org/Graphics/SVG/1.1/DTD/svg11.dtd">
<!-- Creator: CorelDRAW -->
<svg xmlns="http://www.w3.org/2000/svg" xml:space="preserve" width="15mm" height="11mm" style="shape-rendering:geometricPrecision; text-rendering:geometricPrecision; image-rendering:optimizeQuality; fill-rule:evenodd; clip-rule:evenodd"
viewBox="0 0 15 11"
 xmlns:xlink="http://www.w3.org/1999/xlink">
 <defs>
  <style type="text/css">
   <![CDATA[
    .str0 {stroke:#B73128;stroke-width:0.3387}
    .fil0 {fill:none}
   ]]>
  </style>
 </defs>
 <g id="Layer_x0020_1">
  <metadata id="CorelCorpID_0Corel-Layer"/>
  <path id="newspaper-regular.svg" class="fil0 str0" d="M5.5357 1.5714c-0.2969,0 -0.5357,0.2389 -0.5357,0.5357l0 6.7858c0,0.1875 -0.0313,0.3683 -0.0915,0.5357l6.6987 0c0.2968,0 0.5357,-0.2389 0.5357,-0.5357l0 -6.7858c0,-0.2968 -0.2389,-0.5357 -0.5357,-0.5357l-6.0715 0zm-2.1429 8.9286c-0.8883,0 -1.6071,-0.7187 -1.6071,-1.6071l0 -6.6072c0,-0.2969 0.2388,-0.5357 0.5357,-0.5357 0.2969,0 0.5357,0.2388 0.5357,0.5357l0 6.6072c0,0.2968 0.2389,0.5357 0.5357,0.5357 0.2969,0 0.5358,-0.2389 0.5358,-0.5357l0 -6.7858c0,-0.8884 0.7187,-1.6071 1.6071,-1.6071l6.0715 0c0.8883,0 1.6071,0.7187 1.6071,1.6071l0 6.7858c0,0.8884 -0.7188,1.6071 -1.6071,1.6071l-8.2144 0zm2.3215 -7.6786c0,-0.2968 0.2388,-0.5357 0.5357,-0.5357l2.1429 0c0.2968,0 0.5357,0.2389 0.5357,0.5357l0 1.7857c0,0.2969 -0.2389,0.5358 -0.5357,0.5358l-2.1429 0c-0.2969,0 -0.5357,-0.2389 -0.5357,-0.5358l0 -1.7857zm4.4643 -0.5357l0.7143 0c0.2968,0 0.5357,0.2389 0.5357,0.5357 0,0.2969 -0.2389,0.5357 -0.5357,0.5357l-0.7143 0c-0.2969,0 -0.5357,-0.2388 -0.5357,-0.5357 0,-0.2968 0.2388,-0.5357 0.5357,-0.5357zm0 1.7857l0.7143 0c0.2968,0 0.5357,0.2389 0.5357,0.5357 0,0.2969 -0.2389,0.5358 -0.5357,0.5358l-0.7143 0c-0.2969,0 -0.5357,-0.2389 -0.5357,-0.5358 0,-0.2968 0.2388,-0.5357 0.5357,-0.5357zm-3.9286 1.7857l4.6429 0c0.2968,0 0.5357,0.2389 0.5357,0.5358 0,0.2968 -0.2389,0.5357 -0.5357,0.5357l-4.6429 0c-0.2969,0 -0.5357,-0.2389 -0.5357,-0.5357 0,-0.2969 0.2388,-0.5358 0.5357,-0.5358zm0 1.7858l4.6429 0c0.2968,0 0.5357,0.2388 0.5357,0.5357 0,0.2968 -0.2389,0.5357 -0.5357,0.5357l-4.6429 0c-0.2969,0 -0.5357,-0.2389 -0.5357,-0.5357 0,-0.2969 0.2388,-0.5357 0.5357,-0.5357z"/>
 </g>
</svg>
