<?xml version="1.0" encoding="UTF-8"?>
<!DOCTYPE svg PUBLIC "-//W3C//DTD SVG 1.1//EN" "http://www.w3.org/Graphics/SVG/1.1/DTD/svg11.dtd">
<!-- Creator: CorelDRAW -->
<svg xmlns="http://www.w3.org/2000/svg" xml:space="preserve" width="15mm" height="11mm" style="shape-rendering:geometricPrecision; text-rendering:geometricPrecision; image-rendering:optimizeQuality; fill-rule:evenodd; clip-rule:evenodd"
viewBox="0 0 15 11"
 xmlns:xlink="http://www.w3.org/1999/xlink">
 <defs>
  <style type="text/css">
   <![CDATA[
    .str0 {stroke:#B73128;stroke-width:0.3387}
    .fil0 {fill:none}
   ]]>
  </style>
 </defs>
 <g id="Layer_x0020_1">
  <metadata id="CorelCorpID_0Corel-Layer"/>
  <path id="basket-shopping-solid.svg" class="fil0 str0" d="M6.8223 1.1855c0.1191,-0.2304 0.0293,-0.5136 -0.1993,-0.6328 -0.2285,-0.1191 -0.5136,-0.0293 -0.6328,0.1992l-1.8183 3.4981 -1.6719 0c-0.3457,0 -0.625,0.2793 -0.625,0.625 0,0.3457 0.2793,0.625 0.625,0.625l1.0137 4.0527c0.1386,0.5567 0.6386,0.9473 1.2129,0.9473l5.5468 0c0.5743,0 1.0743,-0.3906 1.2129,-0.9473l1.0137 -4.0527c0.3457,0 0.625,-0.2793 0.625,-0.625 0,-0.3457 -0.2793,-0.625 -0.625,-0.625l-1.6719 0 -1.8183 -3.4981c-0.1192,-0.2285 -0.4024,-0.3183 -0.6328,-0.1992 -0.2305,0.1192 -0.3184,0.4024 -0.1993,0.6328l1.5938 3.0645 -4.543 0 1.5938 -3.0645zm-1.1973 5.252l0 1.875c0,0.1719 -0.1406,0.3125 -0.3125,0.3125 -0.1719,0 -0.3125,-0.1406 -0.3125,-0.3125l0 -1.875c0,-0.1719 0.1406,-0.3125 0.3125,-0.3125 0.1719,0 0.3125,0.1406 0.3125,0.3125zm1.875 -0.3125c0.1719,0 0.3125,0.1406 0.3125,0.3125l0 1.875c0,0.1719 -0.1406,0.3125 -0.3125,0.3125 -0.1719,0 -0.3125,-0.1406 -0.3125,-0.3125l0 -1.875c0,-0.1719 0.1406,-0.3125 0.3125,-0.3125zm2.5 0.3125l0 1.875c0,0.1719 -0.1406,0.3125 -0.3125,0.3125 -0.1719,0 -0.3125,-0.1406 -0.3125,-0.3125l0 -1.875c0,-0.1719 0.1406,-0.3125 0.3125,-0.3125 0.1719,0 0.3125,0.1406 0.3125,0.3125z"/>
 </g>
</svg>
