<?xml version="1.0" encoding="UTF-8"?>
<!DOCTYPE svg PUBLIC "-//W3C//DTD SVG 1.1//EN" "http://www.w3.org/Graphics/SVG/1.1/DTD/svg11.dtd">
<!-- Creator: CorelDRAW -->
<svg xmlns="http://www.w3.org/2000/svg" xml:space="preserve" width="15mm" height="11mm" style="shape-rendering:geometricPrecision; text-rendering:geometricPrecision; image-rendering:optimizeQuality; fill-rule:evenodd; clip-rule:evenodd"
viewBox="0 0 15 11"
 xmlns:xlink="http://www.w3.org/1999/xlink">
 <defs>
  <style type="text/css">
   <![CDATA[
    .fil0 {fill:#B73128;fill-rule:nonzero}
   ]]>
  </style>
 </defs>
 <g id="Layer_x0020_1">
  <metadata id="CorelCorpID_0Corel-Layer"/>
  <g>
   <path id="youtube.svg" class="fil0" d="M12.7279 1.2224l0.1016 -0.3766 -0.0001 0 0.0603 0.0173 0.0598 0.0194 0.0588 0.0213 0.0576 0.023 0.0569 0.025 0.056 0.0268 0.0547 0.0285 0.0537 0.0302 0.0525 0.0319 0.0516 0.0336 0.0504 0.0353 0.049 0.0368 0.0478 0.0383 0.0464 0.0397 0.0453 0.0414 0.0439 0.0428 0.0424 0.0441 0.041 0.0454 0.0395 0.0468 0.0381 0.0481 0.0367 0.0495 0.0348 0.0505 0.0334 0.0517 0.0318 0.0532 0.0299 0.0539 0.0283 0.055 0.0265 0.0562 0.0248 0.0571 0.0229 0.058 0.0211 0.059 0.0192 0.06 0.0172 0.0608 -0.377 0.1 -0.0136 -0.0482 -0.0152 -0.0474 -0.0167 -0.0468 -0.0183 -0.0462 -0.0196 -0.0455 -0.0211 -0.0444 -0.0225 -0.0438 -0.0239 -0.0431 -0.025 -0.0418 -0.0266 -0.0411 -0.0278 -0.0403 -0.0289 -0.0391 -0.0303 -0.0383 -0.0315 -0.0372 -0.0326 -0.0362 -0.0338 -0.0351 -0.0347 -0.034 -0.0359 -0.0326 -0.037 -0.0317 -0.038 -0.0305 -0.039 -0.0292 -0.0398 -0.0279 -0.0408 -0.0266 -0.0417 -0.0253 -0.0427 -0.024 -0.0435 -0.0227 -0.044 -0.0212 -0.0449 -0.0196 -0.046 -0.0184 -0.0464 -0.0169 -0.047 -0.0152 -0.0479 -0.0137 -0.0001 0zm0.1015 -0.3766l-0.1014 0.3766 -0.0096 -0.0029 -0.0094 -0.0033 -0.0091 -0.0037 -0.0088 -0.0041 -0.0085 -0.0046 -0.0083 -0.005 -0.0079 -0.0053 -0.0077 -0.0056 -0.0073 -0.0061 -0.007 -0.0063 -0.0067 -0.0067 -0.0063 -0.0069 -0.0059 -0.0073 -0.0057 -0.0075 -0.0052 -0.0077 -0.0049 -0.008 -0.0044 -0.0083 -0.0041 -0.0084 -0.0037 -0.0086 -0.0033 -0.0088 -0.0028 -0.009 -0.0024 -0.0091 -0.002 -0.0092 -0.0015 -0.0094 -0.0011 -0.0094 -0.0006 -0.0096 -0.0001 -0.0096 0.0003 -0.0096 0.0009 -0.0098 0.0013 -0.0097 0.0018 -0.0098 0.0024 -0.0097 0.0029 -0.0096 0.0033 -0.0094 0.0037 -0.0091 0.0041 -0.0088 0.0046 -0.0085 0.005 -0.0083 0.0053 -0.0079 0.0056 -0.0077 0.0061 -0.0073 0.0063 -0.007 0.0067 -0.0067 0.0069 -0.0063 0.0073 -0.0059 0.0075 -0.0057 0.0077 -0.0052 0.008 -0.0049 0.0083 -0.0044 0.0084 -0.0041 0.0086 -0.0037 0.0088 -0.0033 0.009 -0.0028 0.0091 -0.0024 0.0092 -0.002 0.0094 -0.0015 0.0094 -0.0011 0.0096 -0.0006 0.0096 -0.0001 0.0096 0.0003 0.0098 0.0009 0.0097 0.0013 0.0098 0.0018 0.0097 0.0024zm-5.3294 0.0992l0 -0.39 0 0 0.0126 0 0.0355 0.0001 0.0579 0.0001 0.0786 0.0004 0.0978 0.0005 0.116 0.0008 0.1324 0.0011 0.1479 0.0014 0.1619 0.0019 0.1743 0.0024 0.1856 0.0028 0.1956 0.0035 0.204 0.004 0.2113 0.0048 0.217 0.0056 0.2216 0.0062 0.2248 0.0071 0.2266 0.008 0.2269 0.009 0.2261 0.0099 0.224 0.011 0.2204 0.012 0.2155 0.0133 0.2094 0.0145 0.2019 0.0158 0.1931 0.0171 0.183 0.0185 0.1721 0.02 0.1595 0.0218 0.1463 0.0234 0.1322 0.0256 0.1177 0.0282 -0.1016 0.3766 -0.0979 -0.0234 -0.118 -0.0228 -0.1357 -0.0218 -0.1513 -0.0206 -0.1653 -0.0192 -0.1778 -0.0181 -0.1887 -0.0167 -0.1981 -0.0154 -0.2062 -0.0143 -0.2127 -0.0131 -0.218 -0.012 -0.2218 -0.0108 -0.2243 -0.0099 -0.2253 -0.0088 -0.225 -0.008 -0.2234 -0.0071 -0.2204 -0.0062 -0.216 -0.0054 -0.2101 -0.0048 -0.2032 -0.004 -0.1946 -0.0035 -0.1848 -0.0028 -0.1737 -0.0024 -0.1611 -0.0019 -0.1471 -0.0014 -0.132 -0.0011 -0.1154 -0.0008 -0.0974 -0.0005 -0.078 -0.0004 -0.0573 -0.0001 -0.0355 -0.0001 -0.0118 0 0 0zm0 -0.39l0 0.39 -0.01 -0.0003 -0.0099 -0.0007 -0.0098 -0.0012 -0.0096 -0.0018 -0.0094 -0.0021 -0.0093 -0.0027 -0.009 -0.003 -0.0089 -0.0035 -0.0086 -0.0039 -0.0084 -0.0044 -0.0082 -0.0047 -0.0079 -0.005 -0.0076 -0.0055 -0.0074 -0.0058 -0.0071 -0.0061 -0.0068 -0.0065 -0.0064 -0.0067 -0.0061 -0.0071 -0.0058 -0.0074 -0.0055 -0.0076 -0.005 -0.0079 -0.0047 -0.0082 -0.0044 -0.0084 -0.0039 -0.0086 -0.0035 -0.0089 -0.003 -0.009 -0.0027 -0.0093 -0.0021 -0.0094 -0.0018 -0.0096 -0.0012 -0.0098 -0.0007 -0.0099 -0.0003 -0.01 0.0003 -0.01 0.0007 -0.0099 0.0012 -0.0098 0.0018 -0.0096 0.0021 -0.0094 0.0027 -0.0093 0.003 -0.009 0.0035 -0.0089 0.0039 -0.0086 0.0044 -0.0084 0.0047 -0.0082 0.005 -0.0079 0.0055 -0.0076 0.0058 -0.0074 0.0061 -0.0071 0.0064 -0.0068 0.0068 -0.0064 0.0071 -0.0061 0.0074 -0.0058 0.0076 -0.0055 0.0079 -0.005 0.0082 -0.0047 0.0084 -0.0044 0.0086 -0.0039 0.0089 -0.0035 0.009 -0.003 0.0093 -0.0027 0.0094 -0.0021 0.0096 -0.0018 0.0098 -0.0012 0.0099 -0.0007 0.01 -0.0003zm-5.228 0.6675l-0.1014 -0.3766 -0.0001 0 0.1177 -0.0282 0.1322 -0.0255 0.1463 -0.0236 0.1595 -0.0217 0.172 -0.0201 0.1831 -0.0185 0.1931 -0.0171 0.2019 -0.0158 0.2094 -0.0145 0.2155 -0.0132 0.2204 -0.0121 0.224 -0.011 0.2261 -0.0099 0.2269 -0.009 0.2266 -0.008 0.2248 -0.0071 0.2216 -0.0062 0.217 -0.0056 0.2113 -0.0047 0.204 -0.0041 0.1956 -0.0035 0.1856 -0.0028 0.1743 -0.0024 0.1619 -0.0019 0.1479 -0.0014 0.1324 -0.0011 0.116 -0.0008 0.0978 -0.0005 0.0786 -0.0004 0.0579 -0.0001 0.0355 -0.0001 0.0126 0 0 0.39 -0.0118 0 -0.0355 0.0001 -0.0573 0.0001 -0.078 0.0004 -0.0974 0.0005 -0.1154 0.0008 -0.132 0.0011 -0.1471 0.0014 -0.1611 0.0019 -0.1737 0.0024 -0.1848 0.0028 -0.1946 0.0035 -0.2032 0.0041 -0.2101 0.0047 -0.216 0.0054 -0.2204 0.0062 -0.2234 0.0071 -0.225 0.008 -0.2253 0.0088 -0.2243 0.0099 -0.2218 0.0108 -0.218 0.0121 -0.2127 0.013 -0.2062 0.0143 -0.1981 0.0154 -0.1887 0.0167 -0.1777 0.0181 -0.1654 0.0193 -0.1513 0.0205 -0.1357 0.0218 -0.118 0.0229 -0.0979 0.0234 -0.0001 0zm-0.1015 -0.3766l0.1016 0.3766 -0.0097 0.0024 -0.0098 0.0018 -0.0097 0.0014 -0.0098 0.0008 -0.0096 0.0003 -0.0096 -0.0001 -0.0096 -0.0006 -0.0095 -0.0011 -0.0093 -0.0015 -0.0093 -0.002 -0.0091 -0.0024 -0.0089 -0.0028 -0.0088 -0.0033 -0.0087 -0.0036 -0.0084 -0.0041 -0.0082 -0.0045 -0.008 -0.0048 -0.0078 -0.0053 -0.0075 -0.0056 -0.0072 -0.006 -0.007 -0.0063 -0.0067 -0.0066 -0.0063 -0.007 -0.006 -0.0073 -0.0057 -0.0077 -0.0053 -0.0079 -0.005 -0.0083 -0.0045 -0.0085 -0.0042 -0.0088 -0.0037 -0.0091 -0.0033 -0.0094 -0.0029 -0.0096 -0.0024 -0.0097 -0.0018 -0.0098 -0.0014 -0.0097 -0.0008 -0.0098 -0.0003 -0.0096 0.0001 -0.0096 0.0006 -0.0096 0.0011 -0.0095 0.0015 -0.0093 0.002 -0.0093 0.0024 -0.0091 0.0028 -0.0089 0.0033 -0.0088 0.0036 -0.0087 0.0041 -0.0084 0.0045 -0.0082 0.0048 -0.008 0.0053 -0.0078 0.0056 -0.0075 0.006 -0.0072 0.0063 -0.007 0.0066 -0.0067 0.007 -0.0063 0.0073 -0.006 0.0077 -0.0057 0.0079 -0.0053 0.0083 -0.005 0.0085 -0.0045 0.0088 -0.0042 0.0091 -0.0037 0.0094 -0.0033 0.0096 -0.0029zm-0.9553 1.4408l-0.3768 -0.1004 -0.0001 0.0001 0.0172 -0.0607 0.0192 -0.06 0.0211 -0.059 0.0229 -0.058 0.0248 -0.0571 0.0265 -0.0562 0.0284 -0.0551 0.03 -0.054 0.0316 -0.0529 0.0334 -0.0518 0.035 -0.0506 0.0365 -0.0492 0.038 -0.0482 0.0396 -0.0469 0.041 -0.0454 0.0425 -0.0441 0.0439 -0.0428 0.0452 -0.0414 0.0466 -0.0397 0.0477 -0.0383 0.049 -0.0368 0.0503 -0.0352 0.0516 -0.0337 0.0526 -0.0319 0.0536 -0.0301 0.0547 -0.0286 0.056 -0.0269 0.057 -0.0249 0.0575 -0.023 0.0588 -0.0213 0.0598 -0.0194 0.0603 -0.0173 0.1014 0.3766 -0.0479 0.0137 -0.047 0.0152 -0.0464 0.0169 -0.0459 0.0184 -0.045 0.0197 -0.044 0.0211 -0.0435 0.0226 -0.0426 0.0241 -0.0418 0.0253 -0.0406 0.0265 -0.0399 0.028 -0.039 0.0292 -0.0381 0.0305 -0.037 0.0317 -0.0358 0.0326 -0.0349 0.034 -0.0337 0.0351 -0.0326 0.0362 -0.0314 0.0371 -0.0302 0.0382 -0.0291 0.0394 -0.0278 0.0402 -0.0264 0.041 -0.0252 0.0421 -0.024 0.043 -0.0224 0.0437 -0.0211 0.0444 -0.0196 0.0455 -0.0183 0.0462 -0.0167 0.0468 -0.0152 0.0474 -0.0136 0.0483 -0.0001 0.0001zm-0.3769 -0.1003l0.377 0.1002 -0.0028 0.0096 -0.0033 0.0094 -0.0037 0.0091 -0.0041 0.0089 -0.0045 0.0085 -0.0049 0.0083 -0.0053 0.008 -0.0057 0.0076 -0.006 0.0074 -0.0063 0.007 -0.0066 0.0067 -0.007 0.0063 -0.0072 0.006 -0.0075 0.0056 -0.0077 0.0053 -0.008 0.0049 -0.0082 0.0045 -0.0084 0.0041 -0.0086 0.0037 -0.0088 0.0033 -0.009 0.0029 -0.0091 0.0024 -0.0092 0.002 -0.0094 0.0016 -0.0094 0.0011 -0.0096 0.0006 -0.0096 0.0002 -0.0097 -0.0004 -0.0097 -0.0008 -0.0098 -0.0013 -0.0097 -0.0018 -0.0098 -0.0023 -0.0096 -0.0028 -0.0094 -0.0033 -0.0091 -0.0037 -0.0089 -0.0041 -0.0085 -0.0045 -0.0083 -0.0049 -0.008 -0.0053 -0.0076 -0.0057 -0.0074 -0.006 -0.007 -0.0063 -0.0067 -0.0066 -0.0063 -0.007 -0.006 -0.0072 -0.0056 -0.0075 -0.0053 -0.0077 -0.0049 -0.008 -0.0045 -0.0082 -0.0041 -0.0084 -0.0037 -0.0086 -0.0033 -0.0088 -0.0029 -0.009 -0.0024 -0.0091 -0.002 -0.0092 -0.0016 -0.0094 -0.0011 -0.0094 -0.0006 -0.0096 -0.0002 -0.0096 0.0004 -0.0097 0.0008 -0.0097 0.0013 -0.0098 0.0018 -0.0097 0.0023 -0.0098zm0.1011 3.3233l-0.39 0 0 0 0 -0.0072 0.0001 -0.0187 0.0001 -0.0311 0.0004 -0.042 0.0005 -0.0524 0.0008 -0.0626 0.0011 -0.0716 0.0014 -0.0805 0.0019 -0.0886 0.0024 -0.096 0.0029 -0.1028 0.0034 -0.109 0.004 -0.1147 0.0048 -0.1198 0.0055 -0.1241 0.0062 -0.1278 0.0071 -0.1311 0.0081 -0.1338 0.0089 -0.1354 0.0099 -0.1371 0.011 -0.1378 0.0121 -0.1379 0.0133 -0.1374 0.0144 -0.1366 0.0159 -0.135 0.0171 -0.1325 0.0185 -0.13 0.0201 -0.1268 0.0216 -0.1227 0.0233 -0.1185 0.0251 -0.1136 0.0271 -0.1083 0.3768 0.1004 -0.0243 0.0971 -0.0229 0.104 -0.0217 0.1103 -0.0204 0.1157 -0.0191 0.1204 -0.0177 0.1244 -0.0165 0.1279 -0.0153 0.1304 -0.014 0.1326 -0.0129 0.134 -0.0119 0.1347 -0.0108 0.1348 -0.0097 0.1343 -0.0087 0.1332 -0.0079 0.1314 -0.0069 0.1289 -0.0062 0.126 -0.0055 0.1223 -0.0046 0.118 -0.004 0.1131 -0.0034 0.1076 -0.0029 0.1014 -0.0022 0.0948 -0.0019 0.0872 -0.0014 0.0793 -0.0011 0.0708 -0.0008 0.0614 -0.0005 0.0518 -0.0004 0.041 -0.0001 0.0299 -0.0001 0.0187 0 0.0056 0 0zm-0.39 0l0.39 0 -0.0003 0.01 -0.0007 0.0099 -0.0012 0.0098 -0.0018 0.0096 -0.0021 0.0094 -0.0027 0.0093 -0.003 0.009 -0.0035 0.0089 -0.0039 0.0086 -0.0044 0.0084 -0.0047 0.0082 -0.005 0.0079 -0.0055 0.0076 -0.0058 0.0074 -0.0061 0.0071 -0.0065 0.0068 -0.0067 0.0064 -0.0071 0.0061 -0.0074 0.0058 -0.0076 0.0055 -0.0079 0.005 -0.0082 0.0047 -0.0084 0.0044 -0.0086 0.0039 -0.0089 0.0035 -0.009 0.003 -0.0093 0.0027 -0.0094 0.0021 -0.0096 0.0018 -0.0098 0.0012 -0.0099 0.0007 -0.01 0.0003 -0.01 -0.0003 -0.0099 -0.0007 -0.0098 -0.0012 -0.0096 -0.0018 -0.0094 -0.0021 -0.0093 -0.0027 -0.009 -0.003 -0.0089 -0.0035 -0.0086 -0.0039 -0.0084 -0.0044 -0.0082 -0.0047 -0.0079 -0.005 -0.0076 -0.0055 -0.0074 -0.0058 -0.0071 -0.0061 -0.0068 -0.0064 -0.0064 -0.0068 -0.0061 -0.0071 -0.0058 -0.0074 -0.0055 -0.0076 -0.005 -0.0079 -0.0047 -0.0082 -0.0044 -0.0084 -0.0039 -0.0086 -0.0035 -0.0089 -0.003 -0.009 -0.0027 -0.0093 -0.0021 -0.0094 -0.0018 -0.0096 -0.0012 -0.0098 -0.0007 -0.0099 -0.0003 -0.01zm0.6659 3.2232l-0.377 0.1 0.0001 0.0002 -0.0271 -0.1083 -0.0251 -0.1136 -0.0233 -0.1185 -0.0216 -0.1228 -0.0201 -0.1267 -0.0185 -0.13 -0.0171 -0.1327 -0.0159 -0.1349 -0.0144 -0.1365 -0.0133 -0.1374 -0.0121 -0.138 -0.011 -0.1377 -0.0099 -0.1371 -0.0089 -0.1355 -0.0081 -0.1337 -0.0071 -0.1311 -0.0062 -0.1278 -0.0055 -0.1241 -0.0048 -0.1198 -0.004 -0.1147 -0.0034 -0.109 -0.0029 -0.1029 -0.0024 -0.0959 -0.0019 -0.0886 -0.0014 -0.0805 -0.0011 -0.0716 -0.0008 -0.0626 -0.0005 -0.0524 -0.0004 -0.042 -0.0001 -0.0311 -0.0001 -0.0187 0 -0.0072 0.39 0 0 0.0056 0.0001 0.0187 0.0001 0.0299 0.0004 0.041 0.0005 0.0518 0.0008 0.0614 0.0011 0.0708 0.0014 0.0793 0.0019 0.0872 0.0022 0.0947 0.0029 0.1015 0.0034 0.1076 0.004 0.1131 0.0046 0.118 0.0055 0.1223 0.0062 0.126 0.0069 0.1289 0.0079 0.1313 0.0087 0.1333 0.0097 0.1343 0.0108 0.1347 0.0119 0.1348 0.0129 0.134 0.014 0.1325 0.0153 0.1305 0.0165 0.1279 0.0177 0.1244 0.0191 0.1203 0.0204 0.1158 0.0217 0.1103 0.0229 0.104 0.0243 0.0971 0.0001 0.0002zm-0.3769 0.1002l0.3768 -0.1004 0.0023 0.0098 0.0019 0.0097 0.0013 0.0098 0.0008 0.0097 0.0003 0.0096 -0.0002 0.0097 -0.0006 0.0095 -0.0011 0.0095 -0.0015 0.0093 -0.002 0.0092 -0.0025 0.0091 -0.0028 0.009 -0.0033 0.0088 -0.0037 0.0086 -0.0041 0.0084 -0.0045 0.0082 -0.0049 0.008 -0.0053 0.0077 -0.0056 0.0075 -0.006 0.0073 -0.0063 0.0069 -0.0067 0.0066 -0.007 0.0064 -0.0073 0.006 -0.0077 0.0056 -0.008 0.0053 -0.0082 0.0049 -0.0086 0.0046 -0.0088 0.0041 -0.0091 0.0037 -0.0094 0.0033 -0.0096 0.0028 -0.0098 0.0023 -0.0097 0.0019 -0.0098 0.0013 -0.0097 0.0008 -0.0096 0.0003 -0.0097 -0.0002 -0.0095 -0.0006 -0.0095 -0.0011 -0.0093 -0.0015 -0.0092 -0.002 -0.0091 -0.0025 -0.009 -0.0028 -0.0088 -0.0033 -0.0086 -0.0037 -0.0084 -0.0041 -0.0082 -0.0045 -0.008 -0.0049 -0.0077 -0.0053 -0.0075 -0.0056 -0.0073 -0.006 -0.0069 -0.0063 -0.0066 -0.0067 -0.0064 -0.007 -0.006 -0.0073 -0.0056 -0.0077 -0.0053 -0.008 -0.0049 -0.0082 -0.0046 -0.0086 -0.0041 -0.0088 -0.0037 -0.0091 -0.0033 -0.0094 -0.0028 -0.0096zm1.4337 0.9445l-0.1016 0.3766 0.0001 0 -0.06 -0.0172 -0.0594 -0.019 -0.0584 -0.0209 -0.0577 -0.0226 -0.0566 -0.0245 -0.0556 -0.026 -0.0547 -0.0278 -0.0537 -0.0295 -0.0525 -0.0311 -0.0513 -0.0327 -0.0504 -0.0343 -0.0491 -0.0359 -0.0479 -0.0375 -0.0465 -0.0388 -0.0453 -0.0404 -0.044 -0.0419 -0.0425 -0.0432 -0.0411 -0.0445 -0.0396 -0.0459 -0.0383 -0.0474 -0.0368 -0.0488 -0.0349 -0.0498 -0.0336 -0.0511 -0.0319 -0.0525 -0.03 -0.0534 -0.0284 -0.0545 -0.0266 -0.0558 -0.0249 -0.0568 -0.023 -0.0579 -0.0211 -0.0588 -0.0193 -0.06 -0.0172 -0.0608 0.377 -0.1 0.0136 0.048 0.0151 0.0472 0.0167 0.0464 0.0182 0.0457 0.0195 0.0448 0.021 0.0438 0.0224 0.0431 0.0238 0.0422 0.0249 0.0411 0.0264 0.0403 0.0277 0.0394 0.0288 0.0382 0.0301 0.0372 0.0314 0.0363 0.0325 0.0353 0.0337 0.0342 0.0346 0.0331 0.0359 0.0318 0.0369 0.031 0.0379 0.0295 0.0389 0.0285 0.0398 0.0271 0.0411 0.0261 0.0417 0.0247 0.0427 0.0235 0.0435 0.0222 0.0444 0.0208 0.0452 0.0195 0.0459 0.018 0.0468 0.0167 0.0474 0.0152 0.0482 0.0138 0.0001 0zm-0.1015 0.3766l0.1014 -0.3766 0.0096 0.0029 0.0094 0.0033 0.0091 0.0037 0.0088 0.0041 0.0085 0.0046 0.0083 0.005 0.0079 0.0053 0.0077 0.0056 0.0073 0.0061 0.007 0.0063 0.0067 0.0067 0.0063 0.0069 0.0059 0.0073 0.0057 0.0075 0.0052 0.0077 0.0049 0.008 0.0044 0.0083 0.0041 0.0084 0.0037 0.0086 0.0033 0.0088 0.0028 0.009 0.0024 0.0091 0.002 0.0092 0.0015 0.0094 0.0011 0.0094 0.0006 0.0096 0.0001 0.0096 -0.0003 0.0096 -0.0009 0.0098 -0.0013 0.0097 -0.0018 0.0098 -0.0024 0.0097 -0.0029 0.0096 -0.0033 0.0094 -0.0037 0.0091 -0.0041 0.0088 -0.0046 0.0085 -0.005 0.0083 -0.0053 0.0079 -0.0056 0.0077 -0.0061 0.0073 -0.0063 0.007 -0.0067 0.0067 -0.0069 0.0063 -0.0073 0.0059 -0.0075 0.0057 -0.0077 0.0052 -0.008 0.0049 -0.0083 0.0044 -0.0084 0.0041 -0.0086 0.0037 -0.0088 0.0033 -0.009 0.0028 -0.0091 0.0024 -0.0092 0.002 -0.0094 0.0015 -0.0094 0.0011 -0.0096 0.0006 -0.0096 0.0001 -0.0096 -0.0003 -0.0098 -0.0009 -0.0097 -0.0013 -0.0098 -0.0018 -0.0097 -0.0024zm5.3294 -0.0992l0 0.39 0 0 -0.0126 0 -0.0355 -0.0001 -0.0579 -0.0001 -0.0786 -0.0004 -0.0978 -0.0005 -0.116 -0.0008 -0.1324 -0.0011 -0.1479 -0.0014 -0.1619 -0.0019 -0.1743 -0.0024 -0.1856 -0.0028 -0.1956 -0.0035 -0.204 -0.004 -0.2113 -0.0048 -0.217 -0.0056 -0.2216 -0.0062 -0.2248 -0.0071 -0.2266 -0.008 -0.2269 -0.009 -0.2261 -0.0099 -0.224 -0.011 -0.2204 -0.012 -0.2155 -0.0133 -0.2094 -0.0145 -0.2019 -0.0158 -0.1931 -0.0171 -0.183 -0.0185 -0.1721 -0.02 -0.1595 -0.0218 -0.1463 -0.0234 -0.1322 -0.0256 -0.1177 -0.0282 0.1016 -0.3766 0.0979 0.0234 0.118 0.0228 0.1357 0.0218 0.1513 0.0206 0.1653 0.0192 0.1778 0.0181 0.1887 0.0167 0.1981 0.0154 0.2062 0.0143 0.2127 0.0131 0.218 0.012 0.2218 0.0108 0.2243 0.0099 0.2253 0.0088 0.225 0.008 0.2234 0.0071 0.2204 0.0062 0.216 0.0054 0.2101 0.0048 0.2032 0.004 0.1946 0.0035 0.1848 0.0028 0.1737 0.0024 0.1611 0.0019 0.1471 0.0014 0.132 0.0011 0.1154 0.0008 0.0974 0.0005 0.078 0.0004 0.0573 0.0001 0.0355 0.0001 0.0118 0 0 0zm0 0.39l0 -0.39 0.01 0.0003 0.0099 0.0007 0.0098 0.0012 0.0096 0.0018 0.0094 0.0021 0.0093 0.0027 0.009 0.003 0.0089 0.0035 0.0086 0.0039 0.0084 0.0044 0.0082 0.0047 0.0079 0.005 0.0076 0.0055 0.0074 0.0058 0.0071 0.0061 0.0068 0.0065 0.0064 0.0067 0.0061 0.0071 0.0058 0.0074 0.0055 0.0076 0.005 0.0079 0.0047 0.0082 0.0044 0.0084 0.0039 0.0086 0.0035 0.0089 0.003 0.009 0.0027 0.0093 0.0021 0.0094 0.0018 0.0096 0.0012 0.0098 0.0007 0.0099 0.0003 0.01 -0.0003 0.01 -0.0007 0.0099 -0.0012 0.0098 -0.0018 0.0096 -0.0021 0.0094 -0.0027 0.0093 -0.003 0.009 -0.0035 0.0089 -0.0039 0.0086 -0.0044 0.0084 -0.0047 0.0082 -0.005 0.0079 -0.0055 0.0076 -0.0058 0.0074 -0.0061 0.0071 -0.0064 0.0068 -0.0068 0.0064 -0.0071 0.0061 -0.0074 0.0058 -0.0076 0.0055 -0.0079 0.005 -0.0082 0.0047 -0.0084 0.0044 -0.0086 0.0039 -0.0089 0.0035 -0.009 0.003 -0.0093 0.0027 -0.0094 0.0021 -0.0096 0.0018 -0.0098 0.0012 -0.0099 0.0007 -0.01 0.0003zm5.228 -0.6675l0.1014 0.3766 0.0001 0 -0.1177 0.0282 -0.1322 0.0255 -0.1463 0.0236 -0.1595 0.0217 -0.172 0.0201 -0.1831 0.0185 -0.1931 0.0171 -0.2019 0.0158 -0.2094 0.0145 -0.2155 0.0132 -0.2204 0.0121 -0.224 0.011 -0.2261 0.0099 -0.2269 0.009 -0.2266 0.008 -0.2248 0.0071 -0.2216 0.0062 -0.217 0.0056 -0.2113 0.0047 -0.204 0.0041 -0.1956 0.0035 -0.1856 0.0028 -0.1743 0.0024 -0.1619 0.0019 -0.1479 0.0014 -0.1324 0.0011 -0.116 0.0008 -0.0978 0.0005 -0.0786 0.0004 -0.0579 0.0001 -0.0355 0.0001 -0.0126 0 0 -0.39 0.0118 0 0.0355 -0.0001 0.0573 -0.0001 0.078 -0.0004 0.0974 -0.0005 0.1154 -0.0008 0.132 -0.0011 0.1471 -0.0014 0.1611 -0.0019 0.1737 -0.0024 0.1848 -0.0028 0.1946 -0.0035 0.2032 -0.0041 0.2101 -0.0047 0.216 -0.0054 0.2204 -0.0062 0.2234 -0.0071 0.225 -0.008 0.2253 -0.0088 0.2243 -0.0099 0.2218 -0.0108 0.218 -0.0121 0.2127 -0.013 0.2062 -0.0143 0.1981 -0.0154 0.1887 -0.0167 0.1777 -0.0181 0.1654 -0.0193 0.1513 -0.0205 0.1357 -0.0218 0.118 -0.0229 0.0979 -0.0234 0.0001 0zm0.1015 0.3766l-0.1016 -0.3766 0.0097 -0.0024 0.0098 -0.0018 0.0097 -0.0014 0.0098 -0.0008 0.0096 -0.0003 0.0096 0.0001 0.0096 0.0006 0.0095 0.0011 0.0093 0.0015 0.0093 0.002 0.0091 0.0024 0.0089 0.0028 0.0088 0.0033 0.0087 0.0036 0.0084 0.0041 0.0082 0.0045 0.008 0.0048 0.0078 0.0053 0.0075 0.0056 0.0072 0.006 0.007 0.0063 0.0067 0.0066 0.0063 0.007 0.006 0.0073 0.0057 0.0077 0.0053 0.0079 0.005 0.0083 0.0045 0.0085 0.0042 0.0088 0.0037 0.0091 0.0033 0.0094 0.0029 0.0096 0.0024 0.0097 0.0018 0.0098 0.0014 0.0097 0.0008 0.0098 0.0003 0.0096 -0.0001 0.0096 -0.0006 0.0096 -0.0011 0.0095 -0.0015 0.0093 -0.002 0.0093 -0.0024 0.0091 -0.0028 0.0089 -0.0033 0.0088 -0.0036 0.0087 -0.0041 0.0084 -0.0045 0.0082 -0.0048 0.008 -0.0053 0.0078 -0.0056 0.0075 -0.006 0.0072 -0.0063 0.007 -0.0066 0.0067 -0.007 0.0063 -0.0073 0.006 -0.0077 0.0057 -0.0079 0.0053 -0.0083 0.005 -0.0085 0.0045 -0.0088 0.0042 -0.0091 0.0037 -0.0094 0.0033 -0.0096 0.0029zm0.9553 -1.4216l0.3768 0.1004 0.0001 -0.0001 -0.0172 0.0607 -0.0192 0.0599 -0.0212 0.059 -0.023 0.0578 -0.0249 0.0568 -0.0266 0.0557 -0.0284 0.0548 -0.0302 0.0534 -0.0317 0.0523 -0.0336 0.0512 -0.0352 0.05 -0.0366 0.0485 -0.038 0.0472 -0.0397 0.0461 -0.0412 0.0446 -0.0426 0.0433 -0.044 0.0418 -0.0452 0.0404 -0.0467 0.0389 -0.0478 0.0374 -0.0491 0.0359 -0.0503 0.0342 -0.0513 0.0328 -0.0526 0.0311 -0.0535 0.0294 -0.0548 0.0279 -0.0556 0.0261 -0.0567 0.0244 -0.0575 0.0226 -0.0585 0.0209 -0.0594 0.019 -0.06 0.0172 -0.1014 -0.3766 0.0482 -0.0138 0.0474 -0.0152 0.0467 -0.0167 0.0459 -0.018 0.0453 -0.0196 0.0444 -0.0207 0.0434 -0.0221 0.0427 -0.0236 0.0418 -0.0247 0.0409 -0.026 0.0399 -0.0272 0.0389 -0.0285 0.038 -0.0296 0.0369 -0.0309 0.0358 -0.0318 0.0348 -0.0332 0.0336 -0.0341 0.0324 -0.0352 0.0313 -0.0363 0.0302 -0.0374 0.029 -0.0383 0.0276 -0.0392 0.0262 -0.0402 0.0251 -0.0413 0.0238 -0.0422 0.0224 -0.043 0.021 -0.0439 0.0195 -0.0448 0.0182 -0.0456 0.0166 -0.0464 0.0152 -0.0473 0.0136 -0.0481 0.0001 -0.0001zm0.3769 0.1003l-0.377 -0.1002 0.0028 -0.0096 0.0033 -0.0094 0.0037 -0.0091 0.0041 -0.0089 0.0045 -0.0085 0.0049 -0.0083 0.0053 -0.008 0.0057 -0.0076 0.006 -0.0074 0.0063 -0.007 0.0066 -0.0067 0.007 -0.0063 0.0072 -0.006 0.0075 -0.0056 0.0077 -0.0053 0.008 -0.0049 0.0082 -0.0045 0.0084 -0.0041 0.0086 -0.0037 0.0088 -0.0033 0.009 -0.0029 0.0091 -0.0024 0.0092 -0.002 0.0094 -0.0016 0.0094 -0.0011 0.0096 -0.0006 0.0096 -0.0002 0.0097 0.0004 0.0097 0.0008 0.0098 0.0013 0.0097 0.0018 0.0098 0.0023 0.0096 0.0028 0.0094 0.0033 0.0091 0.0037 0.0089 0.0041 0.0085 0.0045 0.0083 0.0049 0.008 0.0053 0.0076 0.0057 0.0074 0.006 0.007 0.0063 0.0067 0.0066 0.0063 0.007 0.006 0.0072 0.0056 0.0075 0.0053 0.0077 0.0049 0.008 0.0045 0.0082 0.0041 0.0084 0.0037 0.0086 0.0033 0.0088 0.0029 0.009 0.0024 0.0091 0.002 0.0092 0.0016 0.0094 0.0011 0.0094 0.0006 0.0096 0.0002 0.0096 -0.0004 0.0097 -0.0008 0.0097 -0.0013 0.0098 -0.0018 0.0097 -0.0023 0.0098zm-0.1011 -3.3232l0.39 0 0 0 0 0.0072 -0.0001 0.0187 -0.0001 0.0311 -0.0004 0.042 -0.0005 0.0524 -0.0008 0.0626 -0.0011 0.0716 -0.0014 0.0805 -0.0019 0.0886 -0.0024 0.0959 -0.0029 0.1029 -0.0034 0.109 -0.004 0.1147 -0.0048 0.1198 -0.0055 0.124 -0.0062 0.1279 -0.0071 0.1311 -0.0081 0.1337 -0.0089 0.1355 -0.0099 0.137 -0.011 0.1378 -0.0121 0.1379 -0.0133 0.1375 -0.0144 0.1365 -0.0159 0.135 -0.0171 0.1325 -0.0185 0.13 -0.0201 0.1268 -0.0216 0.1227 -0.0233 0.1185 -0.0251 0.1136 -0.0271 0.1083 -0.3768 -0.1004 0.0243 -0.0971 0.0229 -0.104 0.0217 -0.1103 0.0204 -0.1157 0.0191 -0.1204 0.0177 -0.1244 0.0165 -0.1279 0.0153 -0.1304 0.014 -0.1325 0.0129 -0.1341 0.0119 -0.1347 0.0108 -0.1348 0.0097 -0.1342 0.0087 -0.1333 0.0079 -0.1313 0.0069 -0.1289 0.0062 -0.1261 0.0055 -0.1222 0.0046 -0.118 0.004 -0.1131 0.0034 -0.1076 0.0029 -0.1015 0.0022 -0.0947 0.0019 -0.0872 0.0014 -0.0793 0.0011 -0.0708 0.0008 -0.0614 0.0005 -0.0518 0.0004 -0.041 0.0001 -0.0299 0.0001 -0.0187 0 -0.0056 0 0zm0.39 0l-0.39 0 0.0003 -0.01 0.0007 -0.0099 0.0012 -0.0098 0.0018 -0.0096 0.0021 -0.0094 0.0027 -0.0093 0.003 -0.009 0.0035 -0.0089 0.0039 -0.0086 0.0044 -0.0084 0.0047 -0.0082 0.005 -0.0079 0.0055 -0.0076 0.0058 -0.0074 0.0061 -0.0071 0.0065 -0.0068 0.0067 -0.0064 0.0071 -0.0061 0.0074 -0.0058 0.0076 -0.0055 0.0079 -0.005 0.0082 -0.0047 0.0084 -0.0044 0.0086 -0.0039 0.0089 -0.0035 0.009 -0.003 0.0093 -0.0027 0.0094 -0.0021 0.0096 -0.0018 0.0098 -0.0012 0.0099 -0.0007 0.01 -0.0003 0.01 0.0003 0.0099 0.0007 0.0098 0.0012 0.0096 0.0018 0.0094 0.0021 0.0093 0.0027 0.009 0.003 0.0089 0.0035 0.0086 0.0039 0.0084 0.0044 0.0082 0.0047 0.0079 0.005 0.0076 0.0055 0.0074 0.0058 0.0071 0.0061 0.0068 0.0064 0.0064 0.0068 0.0061 0.0071 0.0058 0.0074 0.0055 0.0076 0.005 0.0079 0.0047 0.0082 0.0044 0.0084 0.0039 0.0086 0.0035 0.0089 0.003 0.009 0.0027 0.0093 0.0021 0.0094 0.0018 0.0096 0.0012 0.0098 0.0007 0.0099 0.0003 0.01zm-0.6659 -3.2232l0.377 -0.1 -0.0001 -0.0002 0.0271 0.1083 0.0251 0.1136 0.0233 0.1185 0.0216 0.1227 0.0201 0.1268 0.0185 0.13 0.0171 0.1325 0.0159 0.135 0.0144 0.1366 0.0133 0.1374 0.0121 0.1379 0.011 0.1378 0.0099 0.1371 0.0089 0.1354 0.0081 0.1338 0.0071 0.1311 0.0062 0.1278 0.0055 0.1241 0.0048 0.1198 0.004 0.1147 0.0034 0.109 0.0029 0.1028 0.0024 0.096 0.0019 0.0886 0.0014 0.0805 0.0011 0.0716 0.0008 0.0626 0.0005 0.0524 0.0004 0.042 0.0001 0.0311 0.0001 0.0187 0 0.0072 -0.39 0 0 -0.0056 -0.0001 -0.0187 -0.0001 -0.0299 -0.0004 -0.041 -0.0005 -0.0518 -0.0008 -0.0614 -0.0011 -0.0708 -0.0014 -0.0793 -0.0019 -0.0872 -0.0022 -0.0948 -0.0029 -0.1014 -0.0034 -0.1076 -0.004 -0.1131 -0.0046 -0.118 -0.0055 -0.1223 -0.0062 -0.126 -0.0069 -0.1289 -0.0079 -0.1314 -0.0087 -0.1332 -0.0097 -0.1343 -0.0108 -0.1348 -0.0119 -0.1347 -0.0129 -0.134 -0.014 -0.1326 -0.0153 -0.1304 -0.0165 -0.1279 -0.0177 -0.1244 -0.0191 -0.1204 -0.0204 -0.1157 -0.0217 -0.1103 -0.0229 -0.104 -0.0243 -0.0971 -0.0001 -0.0002zm0.3769 -0.1002l-0.3768 0.1004 -0.0023 -0.0098 -0.0019 -0.0097 -0.0013 -0.0098 -0.0008 -0.0097 -0.0003 -0.0096 0.0002 -0.0097 0.0006 -0.0095 0.0011 -0.0095 0.0015 -0.0093 0.002 -0.0092 0.0025 -0.0091 0.0028 -0.009 0.0033 -0.0088 0.0037 -0.0086 0.0041 -0.0084 0.0045 -0.0082 0.0049 -0.008 0.0053 -0.0077 0.0056 -0.0075 0.006 -0.0073 0.0063 -0.0069 0.0067 -0.0066 0.007 -0.0064 0.0073 -0.006 0.0077 -0.0056 0.008 -0.0053 0.0082 -0.0049 0.0086 -0.0046 0.0088 -0.0041 0.0091 -0.0037 0.0094 -0.0033 0.0096 -0.0028 0.0098 -0.0023 0.0097 -0.0019 0.0098 -0.0013 0.0097 -0.0008 0.0096 -0.0003 0.0097 0.0002 0.0095 0.0006 0.0095 0.0011 0.0093 0.0015 0.0092 0.002 0.0091 0.0025 0.009 0.0028 0.0088 0.0033 0.0086 0.0037 0.0084 0.0041 0.0082 0.0045 0.008 0.0049 0.0077 0.0053 0.0075 0.0056 0.0073 0.006 0.0069 0.0063 0.0066 0.0067 0.0064 0.007 0.006 0.0073 0.0056 0.0077 0.0053 0.008 0.0049 0.0082 0.0046 0.0086 0.0041 0.0088 0.0037 0.0091 0.0033 0.0094 0.0028 0.0096zm-7.8484 1.3144l0 4.0179 -0.39 0 0 -4.0179 0.2914 -0.1695 0.0986 0.1695zm0 0l-0.39 0 0.0003 -0.01 0.0007 -0.0099 0.0012 -0.0098 0.0018 -0.0096 0.0021 -0.0094 0.0027 -0.0093 0.003 -0.009 0.0035 -0.0089 0.0039 -0.0086 0.0044 -0.0084 0.0047 -0.0082 0.005 -0.0079 0.0055 -0.0076 0.0058 -0.0074 0.0061 -0.0071 0.0064 -0.0068 0.0068 -0.0064 0.0071 -0.0061 0.0074 -0.0058 0.0076 -0.0055 0.0079 -0.005 0.0082 -0.0047 0.0084 -0.0044 0.0086 -0.0039 0.0089 -0.0035 0.009 -0.003 0.0093 -0.0027 0.0094 -0.0021 0.0096 -0.0018 0.0098 -0.0012 0.0099 -0.0007 0.01 -0.0003 0.01 0.0003 0.0099 0.0007 0.0098 0.0012 0.0096 0.0018 0.0094 0.0021 0.0093 0.0027 0.009 0.003 0.0089 0.0035 0.0086 0.0039 0.0084 0.0044 0.0082 0.0047 0.0079 0.005 0.0076 0.0055 0.0074 0.0058 0.0071 0.0061 0.0067 0.0064 0.0065 0.0068 0.0061 0.0071 0.0058 0.0074 0.0055 0.0076 0.005 0.0079 0.0047 0.0082 0.0044 0.0084 0.0039 0.0086 0.0035 0.0089 0.003 0.009 0.0027 0.0093 0.0021 0.0094 0.0018 0.0096 0.0012 0.0098 0.0007 0.0099 0.0003 0.01zm3.2399 2.1785l-3.5313 -2.009 0.1928 -0.339 3.5313 2.009 0 0.339 -0.1928 0zm0 0l0.1928 -0.339 0.0086 0.0052 0.0082 0.0055 0.0079 0.0059 0.0075 0.0063 0.0071 0.0065 0.0068 0.0069 0.0063 0.0071 0.006 0.0074 0.0056 0.0077 0.0051 0.0079 0.0048 0.0081 0.0044 0.0083 0.0039 0.0085 0.0036 0.0087 0.0031 0.0088 0.0027 0.009 0.0023 0.0091 0.0018 0.0092 0.0014 0.0092 0.0009 0.0094 0.0005 0.0093 0.0001 0.0095 -0.0004 0.0094 -0.0009 0.0094 -0.0014 0.0095 -0.0018 0.0094 -0.0023 0.0093 -0.0027 0.0093 -0.0033 0.0092 -0.0037 0.0091 -0.0043 0.009 -0.0047 0.0088 -0.0052 0.0086 -0.0055 0.0082 -0.0059 0.0079 -0.0063 0.0075 -0.0065 0.0071 -0.0069 0.0068 -0.0071 0.0063 -0.0074 0.006 -0.0077 0.0056 -0.0079 0.0051 -0.0081 0.0048 -0.0083 0.0044 -0.0085 0.0039 -0.0087 0.0036 -0.0088 0.0031 -0.009 0.0027 -0.0091 0.0023 -0.0092 0.0018 -0.0092 0.0014 -0.0094 0.0009 -0.0093 0.0005 -0.0095 0.0001 -0.0094 -0.0004 -0.0094 -0.0009 -0.0095 -0.0014 -0.0094 -0.0018 -0.0093 -0.0023 -0.0093 -0.0027 -0.0092 -0.0033 -0.0091 -0.0037 -0.009 -0.0043 -0.0088 -0.0047zm-3.5313 1.6699l3.5313 -2.0089 0.1928 0.339 -3.5313 2.0089 -0.2914 -0.1695 0.0986 -0.1695zm0 0l0.1928 0.339 -0.0088 0.0047 -0.009 0.0043 -0.0091 0.0037 -0.0092 0.0033 -0.0093 0.0027 -0.0093 0.0023 -0.0094 0.0018 -0.0095 0.0014 -0.0094 0.0009 -0.0094 0.0004 -0.0095 -0.0001 -0.0093 -0.0005 -0.0094 -0.0009 -0.0092 -0.0014 -0.0092 -0.0018 -0.0091 -0.0023 -0.009 -0.0027 -0.0088 -0.0031 -0.0087 -0.0036 -0.0085 -0.0039 -0.0083 -0.0044 -0.0081 -0.0048 -0.0079 -0.0051 -0.0077 -0.0056 -0.0074 -0.006 -0.0071 -0.0063 -0.0069 -0.0068 -0.0065 -0.0071 -0.0063 -0.0075 -0.0059 -0.0079 -0.0055 -0.0082 -0.0052 -0.0086 -0.0047 -0.0088 -0.0043 -0.009 -0.0037 -0.0091 -0.0033 -0.0092 -0.0027 -0.0093 -0.0023 -0.0093 -0.0018 -0.0094 -0.0014 -0.0095 -0.0009 -0.0094 -0.0004 -0.0094 0.0001 -0.0095 0.0005 -0.0093 0.0009 -0.0094 0.0014 -0.0092 0.0018 -0.0092 0.0023 -0.0091 0.0027 -0.009 0.0031 -0.0088 0.0036 -0.0087 0.0039 -0.0085 0.0044 -0.0083 0.0048 -0.0081 0.0051 -0.0079 0.0056 -0.0077 0.006 -0.0074 0.0063 -0.0071 0.0068 -0.0069 0.0071 -0.0065 0.0075 -0.0063 0.0079 -0.0059 0.0082 -0.0055 0.0086 -0.0052z"/>
  </g>
 </g>
</svg>
