<?xml version="1.0" encoding="UTF-8"?>
<!DOCTYPE svg PUBLIC "-//W3C//DTD SVG 1.1//EN" "http://www.w3.org/Graphics/SVG/1.1/DTD/svg11.dtd">
<!-- Creator: CorelDRAW -->
<svg xmlns="http://www.w3.org/2000/svg" xml:space="preserve" width="15mm" height="11mm" style="shape-rendering:geometricPrecision; text-rendering:geometricPrecision; image-rendering:optimizeQuality; fill-rule:evenodd; clip-rule:evenodd"
viewBox="0 0 15 11"
 xmlns:xlink="http://www.w3.org/1999/xlink">
 <defs>
  <style type="text/css">
   <![CDATA[
    .str0 {stroke:#B73128;stroke-width:0.3387}
    .fil0 {fill:none}
   ]]>
  </style>
 </defs>
 <g id="Layer_x0020_1">
  <metadata id="CorelCorpID_0Corel-Layer"/>
  <path id="plane-departure-solid.svg" class="fil0 str0" d="M8.7862 2.127l-4.1095 -1.5414c-0.3522,-0.1307 -0.7423,-0.1117 -1.0775,0.057l-0.9678 0.4828c-0.2341,0.1181 -0.251,0.4449 -0.0317,0.5862l3.0975 1.9926 -2.0769 1.0606 -1.2272 -0.5462c-0.1834,-0.0822 -0.3964,-0.078 -0.5756,0.0127l-0.679 0.3395c-0.1961,0.0991 -0.2488,0.3542 -0.1054,0.5208l1.5413 1.7986c0.1287,0.1497 0.3163,0.2361 0.5124,0.2361l2.9035 0c0.1054,0 0.2087,-0.0253 0.3015,-0.0717l5.7542 -2.876c0.9805,-0.4913 1.7396,-1.3347 2.1254,-2.3616 0.2004,-0.5313 -0.1939,-1.1006 -0.7633,-1.1006l-1.2103 0c-0.4259,0 -0.8476,0.1012 -1.2271,0.2951l-2.1845 1.1155zm-8.0336 7.6983c0,0.3732 0.3016,0.6747 0.6748,0.6747l12.1452 0c0.3732,0 0.6748,-0.3015 0.6748,-0.6747 0,-0.3732 -0.3016,-0.6748 -0.6748,-0.6748l-12.1452 0c-0.3732,0 -0.6748,0.3016 -0.6748,0.6748z"/>
 </g>
</svg>
